SplineFontDB: 3.0
FontName: Neuton-Regular
FullName: Neuton Regular
FamilyName: Neuton
Weight: Regular
Copyright: Copyright 2010 Brian M Zick (http://21326.info)\n
UComments: "Neuton is a dark, dutch-inspired, compact text serif, intended for use on screen. Neuton is Brian Zick's debut font, and includes text figures, an extended character set, and smooth, readable forms. Neuton works well in any size, as well as in print." 
Version: 1.2
ItalicAngle: 0
UnderlinePosition: -110
UnderlineWidth: 55
Ascent: 790
Descent: 234
LayerCount: 3
Layer: 0 0 "Back"  1
Layer: 1 0 "Fore"  0
Layer: 2 0 "Mask"  1
NeedsXUIDChange: 1
FSType: 0
OS2Version: 0
OS2_WeightWidthSlopeOnly: 0
OS2_UseTypoMetrics: 0
CreationTime: 1288265700
ModificationTime: 1290206137
PfmFamily: 17
TTFWeight: 500
TTFWidth: 5
LineGap: 0
VLineGap: 0
OS2TypoAscent: 1580
OS2TypoAOffset: 1
OS2TypoDescent: 468
OS2TypoDOffset: 1
OS2TypoLinegap: 92
OS2WinAscent: 0
OS2WinAOffset: 1
OS2WinDescent: 0
OS2WinDOffset: 1
HheadAscent: 0
HheadAOffset: 1
HheadDescent: 0
HheadDOffset: 1
OS2Vendor: 'PfEd'
Lookup: 260 0 0 "'abvm' Above Base Mark lookup 0"  {} ['abvm' ('DFLT' <'dflt' > 'grek' <'dflt' > 'hebr' <'dflt' > 'latn' <'dflt' > ) ]
MarkAttachClasses: 1
DEI: 91125

StartChar: A
Encoding: 65 65 0
Width: 774
VWidth: 0
Flags: W
LayerCount: 3
Fore
SplineSet
454 768 m 1
 690 75 l 1
 773 49 l 1
 768 0 l 1
 456 0 l 1
 463 45 l 1
 567 78 l 1
 501 262 l 1
 247 262 l 1
 179 75 l 1
 292 49 l 1
 285 0 l 1
 1 0 l 1
 7 45 l 1
 97 78 l 1
 362 749 l 1
 454 768 l 1
270 323 m 1
 483 323 l 1
 382 626 l 1
 270 323 l 1
697 10 m 0
411 753 m 0
EndSplineSet
EndChar

StartChar: AE
Encoding: 198 198 1
Width: 1025
VWidth: 0
Flags: W
LayerCount: 3
Fore
SplineSet
525 641 m 1
 338 344 l 1
 524 344 l 1
 525 641 l 1
524 286 m 1
 306 286 l 1
 175 76 l 1
 288 50 l 1
 281 1 l 1
 5 1 l 1
 11 46 l 1
 93 79 l 1
 525 753 l 1
 995 753 l 1
 976 562 l 1
 924 570 l 1
 899 698 l 1
 634 698 l 1
 634 412 l 1
 790 412 l 1
 816 486 l 1
 873 490 l 1
 853 257 l 1
 801 248 l 1
 781 355 l 1
 634 355 l 1
 634 58 l 1
 915 58 l 1
 975 199 l 1
 1024 190 l 1
 1006 0 l 1
 717 0 l 1
 450 0 l 1
 418 0 l 1
 423 45 l 1
 522 73 l 1
 524 73 l 1
 524 286 l 1
513 753 m 0
EndSplineSet
EndChar

StartChar: B
Encoding: 66 66 26
Width: 683
VWidth: 0
Flags: HW
LayerCount: 3
Fore
SplineSet
373 366 m 2
 238 366 l 1
 238 58 l 1
 371 58 l 2
 476 58 531 132 531 210 c 0
 531 285 479 366 373 366 c 2
462 412 m 1
 462 407 l 1
 586 400 650 310 650 230 c 0
 650 116 571 0 327 0 c 2
 14 0 l 1
 20 45 l 1
 122 73 l 1
 122 669 l 1
 18 687 l 1
 24 733 l 1
 112 746 215 761 322 761 c 0
 510 761 587 676 587 585 c 0
 587 522 557 447 462 412 c 1
238 705 m 1
 238 417 l 1
 394 417 l 1
 446 439 473 482 473 551 c 0
 473 626 433 709 286 709 c 0
 271 709 254 708 238 705 c 1
EndSplineSet
EndChar

StartChar: C
Encoding: 67 67 30
Width: 673
VWidth: 0
Flags: HW
LayerCount: 3
Fore
SplineSet
160 399 m 0
 160 182 291 67 435 67 c 0
 516 67 594 110 646 158 c 1
 668 112 l 1
 620 54 514 -15 388 -15 c 0
 202 -15 30 115 30 357 c 0
 30 536 143 769 420 769 c 0
 500 769 581 752 639 708 c 1
 620 507 l 1
 567 515 l 1
 542 648 l 1
 514 684 463 711 385 711 c 0
 259 711 160 594 160 399 c 0
427 0 m 0
407 753 m 0
EndSplineSet
EndChar

StartChar: D
Encoding: 68 68 35
Width: 802
VWidth: 0
Flags: HW
LayerCount: 3
Fore
SplineSet
239 697 m 1
 239 63 l 1
 327 63 l 2
 542 63 644 200 644 362 c 0
 644 548 536 700 313 700 c 0
 288 700 264 700 239 697 c 1
772 396 m 0
 772 189 620 0 310 0 c 2
 11 0 l 1
 19 45 l 1
 123 78 l 1
 123 668 l 1
 19 686 l 1
 24 732 l 1
 143 751 247 762 335 762 c 0
 675 762 772 583 772 396 c 0
401 377 m 0
381 753 m 0
EndSplineSet
EndChar

StartChar: E
Encoding: 69 69 43
Width: 651
VWidth: 0
Flags: W
LayerCount: 3
Fore
SplineSet
21 753 m 1
 624 753 l 1
 605 560 l 1
 553 568 l 1
 528 698 l 1
 242 698 l 1
 242 410 l 1
 418 410 l 1
 444 482 l 1
 501 490 l 1
 481 255 l 1
 429 247 l 1
 409 353 l 1
 242 353 l 1
 242 58 l 1
 543 58 l 1
 602 197 l 1
 652 190 l 1
 634 0 l 1
 19 0 l 1
 24 45 l 1
 125 73 l 1
 125 682 l 1
 15 707 l 1
 21 753 l 1
346 753 m 0
576 10 m 0
366 0 m 0
EndSplineSet
EndChar

StartChar: Edotaccent
Encoding: 278 278 54
Width: 651
VWidth: 0
Flags: W
LayerCount: 3
Fore
SplineSet
345 847 m 0
 365 847 388 827 388 808 c 0
 388 787 365 765 345 765 c 0
 325 765 304 788 304 809 c 0
 304 828 327 847 345 847 c 0
EndSplineSet
Refer: 43 69 N 1 0 0 1 0 0 2
EndChar

StartChar: Eth
Encoding: 208 208 64
Width: 800
VWidth: 0
Flags: W
LayerCount: 3
Fore
SplineSet
780 399 m 0
 780 202 620 0 321 0 c 2
 11 0 l 1
 19 45 l 1
 123 78 l 1
 123 345 l 1
 14 336 l 1
 21 392 l 1
 123 400 l 1
 123 669 l 1
 19 687 l 1
 24 733 l 1
 143 752 247 763 335 763 c 0
 675 763 780 586 780 399 c 0
239 352 m 1
 239 63 l 1
 367 63 l 2
 566 63 650 207 650 362 c 0
 650 548 539 701 313 701 c 0
 288 701 264 700 239 697 c 1
 239 407 l 1
 395 420 l 1
 388 364 l 1
 239 352 l 1
EndSplineSet
EndChar

StartChar: Euro
Encoding: 8364 8364 66
Width: 673
VWidth: 0
Flags: W
LayerCount: 3
Fore
SplineSet
512 105 m 1
 537 238 l 1
 590 246 l 1
 609 67 l 1
 533 7 469 -15 370 -15 c 0
 201 -15 58 93 34 294 c 1
 -28 294 l 1
 -17 358 l 1
 30 358 l 1
 30 372 31 386 32 400 c 1
 -24 400 l 1
 -13 464 l 1
 41 464 l 1
 72 617 176 769 400 769 c 0
 480 769 541 752 599 708 c 1
 580 507 l 1
 527 515 l 1
 502 648 l 1
 474 684 443 711 365 711 c 0
 254 711 179 620 163 464 c 1
 493 464 l 1
 475 400 l 1
 160 400 l 1
 160 399 l 2
 160 385 160 371 161 358 c 1
 465 358 l 1
 447 294 l 1
 168 294 l 1
 193 134 280 51 400 51 c 0
 438 51 483 65 512 105 c 1
EndSplineSet
EndChar

StartChar: F
Encoding: 70 70 68
Width: 623
VWidth: 0
Flags: W
LayerCount: 3
Fore
SplineSet
21 753 m 1
 623 753 l 1
 598 559 l 1
 545 567 l 1
 524 698 l 1
 242 698 l 1
 242 406 l 1
 416 406 l 1
 442 479 l 1
 496 487 l 1
 480 250 l 1
 427 241 l 1
 408 350 l 1
 242 350 l 1
 241 74 l 1
 385 51 l 1
 377 0 l 1
 19 0 l 1
 24 45 l 1
 125 73 l 1
 125 682 l 1
 15 707 l 1
 21 753 l 1
EndSplineSet
EndChar

StartChar: G
Encoding: 71 71 70
Width: 773
VWidth: 0
Flags: HW
LayerCount: 3
Fore
SplineSet
684 704 m 1
 669 509 l 1
 616 518 l 1
 594 634 l 1
 566 662 493 703 398 703 c 0
 279 703 161 614 161 392 c 0
 161 212 268 47 460 47 c 0
 509 47 548 62 565 72 c 1
 565 263 l 1
 422 286 l 1
 429 336 l 1
 766 336 l 1
 759 291 l 1
 684 266 l 1
 684 48 l 1
 604 0 513 -19 392 -19 c 0
 148 -19 30 144 30 350 c 0
 30 610 227 763 428 763 c 0
 535 763 624 740 684 704 c 1
447 0 m 0
447 753 m 0
EndSplineSet
EndChar

StartChar: H
Encoding: 72 72 78
Width: 858
VWidth: 0
Flags: W
LayerCount: 3
Fore
SplineSet
347 0 m 1
 19 0 l 1
 24 45 l 1
 125 73 l 1
 125 682 l 1
 15 707 l 1
 21 753 l 1
 351 753 l 1
 345 707 l 1
 243 684 l 1
 243 419 l 1
 623 419 l 1
 623 682 l 1
 512 707 l 1
 519 753 l 1
 849 753 l 1
 842 707 l 1
 741 684 l 1
 741 69 l 1
 851 49 l 1
 845 0 l 1
 516 0 l 1
 523 45 l 1
 623 73 l 1
 623 358 l 1
 243 357 l 1
 243 69 l 1
 355 49 l 1
 347 0 l 1
429 377 m 0
433 753 m 0
EndSplineSet
EndChar

StartChar: I
Encoding: 73 73 80
Width: 364
VWidth: 0
Flags: W
LayerCount: 3
Fore
SplineSet
346 0 m 1
 19 0 l 1
 24 45 l 1
 125 73 l 1
 125 682 l 1
 15 707 l 1
 21 753 l 1
 351 753 l 1
 345 707 l 1
 242 684 l 1
 242 69 l 1
 352 49 l 1
 346 0 l 1
316 10 m 0
183 753 m 0
EndSplineSet
EndChar

StartChar: J
Encoding: 74 74 95
Width: 359
VWidth: 0
Flags: W
LayerCount: 3
Fore
SplineSet
14 -197 m 1
 -19 -144 l 1
 75 -55 124 22 124 119 c 2
 125 682 l 1
 15 707 l 1
 21 753 l 1
 351 753 l 1
 345 707 l 1
 242 684 l 1
 241 233 l 2
 240 -15 188 -83 14 -197 c 1
186 753 m 0
EndSplineSet
EndChar

StartChar: K
Encoding: 75 75 96
Width: 736
VWidth: 0
Flags: W
LayerCount: 3
Fore
SplineSet
258 366 m 1
 257 379 l 1
 274 396 330 458 349 483 c 2
 498 679 l 1
 404 707 l 1
 409 753 l 1
 707 753 l 1
 700 707 l 1
 593 679 l 1
 367 396 l 1
 505 233 l 2
 596 124 640 74 717 50 c 2
 740 43 l 1
 733 1 l 1
 705 -9 679 -13 654 -13 c 0
 553 -13 479 63 410 158 c 2
 258 366 l 1
242 75 m 1
 357 49 l 1
 350 0 l 1
 15 0 l 1
 21 45 l 1
 125 78 l 1
 125 677 l 1
 11 707 l 1
 19 753 l 1
 352 753 l 1
 346 707 l 1
 242 679 l 1
 242 75 l 1
368 0 m 0
377 753 m 0
EndSplineSet
EndChar

StartChar: L
Encoding: 76 76 99
Width: 645
VWidth: 0
Flags: W
LayerCount: 3
Fore
SplineSet
356 753 m 1
 350 707 l 1
 246 679 l 1
 246 58 l 1
 514 58 l 1
 593 208 l 1
 645 200 l 1
 622 0 l 1
 23 0 l 1
 28 45 l 1
 129 73 l 1
 129 677 l 1
 15 707 l 1
 23 753 l 1
 356 753 l 1
323 0 m 0
193 753 m 0
EndSplineSet
EndChar

StartChar: M
Encoding: 77 77 106
Width: 1008
VWidth: 0
Flags: W
LayerCount: 3
Fore
SplineSet
441 19 m 1
 233 585 l 1
 194 69 l 1
 306 49 l 1
 298 0 l 1
 7 0 l 1
 14 45 l 1
 115 73 l 1
 159 682 l 1
 48 707 l 1
 55 753 l 1
 297 753 l 1
 345 636 l 1
 503 187 l 1
 691 656 l 1
 733 753 l 1
 972 753 l 1
 966 707 l 1
 864 684 l 1
 896 69 l 1
 1006 49 l 1
 1000 0 l 1
 676 0 l 1
 683 45 l 1
 783 73 l 1
 749 608 l 1
 518 31 l 1
 441 19 l 1
508 730 m 0
EndSplineSet
EndChar

StartChar: N
Encoding: 78 78 108
Width: 810
VWidth: 0
Flags: W
LayerCount: 3
Fore
SplineSet
604 -18 m 1
 202 582 l 1
 202 69 l 1
 313 49 l 1
 307 0 l 1
 19 0 l 1
 24 45 l 1
 125 73 l 1
 125 677 l 1
 15 707 l 1
 21 753 l 1
 234 753 l 1
 623 165 l 1
 623 682 l 1
 511 707 l 1
 518 753 l 1
 806 753 l 1
 798 707 l 1
 697 684 l 1
 697 1 l 1
 604 -18 l 1
405 0 m 0
395 753 m 0
EndSplineSet
EndChar

StartChar: O
Encoding: 79 79 117
Width: 801
VWidth: 0
Flags: W
LayerCount: 3
Fore
SplineSet
392 712 m 0
 210 712 165 568 165 410 c 0
 165 232 234 48 409 48 c 0
 593 48 636 200 636 347 c 0
 636 519 566 712 392 712 c 0
771 375 m 0
 771 166 631 -16 379 -16 c 0
 170 -16 30 156 30 375 c 0
 30 608 180 771 421 771 c 0
 640 771 771 587 771 375 c 0
405 753 m 0
EndSplineSet
EndChar

StartChar: OE
Encoding: 338 338 118
Width: 1133
VWidth: 0
Flags: HW
LayerCount: 3
Fore
SplineSet
1134 190 m 1
 1116 0 l 1
 532 0 l 1
 495 -10 454 -16 409 -16 c 0
 200 -16 60 156 60 375 c 0
 60 608 210 771 451 771 c 0
 491 771 529 765 562 753 c 1
 1106 753 l 1
 1087 560 l 1
 1035 568 l 1
 1010 698 l 1
 724 698 l 1
 724 410 l 1
 900 410 l 1
 926 482 l 1
 983 490 l 1
 963 255 l 1
 911 247 l 1
 891 353 l 1
 724 353 l 1
 724 58 l 1
 1025 58 l 1
 1084 197 l 1
 1134 190 l 1
627 346 m 2
 627 409 l 2
 627 636 533 712 422 712 c 0
 240 712 195 568 195 410 c 0
 195 232 264 48 439 48 c 0
 547 48 627 119 627 346 c 2
282 753 m 0
EndSplineSet
EndChar

StartChar: Oslash
Encoding: 216 216 143
Width: 808
VWidth: 0
Flags: W
LayerCount: 3
Fore
SplineSet
787 375 m 0
 787 166 639 -16 387 -16 c 0
 313 -16 246 6 191 43 c 1
 143 -29 l 1
 50 -34 l 1
 134 93 l 1
 69 163 30 263 30 375 c 0
 30 608 188 771 429 771 c 0
 481 771 529 760 572 741 c 1
 602 783 l 1
 697 788 l 1
 637 702 l 1
 732 630 787 508 787 375 c 0
400 712 m 0
 218 712 164 568 164 410 c 0
 164 334 176 256 205 192 c 1
 523 672 l 1
 489 697 448 712 400 712 c 0
578 617 m 1
 248 123 l 1
 288 77 343 48 417 48 c 0
 601 48 654 198 654 347 c 0
 654 444 629 545 578 617 c 1
404 753 m 0
EndSplineSet
EndChar

StartChar: P
Encoding: 80 80 147
Width: 611
VWidth: 0
Flags: HW
LayerCount: 3
Fore
SplineSet
616 540 m 0
 616 396 484 299 337 299 c 0
 315 299 296 300 277 301 c 1
 266 351 l 1
 298 352 l 2
 428 356 491 410 491 518 c 0
 491 621 438 710 300 710 c 0
 275 710 238 706 238 706 c 1
 238 74 l 1
 381 51 l 1
 373 0 l 1
 14 0 l 1
 20 45 l 1
 122 73 l 1
 122 669 l 1
 18 687 l 1
 24 733 l 1
 102 745 210 760 313 760 c 0
 471 760 616 717 616 540 c 0
EndSplineSet
EndChar

StartChar: Q
Encoding: 81 81 149
Width: 808
VWidth: 0
Flags: W
LayerCount: 3
Fore
SplineSet
403 707 m 0
 251 707 160 600 160 412 c 0
 160 267 224 54 454 41 c 1
 617 82 662 204 662 341 c 0
 662 519 563 707 403 707 c 0
426 -13 m 1
 420 -15 396 -16 387 -16 c 0
 178 -16 37 149 37 368 c 0
 37 602 197 771 437 771 c 0
 653 771 787 593 787 381 c 0
 787 203 680 41 496 -4 c 1
 532 -86 584 -138 758 -167 c 1
 758 -182 756 -201 752 -212 c 1
 714 -230 679 -233 645 -233 c 0
 535 -233 437 -151 426 -13 c 1
EndSplineSet
EndChar

StartChar: R
Encoding: 82 82 150
Width: 735
VWidth: 0
Flags: W
LayerCount: 3
Fore
SplineSet
604 571 m 0
 604 493 545 404 431 363 c 1
 431 362 l 1
 540 211 l 2
 611 113 642 70 717 47 c 2
 737 41 l 1
 728 -1 l 1
 702 -10 678 -13 655 -13 c 0
 559 -13 493 59 440 153 c 2
 343 325 l 1
 238 325 l 1
 238 76 l 1
 352 50 l 1
 346 0 l 1
 14 0 l 1
 20 45 l 1
 122 73 l 1
 122 667 l 1
 18 685 l 1
 24 731 l 1
 113 745 211 759 301 759 c 0
 481 759 604 712 604 571 c 0
358 380 m 1
 418 400 479 451 479 537 c 0
 479 636 418 708 311 708 c 0
 268 708 238 705 238 705 c 1
 238 380 l 1
 358 380 l 1
368 0 m 0
338 753 m 0
EndSplineSet
EndChar

StartChar: R.001
Encoding: 65536 -1 151
Width: 735
VWidth: 0
Flags: W
LayerCount: 3
Fore
SplineSet
604 571 m 0
 604 493 545 404 431 363 c 1
 431 362 l 1
 540 211 l 2
 611 113 642 70 717 47 c 2
 737 41 l 1
 728 -1 l 1
 702 -10 678 -13 655 -13 c 0
 559 -13 493 59 440 153 c 2
 343 325 l 1
 238 325 l 1
 238 76 l 1
 352 50 l 1
 346 0 l 1
 14 0 l 1
 20 45 l 1
 122 73 l 1
 122 667 l 1
 18 685 l 1
 24 731 l 1
 113 745 211 759 301 759 c 0
 481 759 604 712 604 571 c 0
358 380 m 1
 418 400 479 451 479 537 c 0
 479 636 418 708 311 708 c 0
 268 708 238 705 238 705 c 1
 238 380 l 1
 358 380 l 1
368 0 m 0
368 753 m 0
EndSplineSet
EndChar

StartChar: S
Encoding: 83 83 158
Width: 523
VWidth: 0
Flags: HW
LayerCount: 3
Fore
SplineSet
435 537 m 1
 375 544 l 1
 359 660 l 1
 348 682 306 717 257 717 c 0
 196 717 146 682 146 603 c 0
 146 429 500 442 500 214 c 0
 500 75 369 -15 231 -15 c 0
 144 -15 66 26 27 74 c 1
 35 236 l 1
 97 227 l 1
 120 113 l 1
 142 78 188 47 245 47 c 0
 309 47 389 84 389 174 c 0
 389 331 42 330 42 555 c 0
 42 692 158 769 277 769 c 0
 342 769 400 748 448 708 c 1
 448 703 435 537 435 537 c 1
268 0 m 0
269 752 m 0
EndSplineSet
EndChar

StartChar: T
Encoding: 84 84 165
Width: 678
VWidth: 0
Flags: W
LayerCount: 3
Fore
SplineSet
5 753 m 1
 678 753 l 1
 657 549 l 1
 600 558 l 1
 576 698 l 1
 392 698 l 1
 392 69 l 1
 504 49 l 1
 496 0 l 1
 169 0 l 1
 174 45 l 1
 276 73 l 1
 276 698 l 1
 97 698 l 1
 65 551 l 1
 10 559 l 1
 5 753 l 1
329 753 m 0
339 377 m 0
359 0 m 0
EndSplineSet
EndChar

StartChar: Thorn
Encoding: 222 222 172
Width: 616
VWidth: 0
Flags: W
LayerCount: 3
Fore
SplineSet
122 72 m 1
 122 682 l 1
 12 707 l 1
 18 753 l 1
 347 753 l 1
 341 707 l 1
 238 684 l 1
 238 618 l 1
 263 619 288 620 313 620 c 0
 471 620 616 577 616 400 c 0
 616 256 494 157 347 157 c 0
 325 157 302 158 277 161 c 1
 272 176 267 188 267 212 c 1
 278 211 288 212 298 212 c 0
 428 212 491 270 491 378 c 0
 491 481 434 561 302 561 c 0
 277 561 238 557 238 557 c 1
 238 73 l 1
 381 50 l 1
 373 -1 l 1
 14 -1 l 1
 20 44 l 1
 122 72 l 1
EndSplineSet
EndChar

StartChar: U
Encoding: 85 85 174
Width: 829
VWidth: 0
Flags: HW
LayerCount: 3
Fore
SplineSet
444 64 m 0
 566 64 641 134 641 292 c 2
 642 682 l 1
 532 707 l 1
 538 753 l 1
 828 753 l 1
 821 707 l 1
 720 684 l 1
 717 312 l 2
 715 94 624 -16 414 -16 c 0
 274 -16 117 29 117 284 c 2
 117 682 l 1
 5 707 l 1
 13 753 l 1
 341 753 l 1
 335 707 l 1
 233 684 l 1
 233 309 l 2
 233 136 320 64 444 64 c 0
495 10 m 0
435 753 m 0
EndSplineSet
EndChar

StartChar: V
Encoding: 86 86 199
Width: 778
VWidth: 0
Flags: W
LayerCount: 3
Fore
SplineSet
343 -15 m 1
 89 682 l 1
 1 707 l 1
 7 753 l 1
 332 753 l 1
 326 707 l 1
 224 684 l 1
 413 152 l 1
 607 682 l 1
 496 707 l 1
 501 753 l 1
 777 753 l 1
 772 707 l 1
 693 684 l 1
 435 3 l 1
 343 -15 l 1
EndSplineSet
EndChar

StartChar: W
Encoding: 87 87 201
Width: 1117
VWidth: 0
Flags: W
LayerCount: 3
Fore
SplineSet
716 -15 m 1
 558 576 l 1
 385 3 l 1
 287 -15 l 1
 89 682 l 1
 5 707 l 1
 10 753 l 1
 321 753 l 1
 313 707 l 1
 211 684 l 1
 358 165 l 1
 528 723 l 1
 635 738 l 1
 785 174 l 1
 943 682 l 1
 833 707 l 1
 840 753 l 1
 1112 753 l 1
 1105 707 l 1
 1031 684 l 1
 810 3 l 1
 716 -15 l 1
581 753 m 0
EndSplineSet
EndChar

StartChar: X
Encoding: 88 88 207
Width: 728
VWidth: 0
Flags: W
LayerCount: 3
Fore
SplineSet
432 398 m 1
 639 69 l 1
 721 49 l 1
 713 0 l 1
 408 0 l 1
 416 45 l 1
 513 73 l 1
 354 320 l 1
 178 71 l 1
 278 51 l 1
 269 0 l 1
 2 0 l 1
 10 46 l 1
 86 73 l 1
 308 372 l 1
 103 680 l 1
 20 706 l 1
 27 753 l 1
 338 753 l 1
 331 706 l 1
 237 679 l 1
 387 454 l 1
 551 682 l 1
 448 706 l 1
 455 753 l 1
 719 753 l 1
 714 707 l 1
 637 684 l 1
 432 398 l 1
EndSplineSet
EndChar

StartChar: Y
Encoding: 89 89 208
Width: 733
VWidth: 0
Flags: W
LayerCount: 3
Fore
SplineSet
433 320 m 1
 433 69 l 1
 532 49 l 1
 526 0 l 1
 219 0 l 1
 225 45 l 1
 316 73 l 1
 316 306 l 1
 102 682 l 1
 19 707 l 1
 27 753 l 1
 334 753 l 1
 327 707 l 1
 231 684 l 1
 399 388 l 1
 559 682 l 1
 448 707 l 1
 454 753 l 1
 723 753 l 1
 717 707 l 1
 642 684 l 1
 433 320 l 1
387 753 m 0
EndSplineSet
EndChar

StartChar: Z
Encoding: 90 90 215
Width: 611
VWidth: 0
Flags: W
LayerCount: 3
Fore
SplineSet
31 753 m 1
 593 753 l 1
 593 707 l 1
 130 61 l 1
 475 61 l 1
 550 212 l 1
 606 203 l 1
 572 0 l 1
 5 0 l 1
 0 63 l 1
 451 696 l 1
 126 696 l 1
 79 547 l 1
 25 558 l 1
 31 753 l 1
306 753 m 0
EndSplineSet
EndChar

StartChar: a
Encoding: 97 97 220
Width: 525
VWidth: 0
Flags: HW
LayerCount: 3
Fore
SplineSet
319 254 m 1
 182 229 146 188 146 130 c 0
 146 99 169 60 214 60 c 0
 256 60 299 91 319 114 c 1
 319 254 l 1
425 -11 m 0
 355 -11 331 34 331 70 c 2
 331 79 l 1
 324 79 l 1
 308 47 258 -15 159 -15 c 0
 95 -15 40 28 40 102 c 0
 40 191 119 271 319 289 c 1
 319 327 l 2
 319 409 296 487 212 487 c 0
 154 487 154 433 145 358 c 1
 113 358 61 361 61 421 c 0
 61 487 184 546 268 546 c 0
 376 546 418 487 418 359 c 2
 418 139 l 2
 418 83 428 67 485 58 c 2
 515 53 l 1
 508 1 l 1
 479 -3 461 -11 425 -11 c 0
470 10 m 0
258 530 m 0
EndSplineSet
EndChar

StartChar: acute
Encoding: 180 180 235
Width: 375
VWidth: 0
Flags: W
LayerCount: 3
Fore
SplineSet
281 1009 m 1
 170 817 l 1
 139 836 l 1
 213 1033 l 1
 281 1009 l 1
187 750 m 0
EndSplineSet
EndChar

StartChar: ae
Encoding: 230 230 239
Width: 764
VWidth: 0
Flags: W
LayerCount: 3
Fore
SplineSet
319 248 m 1
 167 224 146 181 146 123 c 0
 146 74 170 51 214 51 c 0
 263 51 319 96 319 147 c 2
 319 248 l 1
418 307 m 1
 608 329 l 1
 611 339 613 362 613 372 c 0
 613 444 586 485 528 485 c 0
 479 485 424 425 418 307 c 1
347 106 m 1
 320 26 245 -15 159 -15 c 0
 95 -15 40 21 40 95 c 0
 40 184 100 253 319 293 c 1
 319 327 l 2
 319 409 299 485 219 485 c 0
 161 485 157 443 148 368 c 1
 116 368 65 371 65 431 c 0
 65 497 184 546 268 546 c 0
 336 546 373 521 390 470 c 1
 438 518 500 544 558 544 c 0
 646 544 720 480 720 352 c 0
 720 333 714 291 709 270 c 1
 418 258 l 1
 423 163 473 52 586 52 c 0
 629 52 661 60 724 94 c 1
 736 63 l 1
 688 13 617 -18 537 -18 c 0
 468 -18 399 16 355 84 c 0
 352 89 349 97 347 106 c 1
382 530 m 0
EndSplineSet
EndChar

StartChar: alef-hb
Encoding: 1488 1488 242
Width: 588
VWidth: 0
Flags: W
LayerCount: 3
Fore
SplineSet
173 375 m 1
 195 352 l 1
 180 333 150 300 150 256 c 0
 150 199.964 225 146 225 66 c 0
 225 40 218.714 21.03 211 0 c 1
 85 0 l 1
 75 39 l 1
 112 57 l 1
 126 87 84 149.992 84 212 c 0
 84 263 134 334 173 375 c 1
131 593 m 1
 167 577 l 1
 162 530 l 1
 494 93 l 1
 474 -20 l 1
 456 -20 l 1
 71 481 l 1
 71 494 l 1
 131 593 l 1
366 256 m 1
 338 288 l 1
 348 288 l 1
 403 378 l 1
 416 402 415 412 410 416 c 2
 334 478 l 1
 329 495 l 1
 383 594 l 1
 414 588 l 1
 416 552 l 1
 461 509 l 2
 483 488 505 461 455 384 c 1
 366 256 l 1
20 0 m 0
294 530 m 0
20 530 m 0
294 0 m 0
EndSplineSet
EndChar

StartChar: ampersand
Encoding: 38 38 247
Width: 770
VWidth: 0
Flags: W
LayerCount: 3
Fore
SplineSet
677 438 m 1
 551 214 l 1
 588 174 694 64 749 48 c 2
 769 42 l 1
 760 0 l 1
 734 -9 710 -12 687 -12 c 0
 620 -12 549 56 479 132 c 1
 439 76 367 -12 231 -12 c 0
 97 -12 11 82 11 190 c 0
 11 308 111 382 187 425 c 1
 151 455 99 518 99 590 c 0
 99 680 186 770 290 770 c 0
 387 770 483 732 483 612 c 0
 483 533 404 474 338 434 c 1
 338 427 l 1
 508 256 l 1
 610 436 l 1
 508 461 l 1
 514 507 l 1
 786 507 l 1
 780 461 l 1
 677 438 l 1
226 381 m 1
 216 382 l 1
 175 354 125 303 125 238 c 0
 125 154 175 64 267 64 c 0
 358 64 424 148 436 171 c 1
 226 381 l 1
297 468 m 1
 354 506 380 540 380 598 c 0
 380 662 342 719 278 719 c 0
 223 719 196 666 196 620 c 0
 196 562 259 499 297 468 c 1
EndSplineSet
EndChar

StartChar: asciicircum
Encoding: 94 94 252
Width: 455
VWidth: 0
Flags: W
LayerCount: 3
Fore
SplineSet
242 757 m 1
 421 499 l 1
 387 477 l 1
 222 650 l 1
 216 650 l 1
 64 480 l 1
 34 500 l 1
 209 749 l 1
 242 757 l 1
EndSplineSet
EndChar

StartChar: asciitilde
Encoding: 126 126 253
Width: 576
VWidth: 0
Flags: W
LayerCount: 3
Fore
SplineSet
50 250 m 1
 50 250 80 379 165 370 c 2
 435 343 l 2
 458 340 487 380 487 380 c 1
 526 379 l 1
 526 379 492 247 406 257 c 1
 136 284 l 2
 110 287 83 242 83 242 c 1
 50 250 l 1
EndSplineSet
EndChar

StartChar: asterisk
Encoding: 42 42 256
Width: 508
VWidth: 0
Flags: W
LayerCount: 3
Fore
SplineSet
430 419 m 1
 358 377 l 1
 268 527 l 1
 299 558 l 1
 430 419 l 1
172 359 m 1
 110 415 l 1
 225 547 l 1
 264 527 l 1
 172 359 l 1
38 584 m 1
 71 661 l 1
 232 592 l 1
 225 549 l 1
 38 584 l 1
210 783 m 1
 293 775 l 1
 277 601 l 1
 234 594 l 1
 210 783 l 1
452 680 m 1
 470 599 l 1
 299 560 l 1
 279 599 l 1
 452 680 l 1
EndSplineSet
EndChar

StartChar: at
Encoding: 64 64 257
Width: 824
VWidth: 0
Flags: W
LayerCount: 3
Fore
SplineSet
481 419 m 1
 469 422 447 426 428 426 c 0
 358 426 314 316 314 223 c 0
 314 132 334 109 365 109 c 0
 397 109 428 130 449 154 c 1
 481 419 l 1
456 578 m 0
 257 578 128 403 128 212 c 0
 128 33 244 -82 442 -82 c 0
 528 -82 621 -37 649 -17 c 1
 655 -12 l 1
 677 -50 l 1
 672 -53 l 1
 624 -86 544 -138 420 -138 c 0
 235 -138 34 -48 34 196 c 0
 34 437 217 632 478 632 c 0
 648 632 793 523 793 357 c 0
 793 193 672 42 506 42 c 0
 476 42 447 63 447 94 c 0
 447 101 448 113 448 113 c 1
 443 113 l 1
 419 77 375 36 329 36 c 0
 265 36 220 94 220 197 c 0
 220 370 358 478 460 478 c 0
 492 478 525 476 560 468 c 1
 562 467 l 1
 573 455 l 1
 548 233 l 2
 545 206 540 154 540 139 c 0
 540 112 544 102 555 102 c 0
 647 102 712 209 712 332 c 0
 712 490 599 578 456 578 c 0
EndSplineSet
EndChar

StartChar: atnahhafukh-hb
Encoding: 1442 1442 259
Width: 0
VWidth: 0
Flags: W
LayerCount: 3
Fore
SplineSet
-2.94169e-29 0 m 0
EndSplineSet
Refer: 833 1450 N 1 0 0 1 0 0 2
EndChar

StartChar: atnahhafukh-hb.001
Encoding: 65537 -1 260
Width: 0
VWidth: 0
Flags: W
LayerCount: 3
Fore
SplineSet
-2.94169e-29 0 m 0
EndSplineSet
Refer: 833 1450 N 1 0 0 1 0 0 2
EndChar

StartChar: ayin-hb
Encoding: 1506 1506 262
Width: 588
VWidth: 0
Flags: W
LayerCount: 3
Fore
SplineSet
158 95 m 1
 146 226 l 2
 143 260 142 295.777 142 319 c 0
 142 346.019 153 378.973 153 397 c 0
 153 416 133 423 110 430 c 2
 55 445 l 1
 44 459 l 1
 54 581 l 1
 89 585 l 1
 109 535 l 1
 150 522 l 2
 182 512 218 504 196 413 c 2
 183 358 l 1
 172.248 298.864 215 144 228 95 c 1
 158 95 l 1
292 130 m 2
 313 134 330 149 335.333 166 c 2
 402 372 l 2
 417 418 406.407 423.479 390 428 c 2
 305.815 451.198 l 1
 297.693 467.043 l 1
 326.271 586.501 l 1
 362.3 587.989 l 1
 371 544 l 1
 428.647 523.396 l 2
 457 513 467 489 446.342 399.736 c 2
 382 122 l 2
 370 72 346.893 40.886 296 32 c 2
 44 -12 l 1
 28 6 l 1
 48 92 l 1
 292 130 l 2
294 265 m 0
20 0 m 0
294 530 m 0
20 530 m 0
294 0 m 0
EndSplineSet
EndChar

StartChar: b
Encoding: 98 98 263
Width: 588
VWidth: 0
Flags: W
LayerCount: 3
Fore
SplineSet
84 30 m 5
 84 671 l 5
 -8 703 l 5
 0 749 l 5
 168 762 l 5
 183 748 l 5
 183 514 l 5
 174 451 l 5
 181 451 l 5
 229 505 286 544 354 544 c 4
 471 544 549 439 549 286 c 4
 549 94 407 -14 250 -14 c 4
 195 -14 133 -1 84 30 c 5
441 247 m 4
 441 337 416 465 313 465 c 4
 279 465 231 458 183 407 c 5
 183 94 l 5
 208 69 258 53 311 53 c 4
 380 53 441 112 441 247 c 4
EndSplineSet
EndChar

StartChar: backslash
Encoding: 92 92 264
Width: 332
VWidth: 0
Flags: W
HStem: 733 20G<-8.17355 66>
DStem2: 66 748 -14 753 0.279695 -0.960089<0 981.064>
LayerCount: 3
Fore
SplineSet
66 748 m 1
 346 -220 l 1
 268 -215 l 1
 -14 753 l 1
 66 748 l 1
EndSplineSet
EndChar

StartChar: bar
Encoding: 124 124 265
Width: 345
VWidth: 0
Flags: W
LayerCount: 3
Fore
SplineSet
211 -220 m 1
 141 -212 l 1
 141 760 l 1
 211 753 l 1
 211 -220 l 1
EndSplineSet
EndChar

StartChar: bet-hb
Encoding: 1489 1489 267
Width: 506
VWidth: 0
Flags: W
LayerCount: 3
Fore
SplineSet
48 88 m 1
 434 108 l 1
 440 122 l 1
 460 120 l 1
 486 95 l 1
 470 10 l 1
 44 -10 l 1
 28 8 l 1
 48 88 l 1
53 435 m 1
 38 457 l 1
 47 591 l 1
 91 597 l 1
 117 533 l 1
 397 533 l 2
 440 533 460 505 462 414 c 2
 469 76 l 1
 416 61 l 1
 418 77 421.075 153.956 419 198 c 2
 410 389 l 2
 408 428 398 436 376 436 c 2
 53 435 l 1
253 265 m 0
20 0 m 0
253 530 m 0
20 530 m 0
253 0 m 0
EndSplineSet
EndChar

StartChar: braceright
Encoding: 125 125 273
Width: 404
VWidth: 0
Flags: W
LayerCount: 3
Fore
SplineSet
75 -165 m 2
 186 -148 48 213 229 265 c 1
 229 269 l 1
 47 321 186 679 82 696 c 2
 58 700 l 1
 53 760 l 1
 89 760 l 2
 337 760 138 332 315 301 c 2
 344 296 l 1
 344 236 l 1
 313 231 l 2
 139 203 338 -229 87 -229 c 2
 50 -229 l 1
 55 -168 l 1
 75 -165 l 2
EndSplineSet
EndChar

StartChar: bracketright
Encoding: 93 93 275
Width: 293
VWidth: 0
Flags: W
LayerCount: 3
Fore
SplineSet
36 -227 m 1
 30 -169 l 1
 116 -157 l 1
 116 694 l 1
 31 706 l 1
 38 760 l 1
 202 760 l 1
 203 -228 l 1
 36 -227 l 1
EndSplineSet
EndChar

StartChar: breve
Encoding: 728 728 276
Width: 382
VWidth: 0
Flags: W
LayerCount: 3
Fore
SplineSet
73 940 m 1
 101 959 l 1
 106 949 l 2
 118 925 147 898 188 898 c 0
 231 898 258 924 274 950 c 2
 280 960 l 1
 305 943 l 1
 301 931 l 2
 285 882 248 832 188 832 c 0
 124 832 88 881 76 928 c 2
 73 940 l 1
187 750 m 0
EndSplineSet
EndChar

StartChar: brokenbar
Encoding: 166 166 277
Width: 345
VWidth: 0
Flags: W
LayerCount: 3
Fore
SplineSet
141 -212 m 1
 141 261 l 1
 208 254 l 1
 208 -220 l 1
 141 -212 l 1
141 327 m 1
 141 760 l 1
 208 753 l 1
 205 320 l 1
 141 327 l 1
EndSplineSet
EndChar

StartChar: c
Encoding: 99 99 279
Width: 475
VWidth: 0
Flags: W
LayerCount: 3
Fore
SplineSet
315 51 m 0
 375 51 422 74 451 92 c 1
 466 57 l 1
 434 18 357 -18 279 -18 c 0
 133 -18 40 107 40 252 c 0
 40 432 166 545 297 545 c 0
 398 545 443 500 443 452 c 0
 443 416 417 393 366 389 c 1
 349 430 321 488 268 488 c 0
 196 488 149 416 149 307 c 0
 149 206 189 51 315 51 c 0
295 0 m 0
271 540 m 0
EndSplineSet
EndChar

StartChar: caron
Encoding: 711 711 281
Width: 396
VWidth: 0
Flags: W
LayerCount: 3
Fore
SplineSet
184 822 m 1
 75 922 l 1
 124 959 l 1
 214 872 l 1
 220 872 l 1
 295 957 l 1
 321 939 l 1
 217 830 l 1
 184 822 l 1
203 750 m 0
EndSplineSet
EndChar

StartChar: cedilla
Encoding: 184 184 285
Width: 233
VWidth: 0
Flags: W
LayerCount: 3
Fore
SplineSet
129 -46 m 1
 152 -66 183 -96 183 -137 c 0
 183 -185 132 -215 62 -236 c 1
 50 -200 l 1
 85 -188 102 -168 102 -150 c 0
 102 -129 80 -104 58 -83 c 1
 117 2 l 1
 162 2 l 1
 129 -46 l 1
137 0 m 0
EndSplineSet
EndChar

StartChar: cent
Encoding: 162 162 286
Width: 486
VWidth: 0
Flags: W
LayerCount: 3
Fore
SplineSet
339 542 m 1
 418 534 453 494 453 451 c 0
 453 415 428 392 377 388 c 1
 373 406 361 449 328 472 c 1
 275 63 l 1
 292 56 312 52 334 52 c 0
 389 52 428 74 459 95 c 1
 462 90 468 76 473 60 c 1
 422 7 363 -18 279 -18 c 0
 272 -18 266 -18 260 -17 c 1
 253 -69 l 1
 181 -81 l 1
 192 1 l 1
 104 41 51 140 51 252 c 0
 51 414 153 521 268 541 c 1
 278 614 l 1
 350 627 l 1
 339 542 l 1
211 114 m 1
 259 483 l 1
 201 468 168 390 168 287 c 0
 168 227 179 161 211 114 c 1
EndSplineSet
EndChar

StartChar: circumflex
Encoding: 710 710 289
Width: 393
VWidth: 0
Flags: W
LayerCount: 3
Fore
SplineSet
208 957 m 1
 316 845 l 1
 286 823 l 1
 187 889 l 1
 181 889 l 1
 96 822 l 1
 73 840 l 1
 175 949 l 1
 208 957 l 1
192 750 m 0
EndSplineSet
EndChar

StartChar: colon
Encoding: 58 58 294
Width: 245
VWidth: 0
Flags: W
LayerCount: 3
Fore
SplineSet
125 516 m 0
 162 516 193 488 193 451 c 0
 193 412 162 381 125 381 c 0
 87 381 57 413 57 452 c 0
 57 489 88 516 125 516 c 0
125 136 m 0
 162 136 193 107 193 71 c 0
 193 32 162 1 125 1 c 0
 87 1 57 33 57 72 c 0
 57 108 88 136 125 136 c 0
EndSplineSet
EndChar

StartChar: comma
Encoding: 44 44 295
Width: 221
VWidth: 0
Flags: W
LayerCount: 3
Fore
SplineSet
12 -148 m 1
 91 -127 122 -82 122 -43 c 0
 122 -9 95 22 52 22 c 0
 46 22 40 22 34 21 c 1
 29 34 25 45 25 59 c 0
 25 108 68 132 99 132 c 0
 141 132 205 97 205 6 c 0
 205 -51 185 -148 26 -190 c 1
 12 -148 l 1
EndSplineSet
EndChar

StartChar: copyright
Encoding: 169 169 296
Width: 837
VWidth: 0
Flags: W
LayerCount: 3
Fore
SplineSet
415 721 m 0
 230 721 107 586 107 382 c 0
 107 177 229 41 414 41 c 0
 604 41 730 173 730 371 c 0
 730 581 604 721 415 721 c 0
797 377 m 0
 797 141 642 -16 409 -16 c 0
 188 -16 40 140 40 375 c 0
 40 616 190 776 415 776 c 0
 644 776 797 616 797 377 c 0
EndSplineSet
Refer: 279 99 N 0.823 0 0 0.823 182 174 2
EndChar

StartChar: currency
Encoding: 164 164 297
Width: 471
VWidth: 0
Flags: W
LayerCount: 3
Fore
SplineSet
235 406 m 0
 179 406 142 363 142 299 c 0
 142 234 180 190 236 190 c 0
 294 190 333 232 333 295 c 0
 333 362 294 406 235 406 c 0
105 201 m 1
 89 226 78 264 78 296 c 0
 78 324 87 358 101 380 c 1
 47 432 l 1
 98 482 l 1
 145 429 l 1
 171 451 208 465 238 465 c 0
 271 465 309 453 333 435 c 1
 380 483 l 1
 426 430 l 1
 375 385 l 1
 388 362 397 326 397 297 c 0
 397 266 387 230 371 207 c 1
 428 155 l 1
 375 105 l 1
 327 160 l 1
 299 143 262 131 233 131 c 0
 209 131 177 141 152 156 c 1
 105 102 l 1
 54 154 l 1
 105 201 l 1
EndSplineSet
EndChar

StartChar: d
Encoding: 100 100 298
Width: 611
VWidth: 0
Flags: W
LayerCount: 3
Fore
SplineSet
411 79 m 5
 405 79 l 5
 371 32 321 -13 237 -13 c 4
 130 -13 40 75 40 242 c 4
 40 418 180 546 305 546 c 4
 345 546 389 533 409 518 c 5
 414 518 l 5
 406 596 l 5
 406 673 l 5
 314 706 l 5
 322 751 l 5
 490 766 l 5
 504 751 l 5
 504 130 l 6
 504 66 530 63 570 54 c 6
 597 48 l 5
 590 -3 l 5
 554 -12 539 -14 501 -14 c 4
 440 -14 411 24 411 75 c 6
 411 79 l 5
405 119 m 5
 405 403 l 5
 373 456 317 486 276 486 c 4
 181 486 147 396 147 280 c 4
 147 136 205 64 281 64 c 4
 332 64 384 94 405 119 c 5
300 265 m 4
EndSplineSet
EndChar

StartChar: dagesh-hb
Encoding: 1468 1468 299
Width: 0
VWidth: 0
Flags: W
LayerCount: 3
Fore
SplineSet
163 678 m 1
 97 614 l 1
 33 678 l 1
 97 742 l 1
 127.667 729.667 149.667 708.333 163 678 c 1
97.5 678 m 0
EndSplineSet
EndChar

StartChar: dagesh-hb.001
Encoding: 65538 -1 300
Width: 0
VWidth: 0
Flags: W
LayerCount: 3
Fore
SplineSet
195 678 m 1
 96 582 l 1
 0 678 l 1
 96 774 l 1
 142.333 755.333 175.333 723.333 195 678 c 1
97.5 678 m 0
EndSplineSet
EndChar

StartChar: dagesh-hb.002
Encoding: 65539 -1 301
Width: 0
VWidth: 0
Flags: W
LayerCount: 3
Fore
SplineSet
195 678 m 1
 96 582 l 1
 0 678 l 1
 96 774 l 1
 142.333 755.333 175.333 723.333 195 678 c 1
97.5 678 m 0
EndSplineSet
EndChar

StartChar: dagger
Encoding: 8224 8224 302
Width: 559
VWidth: 0
Flags: W
LayerCount: 3
Fore
SplineSet
314 496 m 1
 499 501 l 1
 495 427 l 1
 314 434 l 1
 323 -220 l 1
 235 -212 l 1
 244 435 l 1
 60 431 l 1
 64 501 l 1
 244 496 l 1
 239 760 l 1
 320 753 l 1
 314 496 l 1
EndSplineSet
EndChar

StartChar: daggerdbl
Encoding: 8225 8225 303
Width: 559
VWidth: 0
Flags: W
LayerCount: 3
Fore
SplineSet
308 260 m 1
 313 434 l 1
 493 427 l 1
 497 501 l 1
 313 496 l 1
 319 753 l 1
 238 760 l 1
 243 496 l 1
 64 501 l 1
 60 431 l 1
 243 435 l 1
 245 302 l 1
 240 106 l 1
 70 113 l 1
 66 39 l 1
 240 44 l 1
 234 -213 l 1
 315 -220 l 1
 310 44 l 1
 495 39 l 1
 499 109 l 1
 310 105 l 1
 308 260 l 1
EndSplineSet
EndChar

StartChar: dalet-hb
Encoding: 1491 1491 304
Width: 478
VWidth: 0
Flags: W
LayerCount: 3
Fore
SplineSet
341 9 m 1
 352 453 l 1
 391 453 l 1
 402 146 l 1
 420 4 l 1
 362 -6 l 1
 341 9 l 1
423 533 m 1
 439 514 l 1
 422 436 l 1
 382 426 l 1
 355 436 l 1
 21 436 l 1
 5 454 l 1
 15 591 l 1
 60 597 l 1
 81 533 l 1
 423 533 l 1
239 265 m 0
20 0 m 0
239 530 m 0
20 530 m 0
239 0 m 0
EndSplineSet
EndChar

StartChar: dargaleft-hb
Encoding: 1447 1447 306
Width: 0
VWidth: 0
Flags: W
LayerCount: 3
Fore
SplineSet
457 -604 m 1
 256 -803 l 1
 10 -803 l 1
 10 -686 l 1
 262 -686 l 1
 320 -663 l 1
 340 -621 l 1
 252 -543 l 1
 88 -508 l 1
 0 -350 l 1
 199 -154 l 1
 442 -154 l 1
 442 -268 l 1
 192 -268 l 1
 135 -291 l 1
 117 -336 l 1
 205 -414 l 1
 368 -447 l 1
 427.333 -473.667 457 -526 457 -604 c 1
228.5 0 m 0
EndSplineSet
EndChar

StartChar: dargaleft-hb.001
Encoding: 65540 -1 307
Width: 0
VWidth: 0
Flags: W
LayerCount: 3
Fore
SplineSet
457 -604 m 1
 256 -803 l 1
 10 -803 l 1
 10 -686 l 1
 262 -686 l 1
 320 -663 l 1
 340 -621 l 1
 252 -543 l 1
 88 -508 l 1
 0 -350 l 1
 199 -154 l 1
 442 -154 l 1
 442 -268 l 1
 192 -268 l 1
 135 -291 l 1
 117 -336 l 1
 205 -414 l 1
 368 -447 l 1
 427.333 -473.667 457 -526 457 -604 c 1
228.5 0 m 0
EndSplineSet
EndChar

StartChar: degree
Encoding: 176 176 312
Width: 245
VWidth: 0
Flags: W
LayerCount: 3
Fore
SplineSet
117 749 m 0
 81 749 65 715 65 681 c 0
 65 644 84 603 123 603 c 0
 156 603 175 628 175 672 c 0
 175 710 155 749 117 749 c 0
124 778 m 0
 182 778 218 737 218 680 c 0
 218 625 178 574 116 574 c 0
 60 574 22 612 22 674 c 0
 22 730 67 778 124 778 c 0
EndSplineSet
EndChar

StartChar: dehi-hb
Encoding: 1453 1453 313
Width: 2
VWidth: 0
Flags: W
LayerCount: 3
Fore
SplineSet
-2.94159e-29 987 m 0
EndSplineSet
Refer: 689 1430 N 1 0 0 1 983 0 2
EndChar

StartChar: dehi-hb.001
Encoding: 65541 -1 314
Width: 2
VWidth: 0
Flags: W
LayerCount: 3
Fore
SplineSet
-2.94159e-29 987 m 0
EndSplineSet
Refer: 689 1430 N 1 0 0 1 983 0 2
EndChar

StartChar: dieresis
Encoding: 168 168 317
Width: 416
VWidth: 0
Flags: W
LayerCount: 3
Fore
SplineSet
288 934 m 0
 315 934 341 915 341 887 c 0
 341 857 315 838 288 838 c 0
 262 838 237 857 237 887 c 0
 237 916 263 934 288 934 c 0
126 934 m 0
 153 934 178 915 178 887 c 0
 178 857 153 838 126 838 c 0
 100 838 75 857 75 887 c 0
 75 916 101 934 126 934 c 0
207 760 m 0
EndSplineSet
EndChar

StartChar: dieresiscomb
Encoding: 776 776 318
Width: 0
VWidth: 0
Flags: W
LayerCount: 3
Fore
SplineSet
-2.86725e-29 987 m 0
EndSplineSet
Refer: 317 168 N 1 0 0 1 0 0 2
EndChar

StartChar: dieresiscomb.001
Encoding: 65542 -1 319
Width: 0
VWidth: 0
Flags: W
LayerCount: 3
Fore
SplineSet
-2.86725e-29 987 m 0
EndSplineSet
Refer: 317 168 N 1 0 0 1 0 0 2
EndChar

StartChar: divide
Encoding: 247 247 320
Width: 599
VWidth: 0
Flags: W
LayerCount: 3
Fore
SplineSet
295 547 m 0
 335 547 368 517 368 478 c 0
 368 437 335 404 295 404 c 0
 255 404 223 438 223 479 c 0
 223 518 256 547 295 547 c 0
295 206 m 0
 335 206 368 176 368 137 c 0
 368 96 335 63 295 63 c 0
 255 63 223 97 223 138 c 0
 223 177 256 206 295 206 c 0
57 339 m 1
 549 339 l 1
 542 275 l 1
 50 275 l 1
 57 339 l 1
EndSplineSet
EndChar

StartChar: dollar
Encoding: 36 36 322
Width: 541
VWidth: 0
Flags: W
LayerCount: 3
Fore
SplineSet
454 536 m 1
 407 546 l 1
 377 662 l 2
 374 672 346 697 310 709 c 1
 310 442 l 1
 406 385 515 328 515 214 c 0
 515 93 417 12 301 -9 c 1
 301 -67 l 1
 241 -67 l 1
 241 -15 l 1
 238 -15 l 2
 150 -15 79 18 31 74 c 1
 39 236 l 1
 89 228 l 1
 120 113 l 1
 147 74 195 47 242 45 c 1
 242 319 l 1
 150 372 53 442 53 563 c 0
 53 690 144 755 249 767 c 1
 249 813 l 1
 309 813 l 1
 309 768 l 1
 358 764 417 748 464 706 c 1
 464 701 454 536 454 536 c 1
250 473 m 1
 250 716 l 1
 199 710 165 678 165 607 c 0
 165 551 195 501 250 473 c 1
302 299 m 1
 302 52 l 1
 353 65 401 101 401 176 c 0
 401 222 358 265 302 299 c 1
EndSplineSet
EndChar

StartChar: dotaccent
Encoding: 729 729 323
Width: 296
VWidth: 0
Flags: W
LayerCount: 3
Fore
SplineSet
147 964 m 0
 187 964 221 934 221 895 c 0
 221 854 187 821 147 821 c 0
 107 821 75 855 75 896 c 0
 75 935 109 964 147 964 c 0
148 750 m 0
EndSplineSet
EndChar

StartChar: dotaccentcomb
Encoding: 775 775 324
Width: 0
VWidth: 0
Flags: W
LayerCount: 3
Fore
SplineSet
-2.86707e-29 987 m 0
EndSplineSet
Refer: 421 1465 N 1 0 0 1 50 0 2
EndChar

StartChar: dotaccentcomb.001
Encoding: 65543 -1 325
Width: 0
VWidth: 0
Flags: W
LayerCount: 3
Fore
SplineSet
-2.86707e-29 987 m 0
EndSplineSet
Refer: 421 1465 N 1 0 0 1 50 0 2
EndChar

StartChar: dotbelowcomb
Encoding: 803 803 326
Width: 0
VWidth: 0
Flags: W
LayerCount: 3
Fore
SplineSet
-2.94169e-29 0 m 0
EndSplineSet
Refer: 421 1465 N 1 0 0 1 0 -2367 2
EndChar

StartChar: dotbelowcomb.001
Encoding: 65544 -1 327
Width: 0
VWidth: 0
Flags: W
LayerCount: 3
Fore
SplineSet
-2.94169e-29 0 m 0
EndSplineSet
Refer: 421 1465 N 1 0 0 1 0 -2367 2
EndChar

StartChar: dotlessi
Encoding: 305 305 328
Width: 347
VWidth: 0
Flags: W
LayerCount: 3
Fore
SplineSet
37 48 m 1
 129 70 l 1
 129 447 l 1
 37 480 l 1
 45 526 l 1
 215 540 l 1
 230 525 l 1
 230 70 l 1
 327 49 l 1
 320 0 l 1
 30 0 l 1
 37 48 l 1
296 10 m 0
172 545 m 0
EndSplineSet
EndChar

StartChar: e
Encoding: 101 101 331
Width: 500
VWidth: 0
Flags: W
LayerCount: 3
Fore
SplineSet
438 273 m 1
 145 270 l 1
 150 175 201 57 314 57 c 0
 357 57 388 61 451 95 c 1
 464 63 l 1
 416 13 345 -18 265 -18 c 0
 151 -18 37 75 37 259 c 0
 37 441 169 544 286 544 c 0
 374 544 448 480 448 352 c 0
 448 333 443 294 438 273 c 1
146 319 m 1
 336 332 l 1
 339 342 340 362 340 372 c 0
 340 444 314 485 256 485 c 0
 207 485 152 437 146 319 c 1
265 530 m 0
349 10 m 0
291 0 m 0
EndSplineSet
EndChar

StartChar: eight
Encoding: 56 56 346
Width: 609
VWidth: 0
Flags: W
HStem: -16 56<243.699 392.9> 681 46<231.212 359.725>
VStem: 76.5 100<109.738 243.901> 103.5 91<512.908 615.932> 411.5 89<477.292 624.696> 436.5 96<99.5752 217.177>
LayerCount: 3
Back
SplineSet
263 336 m 1
 224.6 311 183.8 248 183.8 184 c 0
 183.8 112 241.4 40 318.2 40 c 0
 399.8 40 455 80 455 161 c 0
 455 226 368.6 281 263 336 c 1
63.7998 170 m 0
 63.7998 238 116.6 302 221 357 c 1
 221 362 l 1
 167 389 96.2002 456 96.2002 537 c 0
 96.2002 639 199.4 727 326.6 727 c 0
 451.4 727 531.8 662 531.8 571 c 0
 531.8 500 495.8 443 411.8 391 c 1
 410.6 385 l 1
 517.4 329 570.2 261 570.2 187 c 0
 570.2 76 452.6 -16 285.8 -16 c 0
 152.6 -16 63.7998 54 63.7998 170 c 0
362.6 410 m 1
 392.6 437 425 472 425 549 c 0
 425 614 384.2 681 307.4 681 c 0
 249.8 681 205.4 641 205.4 592 c 0
 205.4 526 260.6 459 362.6 410 c 1
EndSplineSet
Fore
SplineSet
259.5 336 m 1xe4
 219.5 300 176.5 268 176.5 184 c 3
 176.5 112 241.5 40 305.5 40 c 3
 395.5 40 436.5 80 436.5 161 c 3
 436.5 226 347.5 281 259.5 336 c 1xe4
76.5 170 m 3
 76.5 238 127.5 300 224.5 357 c 1
 224.5 362 l 1
 179.5 389 103.5 452 103.5 533 c 3
 103.5 635 195.496 727 312.5 727 c 3
 427.504 727 500.5 652 500.5 561 c 3xd8
 500.5 490 451.5 416 383.5 391 c 1
 382.5 385 l 1
 471.5 329 532.5 261 532.5 187 c 3
 532.5 76 439.55 -16 278.5 -16 c 3
 167.5 -16 76.5 54 76.5 170 c 3
342.5 410 m 1
 387.5 436 411.5 467.656 411.5 539 c 3
 411.5 624 360.5 681 296.5 681 c 3
 227.5 681 194.5 627 194.5 578 c 3
 194.5 512 257.5 459 342.5 410 c 1
EndSplineSet
EndChar

StartChar: emdash
Encoding: 8212 8212 349
Width: 788
VWidth: 0
Flags: W
LayerCount: 3
Fore
SplineSet
60 311 m 1
 738 315 l 1
 728 252 l 1
 50 248 l 1
 60 311 l 1
EndSplineSet
EndChar

StartChar: emptyset
Encoding: 8709 8709 350
Width: 600
VWidth: 0
Flags: W
LayerCount: 3
Fore
SplineSet
91 268 m 0
 91 118 194 40 293 40 c 0
 407 40 490 116 490 269 c 0
 490 418 396 498 292 498 c 0
 178 498 91 408 91 268 c 0
568 268 m 0
 568 112 461 -23 293 -23 c 0
 138 -23 14 92 14 269 c 0
 14 423 150 563 292 563 c 0
 461 563 568 432 568 268 c 0
0 58 m 1
 536 539 l 1
 571 484 l 1
 35 3 l 1
 0 58 l 1
EndSplineSet
EndChar

StartChar: endash
Encoding: 8211 8211 351
Width: 480
VWidth: 0
Flags: W
LayerCount: 3
Fore
SplineSet
60 311 m 1
 430 315 l 1
 420 252 l 1
 50 248 l 1
 60 311 l 1
EndSplineSet
EndChar

StartChar: equal
Encoding: 61 61 358
Width: 481
VWidth: 0
Flags: W
LayerCount: 3
Fore
SplineSet
57 257 m 1
 429 257 l 1
 422 193 l 1
 50 193 l 1
 57 257 l 1
59 402 m 1
 431 402 l 1
 424 338 l 1
 52 338 l 1
 59 402 l 1
EndSplineSet
EndChar

StartChar: eth
Encoding: 240 240 361
Width: 578
VWidth: 0
Flags: W
LayerCount: 3
Fore
SplineSet
528 282 m 0
 528 95 419 -16 289 -16 c 0
 121 -16 50 126 50 273 c 0
 50 452 159 574 288 574 c 0
 312 574 364 565 382 519 c 1
 386 520 l 1
 373 562 346 606 319 649 c 1
 189 624 l 1
 195 670 l 1
 297 690 l 1
 269 730 239 765 212 789 c 1
 283 789 l 1
 303 777 338 750 375 709 c 1
 466 727 l 1
 460 681 l 1
 407 670 l 1
 470 586 528 459 528 282 c 0
158 302 m 1
 160 137 219 43 303 43 c 0
 397 43 423 127 423 257 c 0
 423 399 350 516 280 518 c 1
 276 518 l 2
 191 518 158 430 158 302 c 1
EndSplineSet
EndChar

StartChar: etnahtaleft-hb
Encoding: 1425 1425 363
Width: 0
VWidth: 0
Flags: W
LayerCount: 3
Fore
SplineSet
540 -532 m 1
 443 -598 l 1
 273 -356 l 1
 103 -598 l 1
 7 -532 l 1
 273 -154 l 1
 540 -532 l 1
EndSplineSet
EndChar

StartChar: etnahtaleft-hb.001
Encoding: 65545 -1 364
Width: 0
VWidth: 0
Flags: W
LayerCount: 3
Fore
SplineSet
540 -532 m 1
 443 -598 l 1
 273 -356 l 1
 103 -598 l 1
 7 -532 l 1
 273 -154 l 1
 540 -532 l 1
EndSplineSet
EndChar

StartChar: exclam
Encoding: 33 33 366
Width: 294
VWidth: 0
Flags: W
LayerCount: 3
Fore
SplineSet
174 220 m 1
 174 216 l 1
 120 228 l 1
 120 230 l 1
 105 425 88 691 88 757 c 2
 88 759 l 1
 93 776 146 783 168 783 c 0
 184 783 207 778 207 759 c 0
 207 657 190 415 174 220 c 1
223 55 m 0
 223 12 189 -22 147 -22 c 0
 105 -22 72 13 72 56 c 0
 72 97 107 127 147 127 c 0
 188 127 223 96 223 55 c 0
EndSplineSet
EndChar

StartChar: exclamdown
Encoding: 161 161 367
Width: 294
VWidth: 0
Flags: W
LayerCount: 3
Fore
SplineSet
121 323 m 1
 121 327 l 1
 175 315 l 1
 175 313 l 1
 190 118 207 -161 207 -227 c 2
 207 -229 l 1
 202 -246 149 -253 127 -253 c 0
 111 -253 88 -248 88 -229 c 0
 88 -127 105 128 121 323 c 1
72 475 m 0
 72 518 106 552 148 552 c 0
 190 552 223 517 223 474 c 0
 223 433 188 403 148 403 c 0
 107 403 72 434 72 475 c 0
EndSplineSet
EndChar

StartChar: f
Encoding: 102 102 369
Width: 371
VWidth: 0
Flags: W
LayerCount: 3
Fore
SplineSet
225 594 m 5
 224 529 l 5
 380 529 l 5
 372 475 l 5
 224 475 l 5
 224 73 l 5
 373 51 l 5
 368 0 l 5
 24 0 l 5
 31 44 l 5
 123 70 l 5
 123 475 l 5
 33 475 l 5
 40 519 l 5
 124 533 l 5
 144 708 265 790 351 790 c 4
 415 790 464 769 464 720 c 4
 464 690 430 660 410 652 c 5
 386 682 342.21 726 304 726 c 4
 259 726 228 698 225 594 c 5
EndSplineSet
EndChar

StartChar: f.alt2
Encoding: 65546 -1 370
Width: 371
VWidth: 0
Flags: W
LayerCount: 3
Fore
SplineSet
225 594 m 1
 224 529 l 1
 380 529 l 1
 372 475 l 1
 224 475 l 1
 224 73 l 1
 373 51 l 1
 368 0 l 1
 24 0 l 1
 31 44 l 1
 123 70 l 1
 123 475 l 1
 33 475 l 1
 40 519 l 1
 124 533 l 1
 144 708 247 789 304 789 c 0
 357 789 389 776 389 735 c 0
 389 711 368 688 350 678 c 1
 335 694 303 718 276 718 c 0
 240 718 228 698 225 594 c 1
EndSplineSet
EndChar

StartChar: five
Encoding: 53 53 371
Width: 609
VWidth: 0
Flags: HW
HStem: -30 56<170.592 272.792>
VStem: 429 111<141.956 286.607>
DStem2: 147 399 224 486 0.241797 0.970327<103.037 238.857> 224 708 256 618 0.998009 0.0630712<26.2599 248.575>
LayerCount: 3
Fore
SplineSet
161 26 m 17
 332 42 429 108 429 195 c 3
 429 315 348 386 147 399 c 1
 224 708 l 1
 493 725 l 1
 478 630 l 1
 256 618 l 1
 224 486 l 1
 428 474 540 374 540 234 c 3
 540 110 432 -14 172 -30 c 1
 161 26 l 17
EndSplineSet
EndChar

StartChar: four
Encoding: 52 52 373
Width: 609
VWidth: 0
Flags: W
HStem: -7 21G<331.5 432.5> 216 74<126.5 330.5 432.5 575.5>
VStem: 331.5 101<9 214 290 551>
DStem2: 23.5 261 126.5 290 0.630213 0.776422<87.4282 418.638>
LayerCount: 3
Back
SplineSet
206 336 m 5
 174 311 140 248 140 184 c 4
 140 112 188 40 252 40 c 4
 320 40 366 80 366 161 c 4
 366 226 294 281 206 336 c 5
40 170 m 4
 40 238 84 302 171 357 c 5
 171 362 l 5
 126 389 67 456 67 537 c 4
 67 639 153 727 259 727 c 4
 363 727 430 662 430 571 c 4
 430 500 400 443 330 391 c 5
 329 385 l 5
 418 329 462 261 462 187 c 4
 462 76 364 -16 225 -16 c 4
 114 -16 40 54 40 170 c 4
289 410 m 5
 314 437 341 472 341 549 c 4
 341 614 307 681 243 681 c 4
 195 681 158 641 158 592 c 4
 158 526 204 459 289 410 c 5
EndSplineSet
Fore
SplineSet
331.5 -7 m 1
 331.5 216 l 1
 37.5 216 l 1
 23.5 261 l 1
 398.5 723 l 1
 437.5 712 l 1
 433.5 640 431.5 524 431.5 414 c 2
 431.5 290 l 1
 585.5 290 l 1
 575.5 214 l 1
 432.5 214 l 1
 432.5 9 l 1
 331.5 -7 l 1
330.5 290 m 1
 330.5 551 l 1
 126.5 290 l 1
 330.5 290 l 1
EndSplineSet
EndChar

StartChar: g
Encoding: 103 103 375
Width: 534
VWidth: 0
Flags: W
LayerCount: 3
Fore
SplineSet
152 368 m 0
 152 284 207 230 251 230 c 0
 305 230 339 265.977 339 351 c 0
 339 416 306.125 498 242 498 c 0
 180 498 152 447 152 368 c 0
277 91 m 2
 343 91 l 2
 433 91 511 74 511 -31 c 0
 511 -136 370 -234 232 -234 c 0
 121 -234 13 -202 13 -98 c 0
 13 -42 80 -6 110 11 c 1
 110 16 l 1
 72 34 52 63.772 52 99 c 0
 52 132.061 108 180 153 198 c 1
 153 203 l 1
 122 211 54 275 54 357 c 0
 54 457 154 543 256 543 c 0
 312 543 353 527 384 505 c 1
 393 505 514 514 514 514 c 1
 526 500 l 1
 503 433 l 1
 493 433 l 1
 418 457 l 1
 418 447 l 1
 426 430 439 394 439 363 c 0
 439 251.982 326 183 234 183 c 0
 210 183 187 187 180 189 c 1
 166 174 149 154 149 135 c 0
 149 110 150 91 277 91 c 2
151 2 m 1
 151 2 120 -9 120 -65 c 0
 120 -146 187 -169 265 -169 c 0
 344 -169 408 -141 408 -61 c 0
 408 -7 365 2 256 2 c 2
 151 2 l 1
265 530 m 0
EndSplineSet
EndChar

StartChar: gereshaccent-hb
Encoding: 1436 1436 380
Width: 0
VWidth: 0
Flags: W
LayerCount: 3
Fore
SplineSet
323 2015 m 1
 104 1544 l 1
 0 1593 l 1
 219 2062 l 1
 323 2015 l 1
161.5 987 m 0
EndSplineSet
EndChar

StartChar: gereshaccent-hb.001
Encoding: 65547 -1 381
Width: 0
VWidth: 0
Flags: W
LayerCount: 3
Fore
SplineSet
323 2015 m 1
 104 1544 l 1
 0 1593 l 1
 219 2062 l 1
 323 2015 l 1
161.5 987 m 0
EndSplineSet
EndChar

StartChar: gereshmuqdam-hb
Encoding: 1437 1437 382
Width: 2
VWidth: 0
Flags: W
LayerCount: 3
Fore
SplineSet
871 2015 m 1
 652 1544 l 1
 548 1593 l 1
 767 2062 l 1
 871 2015 l 1
709.5 987 m 0
EndSplineSet
EndChar

StartChar: gereshmuqdam-hb.001
Encoding: 65548 -1 383
Width: 2
VWidth: 0
Flags: W
LayerCount: 3
Fore
SplineSet
871 2015 m 1
 652 1544 l 1
 548 1593 l 1
 767 2062 l 1
 871 2015 l 1
709.5 987 m 0
EndSplineSet
EndChar

StartChar: germandbls
Encoding: 223 223 384
Width: 696
VWidth: 0
Flags: HW
LayerCount: 3
Back
SplineSet
563 358 m 1
 558 384 l 2
 541 474 504 496 468 496 c 0
 425 496 400 461 400 422 c 0
 400 314.981 666 299 666 133 c 0
 666 43 572 -19 479 -19 c 0
 371 -19 304 32 304 87 c 0
 304 128 334 163 384 167 c 1
 410 82 452 41 498 41 c 0
 541 41 578 54.9561 578 100 c 0
 578 187.092 318 210 318 378 c 0
 318 448 376.963 548 499 548 c 3
 578 548 647 514.067 647 447 c 3
 647 396.84 616 362 563 358 c 1
507 2 m 0
485 532 m 0
EndSplineSet
Fore
SplineSet
225 0 m 1
 24 0 l 1
 31 44 l 1
 123 70 l 1
 123 475 l 1
 35 475 l 1
 41 514 l 1
 124 528 l 1
 133 662 228 791 367 791 c 3
 465.02 791 528 723.211 528 638 c 3
 528 518.849 398 487.109 398 414 c 3
 398 310 667 301 667 135 c 3
 667 45 574 -19 481 -19 c 3
 373 -19 305 31 305 86 c 3
 305 137.624 340 164 384 167 c 1
 403 88 454 41 500 41 c 3
 543 41 579 51 579 101 c 3
 579 186 320 209 320 372 c 3
 320 483.072 434 515.977 434 602 c 3
 434 672 391 725 323 725 c 3
 261.992 725 223.766 680.007 224 551 c 2
 225 0 l 1
EndSplineSet
Layer: 2
SplineSet
225 594 m 1
 224 529 l 1
 380 529 l 1
 372 475 l 1
 224 475 l 1
 224 73 l 1
 373 51 l 1
 368 0 l 1
 24 0 l 1
 31 44 l 1
 123 70 l 1
 123 475 l 1
 33 475 l 1
 40 519 l 1
 124 533 l 1
 144 708 265 790 351 790 c 0
 415 790 464 769 464 720 c 0
 464 690 430 660 410 652 c 1
 386 682 342.21 726 304 726 c 0
 259 726 228 698 225 594 c 1
EndSplineSet
EndChar

StartChar: gershayimaccent-hb
Encoding: 1438 1438 385
Width: 0
VWidth: 0
Flags: W
LayerCount: 3
Fore
SplineSet
598 2015 m 1
 379 1544 l 1
 273 1593 l 1
 492 2062 l 1
 598 2015 l 1
328 2015 m 1
 111 1544 l 1
 5 1593 l 1
 224 2062 l 1
 328 2015 l 1
301.5 987 m 0
EndSplineSet
EndChar

StartChar: gershayimaccent-hb.001
Encoding: 65549 -1 386
Width: 0
VWidth: 0
Flags: W
LayerCount: 3
Fore
SplineSet
598 2015 m 1
 379 1544 l 1
 273 1593 l 1
 492 2062 l 1
 598 2015 l 1
328 2015 m 1
 111 1544 l 1
 5 1593 l 1
 224 2062 l 1
 328 2015 l 1
301.5 987 m 0
EndSplineSet
EndChar

StartChar: gimel-hb
Encoding: 1490 1490 388
Width: 350
VWidth: 0
Flags: W
LayerCount: 3
Fore
SplineSet
240 206 m 1
 267 156 l 1
 244 156 l 1
 231 98 209 28 160 0 c 1
 51 0 l 1
 31 44 38 93 50 110 c 1
 156 73 215 145 240 206 c 1
284 403 m 2
 292 220 l 2
 296 136 326 39 332 7 c 1
 276 -3 l 1
 262 12 l 1
 251 166 l 1
 239 175 l 1
 240 369 l 2
 240.149 398.01 229 409 206 416 c 2
 90 450 l 1
 79 464 l 1
 89 592 l 1
 130 596 l 1
 151 541 l 1
 219 521 l 2
 251 512 280.229 493.968 284 403 c 2
175 265 m 0
20 0 m 0
175 530 m 0
20 530 m 0
175 0 m 0
EndSplineSet
EndChar

StartChar: grave
Encoding: 96 96 397
Width: 384
VWidth: 0
Flags: W
LayerCount: 3
Fore
SplineSet
99 1005 m 1
 169 1028 l 1
 249 826 l 1
 214 805 l 1
 99 1005 l 1
192 750 m 0
EndSplineSet
EndChar

StartChar: greater
Encoding: 62 62 398
Width: 414
VWidth: 0
Flags: W
LayerCount: 3
Fore
SplineSet
394 259 m 1
 58 -50 l 1
 20 -8 l 1
 251 275 l 1
 32 546 l 1
 66 589 l 1
 393 276 l 1
 394 259 l 1
EndSplineSet
EndChar

StartChar: guilsinglleft
Encoding: 8249 8249 403
Width: 287
VWidth: 0
Flags: W
LayerCount: 3
Fore
SplineSet
48 284 m 1
 210 497 l 1
 237 461 l 1
 137 279 l 1
 239 85 l 1
 207 47 l 1
 49 272 l 1
 48 284 l 1
EndSplineSet
EndChar

StartChar: h
Encoding: 104 104 405
Width: 646
VWidth: 0
Flags: W
LayerCount: 3
Fore
SplineSet
542 363 m 2
 542 69 l 1
 630 48 l 1
 623 0 l 1
 351 0 l 1
 358 45 l 1
 440 69 l 1
 442 347 l 1
 442 351 l 2
 442 437 385 463 337 463 c 0
 302 463 263 453 220 409 c 1
 220 70 l 1
 309 49 l 1
 302 0 l 1
 20 0 l 1
 27 48 l 1
 120 70 l 1
 120 677 l 1
 23 709 l 1
 30 755 l 1
 205 769 l 1
 220 754 l 1
 220 515 l 1
 210 451 l 1
 217 451 l 1
 267 507 327 546 395 546 c 0
 479 546 542 510 542 363 c 2
323 265 m 0
386 530 m 0
EndSplineSet
EndChar

StartChar: hatafpatah-hb
Encoding: 1458 1458 406
Width: 0
VWidth: 0
Flags: W
LayerCount: 3
Fore
SplineSet
619 -297 m 1
 558 -359 l 1
 498 -297 l 1
 558 -236 l 1
 586.667 -248 607 -268.333 619 -297 c 1
619 -505 m 1
 558 -567 l 1
 498 -505 l 1
 558 -445 l 1
 586.667 -456.667 607 -476.667 619 -505 c 1
423 -313 m 1
 124 -313 l 1
 124 -236 l 1
 423 -236 l 1
 423 -313 l 1
371.5 0 m 0
EndSplineSet
EndChar

StartChar: hatafpatah-hb.001
Encoding: 65551 -1 407
Width: 0
VWidth: 0
Flags: W
LayerCount: 3
Fore
SplineSet
743 -244 m 1
 651 -338 l 1
 561 -244 l 1
 651 -154 l 1
 694 -171.667 724.667 -201.667 743 -244 c 1
743 -557 m 1
 651 -649 l 1
 561 -557 l 1
 651 -467 l 1
 694 -484.333 724.667 -514.333 743 -557 c 1
448 -268 m 1
 0 -268 l 1
 0 -154 l 1
 448 -154 l 1
 448 -268 l 1
371.5 0 m 0
EndSplineSet
EndChar

StartChar: hatafqamats-hb
Encoding: 1459 1459 408
Width: 0
VWidth: 0
Flags: W
LayerCount: 3
Fore
SplineSet
619 -297 m 1
 558 -359 l 1
 498 -297 l 1
 558 -236 l 1
 586.667 -248 607 -268.333 619 -297 c 1
619 -505 m 1
 558 -567 l 1
 498 -505 l 1
 558 -445 l 1
 586.667 -456.667 607 -476.667 619 -505 c 1
335 -503 m 1
 271 -567 l 1
 206 -503 l 1
 266 -313 l 1
 124 -313 l 1
 124 -236 l 1
 423 -236 l 1
 423 -313 l 1
 275 -313 l 1
 315 -422.333 335 -485.667 335 -503 c 1
371.5 0 m 0
EndSplineSet
EndChar

StartChar: hatafqamats-hb.001
Encoding: 65552 -1 409
Width: 0
VWidth: 0
Flags: W
LayerCount: 3
Fore
SplineSet
619 -297 m 1
 558 -359 l 1
 498 -297 l 1
 558 -236 l 1
 586.667 -248 607 -268.333 619 -297 c 1
619 -505 m 1
 558 -567 l 1
 498 -505 l 1
 558 -445 l 1
 586.667 -456.667 607 -476.667 619 -505 c 1
335 -503 m 1
 271 -567 l 1
 206 -503 l 1
 266 -313 l 1
 124 -313 l 1
 124 -236 l 1
 423 -236 l 1
 423 -313 l 1
 275 -313 l 1
 315 -422.333 335 -485.667 335 -503 c 1
371.5 0 m 0
EndSplineSet
EndChar

StartChar: hatafsegol-hb
Encoding: 1457 1457 410
Width: 0
VWidth: 0
Flags: W
LayerCount: 3
Fore
SplineSet
712 -297 m 1
 650 -359 l 1
 589 -297 l 1
 650 -236 l 1
 679 -248 699.667 -268.333 712 -297 c 1
712 -505 m 1
 650 -567 l 1
 589 -505 l 1
 650 -445 l 1
 679 -456.667 699.667 -476.667 712 -505 c 1
489 -298 m 1
 426 -359 l 1
 366 -298 l 1
 426 -236 l 1
 455.333 -248.333 476.333 -269 489 -298 c 1
265 -298 m 1
 202 -359 l 1
 142 -298 l 1
 202 -236 l 1
 231.667 -248.333 252.667 -269 265 -298 c 1
377 -505 m 1
 314 -567 l 1
 254 -505 l 1
 314 -445 l 1
 343.667 -456.667 364.667 -476.667 377 -505 c 1
427 0 m 0
EndSplineSet
EndChar

StartChar: hatafsegol-hb.001
Encoding: 65553 -1 411
Width: 0
VWidth: 0
Flags: W
LayerCount: 3
Fore
SplineSet
854 -244 m 1
 762 -338 l 1
 670 -244 l 1
 762 -154 l 1
 805 -171.667 835.667 -201.667 854 -244 c 1
854 -557 m 1
 762 -649 l 1
 670 -557 l 1
 762 -467 l 1
 805 -484.333 835.667 -514.333 854 -557 c 1
520 -246 m 1
 426 -338 l 1
 336 -246 l 1
 426 -154 l 1
 469.667 -172 501 -202.667 520 -246 c 1
184 -246 m 1
 90 -338 l 1
 0 -246 l 1
 90 -154 l 1
 134.333 -172 165.667 -202.667 184 -246 c 1
352 -557 m 1
 258 -649 l 1
 168 -557 l 1
 258 -467 l 1
 302.333 -484.333 333.667 -514.333 352 -557 c 1
427 0 m 0
EndSplineSet
EndChar

StartChar: he-hb
Encoding: 1492 1492 414
Width: 471
VWidth: 0
Flags: W
LayerCount: 3
Fore
SplineSet
33 5 m 1
 50 344 l 1
 91 349 l 1
 100 164 l 2
 103 109 108 56 114 0 c 1
 54 -10 l 1
 33 5 l 1
341 9 m 1
 352 453 l 1
 391 453 l 1
 404 164 l 2
 407.248 91.786 412 52 420 4 c 1
 362 -6 l 1
 341 9 l 1
423 533 m 1
 439 514 l 1
 422 436 l 1
 382 426 l 1
 355 436 l 1
 21 436 l 1
 5 454 l 1
 15 591 l 1
 60 597 l 1
 81 533 l 1
 423 533 l 1
236 265 m 0
20 0 m 0
236 530 m 0
20 530 m 0
236 0 m 0
EndSplineSet
EndChar

StartChar: het-hb
Encoding: 1495 1495 417
Width: 471
VWidth: 0
Flags: W
LayerCount: 3
Fore
SplineSet
95 436 m 1
 101 184 l 2
 102 129 109 38 114 0 c 1
 54 -10 l 1
 33 5 l 1
 52 454 l 1
 58 591 l 1
 103 597 l 1
 124 533 l 1
 452 533 l 1
 468 514 l 1
 451 436 l 1
 411 426 l 1
 384 436 l 1
 95 436 l 1
370 9 m 1
 381 453 l 1
 420 453 l 1
 433 164 l 2
 436.248 91.786 441 52 449 4 c 1
 391 -6 l 1
 370 9 l 1
236 265 m 0
20 0 m 0
236 530 m 0
20 530 m 0
236 0 m 0
EndSplineSet
EndChar

StartChar: hiriq-hb
Encoding: 1460 1460 419
Width: 0
VWidth: 0
Flags: W
LayerCount: 3
Fore
SplineSet
156 -245 m 1
 93 -307 l 1
 31 -245 l 1
 93 -185 l 1
 122.333 -196.667 143.333 -216.667 156 -245 c 1
93.5 0 m 0
EndSplineSet
EndChar

StartChar: hiriq-hb.001
Encoding: 65554 -1 420
Width: 0
VWidth: 0
Flags: W
LayerCount: 3
Fore
SplineSet
187 -244 m 1
 92 -338 l 1
 0 -244 l 1
 92 -154 l 1
 136.333 -171.667 168 -201.667 187 -244 c 1
93.5 0 m 0
EndSplineSet
EndChar

StartChar: holam-hb
Encoding: 1465 1465 421
Width: 0
VWidth: 0
Flags: W
LayerCount: 3
Fore
SplineSet
163 1640 m 1
 97 1575 l 1
 33 1640 l 1
 97 1705 l 1
 127.667 1692.33 149.667 1670.67 163 1640 c 1
97.5 987 m 0
EndSplineSet
EndChar

StartChar: holam-hb.001
Encoding: 65555 -1 422
Width: 0
VWidth: 0
Flags: W
LayerCount: 3
Fore
SplineSet
195 1640 m 1
 96 1542 l 1
 0 1640 l 1
 96 1737 l 1
 142.333 1718 175.333 1685.67 195 1640 c 1
97.5 987 m 0
EndSplineSet
EndChar

StartChar: holam-hb.002
Encoding: 65556 -1 423
Width: 0
VWidth: 0
Flags: W
LayerCount: 3
Fore
SplineSet
195 1640 m 1
 96 1542 l 1
 0 1640 l 1
 96 1737 l 1
 142.333 1718 175.333 1685.67 195 1640 c 1
97.5 987 m 0
EndSplineSet
EndChar

StartChar: holamhaser-hb
Encoding: 1466 1466 424
Width: 0
VWidth: 0
Flags: W
LayerCount: 3
Fore
SplineSet
-2.94159e-29 987 m 0
EndSplineSet
Refer: 421 1465 N 1 0 0 1 350 0 2
EndChar

StartChar: holamhaser-hb.001
Encoding: 65557 -1 425
Width: 0
VWidth: 0
Flags: W
LayerCount: 3
Fore
SplineSet
-2.94159e-29 987 m 0
EndSplineSet
Refer: 421 1465 N 1 0 0 1 350 0 2
EndChar

StartChar: holamhaser-hb.002
Encoding: 65558 -1 426
Width: 0
VWidth: 0
Flags: W
LayerCount: 3
Fore
SplineSet
-2.94159e-29 987 m 0
EndSplineSet
Refer: 421 1465 N 1 0 0 1 350 0 2
EndChar

StartChar: hungarumlaut
Encoding: 733 733 428
Width: 471
VWidth: 0
Flags: W
LayerCount: 3
Fore
SplineSet
396 924 m 1
 220 823 l 1
 203 853 l 1
 352 974 l 1
 396 924 l 1
274 927 m 1
 92 823 l 1
 75 853 l 1
 229 979 l 1
 274 927 l 1
181 750 m 0
EndSplineSet
EndChar

StartChar: hyphen
Encoding: 45 45 429
Width: 345
VWidth: 0
Flags: W
LayerCount: 3
Fore
SplineSet
55 302 m 1
 302 313 l 1
 295 252 l 1
 48 241 l 1
 55 302 l 1
EndSplineSet
EndChar

StartChar: i
Encoding: 105 105 430
Width: 347
VWidth: 0
Flags: W
LayerCount: 3
Fore
SplineSet
37 48 m 1
 129 70 l 1
 129 443 l 1
 37 476 l 1
 45 522 l 1
 215 536 l 1
 230 521 l 1
 230 70 l 1
 327 49 l 1
 320 0 l 1
 30 0 l 1
 37 48 l 1
EndSplineSet
Refer: 323 729 N 1 0 0 1 27 -173 2
EndChar

StartChar: iluy-hb
Encoding: 1452 1452 439
Width: 0
VWidth: 0
Flags: W
LayerCount: 3
Fore
SplineSet
498 1544 m 1
 -4 1544 l 1
 -4 1673 l 1
 369 1673 l 1
 369 2048 l 1
 498 2048 l 1
 498 1544 l 1
247 987 m 0
EndSplineSet
EndChar

StartChar: infinity
Encoding: 8734 8734 441
Width: 844
VWidth: 0
Flags: W
LayerCount: 3
Fore
SplineSet
206 437 m 0
 128 437 90 392 90 327 c 0
 90 265 159 219 228 219 c 0
 290 219 356 249 381 281 c 1
 321 367 268 437 206 437 c 0
36 301 m 0
 36 435 125 529 231 529 c 0
 303 529 361 499 416 410 c 1
 422 411 l 1
 479 487 542 526 618 526 c 0
 716 526 787 448 787 334 c 0
 787 220 693 123 582 124 c 0
 495 124 439 191 407 246 c 1
 402 246 l 1
 347 159 280 123 215 123 c 0
 103 123 36 194 36 301 c 0
640 219 m 0
 694 219 737 266 737 318 c 0
 737 386 664 430 594 430 c 0
 510 430 472 395 443 368 c 1
 496 275 569 219 640 219 c 0
EndSplineSet
EndChar

StartChar: integral
Encoding: 8747 8747 442
Width: 582
VWidth: 0
Flags: W
LayerCount: 3
Fore
SplineSet
239 -37 m 1
 236 -141 205 -169 160 -169 c 0
 122 -169 78 -125 54 -95 c 1
 34 -103 1 -133 0 -163 c 1
 0 -212 49 -233 113 -233 c 0
 199 -233 341 -162 341 71 c 2
 342 594 l 1
 346 698 377 726 422 726 c 0
 460 726 504 682 528 652 c 1
 548 660 582 690 582 720 c 0
 582 769 533 790 469 790 c 0
 383 790 242 705 242 476 c 1
 239 -37 l 1
EndSplineSet
EndChar

StartChar: j
Encoding: 106 106 447
Width: 279
VWidth: 0
Flags: W
LayerCount: 3
Fore
SplineSet
104 104 m 2
 104 443 l 1
 13 476 l 1
 22 524 l 1
 191 537 l 1
 206 522 l 1
 206 91 l 2
 206 -80 119 -166 27 -217 c 2
 0 -232 l 1
 -30 -179 l 1
 35 -130 104 -60 104 104 c 2
223 719 m 0
 223 678 190 644 149 644 c 0
 108 644 75 679 75 720 c 0
 75 761 109 792 150 792 c 0
 190 792 223 759 223 719 c 0
EndSplineSet
EndChar

StartChar: judeo-spanishvarika-hb
Encoding: 64286 64286 450
Width: 0
VWidth: 0
Flags: W
LayerCount: 3
Fore
SplineSet
496 1686 m 1
 394 1565 l 1
 248 1524 l 1
 102 1565 l 1
 0 1686 l 1
 0 1778 l 1
 248 1638 l 1
 496 1778 l 1
 496 1686 l 1
EndSplineSet
EndChar

StartChar: judeo-spanishvarika-hb.001
Encoding: 65559 -1 451
Width: 0
VWidth: 0
Flags: W
LayerCount: 3
Fore
SplineSet
496 1686 m 1
 394 1565 l 1
 248 1524 l 1
 102 1565 l 1
 0 1686 l 1
 0 1778 l 1
 248 1638 l 1
 496 1778 l 1
 496 1686 l 1
EndSplineSet
EndChar

StartChar: k
Encoding: 107 107 452
Width: 598
VWidth: 0
Flags: W
LayerCount: 3
Fore
SplineSet
235 274 m 1
 392 470 l 1
 311 495 l 1
 318 541 l 1
 575 541 l 1
 567 496 l 1
 476 471 l 1
 333 295 l 1
 381 234 l 2
 470 121 502 60 578 50 c 2
 602 47 l 1
 595 0 l 1
 586 -3 550 -12 523 -12 c 0
 443 -12 398 40 299 174 c 1
 235 262 l 1
 235 274 l 1
27 48 m 1
 119 70 l 1
 119 671 l 1
 24 703 l 1
 31 749 l 1
 205 763 l 1
 220 748 l 1
 220 713 l 1
 220 70 l 1
 317 49 l 1
 310 0 l 1
 20 0 l 1
 27 48 l 1
295 0 m 0
EndSplineSet
EndChar

StartChar: kaf-hb
Encoding: 1499 1499 453
Width: 540
VWidth: 0
Flags: W
LayerCount: 3
Fore
SplineSet
65 -8 m 1
 49 10 l 1
 69 90 l 1
 343 107 l 1
 397 109 451 151.98 451 253 c 0
 451 355.122 414 408 310 419 c 2
 71 445 l 1
 56 467 l 1
 65 602 l 1
 109 608 l 1
 135 544 l 1
 331 522 l 2
 450 509 506 430.014 506 284 c 0
 506 149.94 474 64 410 9 c 1
 65 -8 l 1
270 265 m 0
20 0 m 0
270 530 m 0
20 530 m 0
270 0 m 0
EndSplineSet
EndChar

StartChar: kaf-hb.fina
Encoding: 1498 1498 454
Width: 478
VWidth: 0
Flags: W
LayerCount: 3
Fore
SplineSet
344 -216 m 1
 352 453 l 1
 391 453 l 1
 414 -9 l 2
 416 -53 417.938 -173 424 -221 c 1
 366 -231 l 1
 344 -216 l 1
423 533 m 1
 439 514 l 1
 422 436 l 1
 382 426 l 1
 355 436 l 1
 21 436 l 1
 5 454 l 1
 15 591 l 1
 60 597 l 1
 81 533 l 1
 423 533 l 1
239 265 m 0
20 0 m 0
239 530 m 0
20 530 m 0
239 0 m 0
EndSplineSet
EndChar

StartChar: l
Encoding: 108 108 458
Width: 337
VWidth: 0
Flags: W
LayerCount: 3
Fore
SplineSet
220 70 m 1
 317 49 l 1
 310 0 l 1
 20 0 l 1
 27 48 l 1
 119 70 l 1
 119 677 l 1
 24 709 l 1
 31 755 l 1
 205 769 l 1
 220 754 l 1
 220 70 l 1
159 753 m 0
317 530 m 0
169 0 m 0
EndSplineSet
EndChar

StartChar: lamed-hb
Encoding: 1500 1500 460
Width: 540
VWidth: 0
Flags: W
LayerCount: 3
Fore
SplineSet
252 -10 m 1
 146 2 l 1
 134 18 l 1
 210 72 l 2
 301 137 441 245.98 441 347 c 0
 441 422.06 418 438 332 438 c 2
 73 438 l 1
 58 460 l 1
 67 795 l 1
 160 796 l 1
 176 782 l 1
 172 700 l 1
 113 695 l 1
 124 535 l 1
 370 535 l 2
 477 535 496 494 496 378 c 0
 496 243.94 396.631 151.646 337 85 c 2
 252 -10 l 1
270 265 m 0
20 0 m 0
270 530 m 0
20 530 m 0
270 0 m 0
EndSplineSet
EndChar

StartChar: logicalnot
Encoding: 172 172 472
Width: 579
VWidth: 0
Flags: W
LayerCount: 3
Fore
SplineSet
57 402 m 1
 508 402 l 1
 509 212 l 1
 445 201 l 1
 445 338 l 1
 50 338 l 1
 57 402 l 1
EndSplineSet
EndChar

StartChar: lowerdot-hb
Encoding: 1477 1477 473
Width: 0
VWidth: 0
Flags: W
LayerCount: 3
Fore
SplineSet
379 -389 m 1
 229 -542 l 1
 78 -389 l 1
 229 -237 l 1
 265 -301 315 -351.667 379 -389 c 1
228.5 0 m 0
EndSplineSet
EndChar

StartChar: lowerdot-hb.001
Encoding: 65560 -1 474
Width: 0
VWidth: 0
Flags: W
LayerCount: 3
Fore
SplineSet
379 -389 m 1
 229 -542 l 1
 78 -389 l 1
 229 -237 l 1
 265 -301 315 -351.667 379 -389 c 1
228.5 0 m 0
EndSplineSet
EndChar

StartChar: lozenge
Encoding: 9674 9674 475
Width: 572
VWidth: 0
Flags: W
LayerCount: 3
Fore
SplineSet
482 286 m 1
 287 82 l 1
 90 287 l 1
 286 484 l 1
 482 286 l 1
EndSplineSet
EndChar

StartChar: m
Encoding: 109 109 477
Width: 969
VWidth: 0
Flags: W
LayerCount: 3
Fore
SplineSet
539 443 m 1
 546 443 l 1
 585 493 649 538 725 538 c 0
 826 538 868 474 868 369 c 2
 868 70 l 1
 952 49 l 1
 944 1 l 1
 686 1 l 1
 691 45 l 1
 766 69 l 1
 766 354 l 2
 766 412 730 460 665 460 c 0
 611 460 577 430 549 400 c 1
 549 69 l 1
 639 48 l 1
 633 0 l 1
 364 0 l 1
 371 45 l 1
 450 69 l 1
 450 354 l 2
 450 418 405 460 347 460 c 0
 302 460 258 443 227 408 c 1
 227 69 l 1
 314 48 l 1
 308 0 l 1
 28 0 l 1
 34 45 l 1
 125 69 l 1
 125 436 l 1
 28 466 l 1
 34 512 l 1
 218 537 l 1
 229 525 l 1
 218 448 l 1
 224 448 l 1
 263 496 330 543 406 543 c 0
 461 543 520 517 539 443 c 1
EndSplineSet
EndChar

StartChar: macron
Encoding: 175 175 478
Width: 425
VWidth: 0
Flags: W
LayerCount: 3
Fore
SplineSet
83 896 m 1
 350 896 l 1
 342 835 l 1
 75 835 l 1
 83 896 l 1
211 750 m 0
EndSplineSet
EndChar

StartChar: mahapakhleft-hb
Encoding: 1444 1444 480
Width: 0
VWidth: 0
Flags: W
LayerCount: 3
Fore
SplineSet
446 -590 m 1
 378 -684 l 1
 0 -420 l 1
 378 -154 l 1
 446 -248 l 1
 202 -420 l 1
 446 -590 l 1
223 0 m 0
EndSplineSet
EndChar

StartChar: maqaf-hb
Encoding: 1470 1470 481
Width: 952
VWidth: 0
Flags: W
LayerCount: 3
Fore
SplineSet
733 1216 m 1
 219 1216 l 1
 219 1326 l 1
 733 1326 l 1
 733 1216 l 1
EndSplineSet
EndChar

StartChar: masoracircle-hb
Encoding: 1455 1455 482
Width: 0
VWidth: 0
Flags: W
LayerCount: 3
Fore
SplineSet
213 2046 m 1
 426 1833 l 1
 213 1620 l 1
 0 1833 l 1
 41.3333 1933.33 112.333 2004.33 213 2046 c 1
213 1987 m 1
 59 1833 l 1
 213 1679 l 1
 364 1833 l 1
 334.333 1905.33 284 1956.67 213 1987 c 1
213 987 m 0
EndSplineSet
EndChar

StartChar: mem-hb
Encoding: 1502 1502 483
Width: 507
VWidth: 0
Flags: W
LayerCount: 3
Fore
SplineSet
64 558 m 1
 48 546 l 1
 44 450 l 1
 134 376 l 1
 66 276 50 144 48 5 c 1
 70 -10 l 1
 128 0 l 1
 121.938 48.065 121 93 121 152 c 0
 121 278 154 434 280 434 c 0
 373 434 434.227 338.011 438 255 c 1
 435 193 l 2
 433 156 430 117 423 101 c 1
 210 92 l 1
 190 7 l 1
 206 -6 l 1
 425 4 l 1
 448 44 490 169 490 280 c 1
 486.959 403.926 439 537 318 537 c 0
 247 537 174 426 174 426 c 1
 161 455 128 520 64 558 c 1
254 265 m 0
20 0 m 0
254 530 m 0
20 530 m 0
254 0 m 0
EndSplineSet
EndChar

StartChar: mem-hb.fina
Encoding: 1501 1501 484
Width: 506
VWidth: 0
Flags: W
LayerCount: 3
Fore
SplineSet
139 98 m 1
 428 98 l 1
 435 114 441 157 440 188 c 2
 436 389 l 2
 435 428 424 436 402 436 c 2
 175 436 l 1
 134 396 124 356.014 124 320 c 0
 124 223.917 129 142 139 98 c 1
488 116 m 2
 488 14 448 0 418 0 c 2
 90 0 l 1
 74 18 l 1
 74 18 67 253.958 67 302 c 0
 67 330.071 80 389 134 426 c 1
 134 434 l 1
 76 434 l 1
 65 445 l 1
 71 591 l 1
 116 597 l 1
 137 533 l 1
 423 533 l 2
 466 533 488 505 488 414 c 2
 488 116 l 2
253 265 m 0
20 0 m 0
253 530 m 0
20 530 m 0
253 0 m 0
EndSplineSet
EndChar

StartChar: merkhakefulaleft-hb
Encoding: 1446 1446 486
Width: 0
VWidth: 0
Flags: W
LayerCount: 3
Fore
SplineSet
594 -203 m 1
 375 -672 l 1
 269 -623 l 1
 488 -154 l 1
 594 -203 l 1
326 -203 m 1
 107 -672 l 1
 0 -623 l 1
 219 -154 l 1
 326 -203 l 1
297 0 m 0
EndSplineSet
EndChar

StartChar: merkhaleft-hb
Encoding: 1445 1445 487
Width: 0
VWidth: 0
Flags: W
LayerCount: 3
Fore
SplineSet
326 -203 m 1
 106 -672 l 1
 0 -623 l 1
 219 -154 l 1
 326 -203 l 1
163 0 m 0
EndSplineSet
EndChar

StartChar: minus
Encoding: 8722 8722 489
Width: 480
VWidth: 0
Flags: W
LayerCount: 3
Fore
SplineSet
60 311 m 1
 430 315 l 1
 420 252 l 1
 50 248 l 1
 60 311 l 1
EndSplineSet
EndChar

StartChar: mu
Encoding: 956 956 492
Width: 624
VWidth: 0
Flags: W
LayerCount: 3
Fore
SplineSet
97 299 m 2
 97 446 l 1
 14 479 l 1
 22 527 l 1
 185 540 l 1
 199 525 l 1
 199 191 l 2
 199 100 238 64 293 64 c 0
 348 64 375 90 406 114 c 1
 406 443 l 1
 309 468 l 1
 315 523 l 1
 493 540 l 1
 506 525 l 1
 506 129 l 2
 506 65 532 62 572 53 c 2
 599 47 l 1
 594 -4 l 1
 556 -13 538 -15 502 -15 c 0
 441 -15 413 23 413 73 c 2
 413 78 l 1
 406 78 l 1
 351 17 300 -15 232 -15 c 0
 194 -15 166 -2 147 23 c 1
 142 23 l 1
 144 12 148 -13 151 -52 c 2
 162 -235 l 1
 81 -219 l 1
 82 -203 97 122 97 299 c 2
EndSplineSet
EndChar

StartChar: multiply
Encoding: 215 215 493
Width: 345
VWidth: 0
Flags: W
LayerCount: 3
Fore
SplineSet
172 235 m 1
 72 138 l 1
 32 188 l 1
 126 280 l 1
 32 375 l 1
 82 415 l 1
 175 322 l 1
 275 419 l 1
 315 368 l 1
 220 277 l 1
 316 180 l 1
 266 140 l 1
 172 235 l 1
EndSplineSet
EndChar

StartChar: munahleft-hb
Encoding: 1443 1443 494
Width: 0
VWidth: 0
Flags: W
LayerCount: 3
Fore
SplineSet
503 -657 m 1
 0 -657 l 1
 0 -526 l 1
 374 -526 l 1
 374 -154 l 1
 503 -154 l 1
 503 -657 l 1
251.5 987 m 0
EndSplineSet
EndChar

StartChar: n
Encoding: 110 110 495
Width: 658
VWidth: 0
Flags: W
LayerCount: 3
Fore
SplineSet
553 373 m 2
 553 69 l 1
 640 48 l 1
 634 0 l 1
 361 0 l 1
 368 44 l 1
 451 69 l 1
 451 349 l 2
 451 427 406 461 346 461 c 0
 302 461 258 443 227 409 c 1
 227 69 l 1
 317 48 l 1
 309 0 l 1
 28 0 l 1
 34 44 l 1
 125 69 l 1
 125 437 l 1
 32 468 l 1
 38 514 l 1
 218 538 l 1
 229 526 l 1
 218 449 l 1
 224 449 l 1
 265 498 331 544 407 544 c 0
 502 544 553 481 553 373 c 2
329 0 m 0
329 530 m 0
EndSplineSet
EndChar

StartChar: nine
Encoding: 57 57 506
Width: 609
VWidth: 0
Flags: W
HStem: -16 45<166.27 210.157> 283 65<240.99 359.013> 684 49<229.628 359.904>
VStem: 72.5 101<421.252 583.307> 431.5 108<393.349 588.663>
LayerCount: 3
Back
SplineSet
206 336 m 5
 174 311 140 248 140 184 c 4
 140 112 188 40 252 40 c 4
 320 40 366 80 366 161 c 4
 366 226 294 281 206 336 c 5
40 170 m 4
 40 238 84 302 171 357 c 5
 171 362 l 5
 126 389 67 456 67 537 c 4
 67 639 153 727 259 727 c 4
 363 727 430 662 430 571 c 4
 430 500 400 443 330 391 c 5
 329 385 l 5
 418 329 462 261 462 187 c 4
 462 76 364 -16 225 -16 c 4
 114 -16 40 54 40 170 c 4
289 410 m 5
 314 437 341 472 341 549 c 4
 341 614 307 681 243 681 c 4
 195 681 158 641 158 592 c 4
 158 526 204 459 289 410 c 5
EndSplineSet
Fore
SplineSet
423.5 348 m 1
 415.5 348 l 1
 385.5 307 317.5 283 264.5 283 c 3
 146.5 283 72.5 376 72.5 486 c 3
 72.5 622.074 194.5 733 310.5 733 c 3
 469.5 733 539.5 604 539.5 462 c 3
 539.5 219.975 396 24 168.5 -16 c 1
 154.5 29 l 1
 352 88 412 200 423.5 348 c 1
305.5 684 m 3
 215.95 684 173.5 620.417 173.5 512 c 3
 173.5 430 222.5 348 308.5 348 c 3
 350.5 348 407.5 370 426.5 401 c 1
 431.5 429 431.5 463 431.5 488 c 3
 431.5 587 375.5 684 305.5 684 c 3
EndSplineSet
EndChar

StartChar: notequal
Encoding: 8800 8800 507
Width: 481
VWidth: 0
Flags: W
LayerCount: 3
Fore
SplineSet
340 481 m 1
 420 483 l 1
 364 402 l 1
 431 402 l 1
 424 338 l 1
 319 338 l 1
 262 257 l 1
 429 257 l 1
 422 193 l 1
 218 193 l 1
 138 80 l 1
 60 78 l 1
 140 193 l 1
 50 193 l 1
 57 257 l 1
 185 257 l 1
 241 338 l 1
 52 338 l 1
 59 402 l 1
 286 402 l 1
 340 481 l 1
EndSplineSet
EndChar

StartChar: numbersign
Encoding: 35 35 509
Width: 569
VWidth: 0
Flags: W
LayerCount: 3
Fore
SplineSet
203 220 m 1
 188 108 l 1
 124 103 l 1
 140 220 l 1
 38 220 l 1
 53 281 l 1
 151 281 l 1
 170 409 l 1
 72 409 l 1
 86 470 l 1
 180 470 l 1
 198 576 l 1
 260 582 l 1
 242 470 l 1
 366 470 l 1
 383 576 l 1
 445 581 l 1
 428 470 l 1
 530 470 l 1
 516 409 l 1
 418 409 l 1
 399 281 l 1
 496 281 l 1
 482 220 l 1
 388 220 l 1
 374 108 l 1
 310 103 l 1
 326 220 l 1
 203 220 l 1
213 281 m 1
 336 281 l 1
 356 409 l 1
 232 409 l 1
 213 281 l 1
EndSplineSet
EndChar

StartChar: nun-hb
Encoding: 1504 1504 510
Width: 280
VWidth: 0
Flags: W
LayerCount: 3
Fore
SplineSet
164 369 m 2
 167 401 140 417 116.396 423.521 c 2
 61.536 439.027 l 1
 50.666 453.129 l 1
 61.793 575.032 l 1
 96.83 578.708 l 1
 116.366 528.525 l 1
 157.245 515.146 l 2
 189.15 504.852 210.327 487.931 206 405 c 2
 200 290 l 2
 196.141 216.045 220 132.154 220 80 c 0
 220 45 219 29 202 0 c 1
 46 0 l 1
 30 18 l 1
 50 98 l 1
 108.667 98 l 2
 129.667 98 152 112 152 143 c 2
 152 242 l 2
 152 263 152.955 275 156 295 c 2
 164 369 l 2
140 265 m 0
20 0 m 0
140 530 m 0
20 530 m 0
140 0 m 0
EndSplineSet
EndChar

StartChar: nun-hb.fina
Encoding: 1503 1503 511
Width: 280
VWidth: 0
Flags: W
LayerCount: 3
Fore
SplineSet
210 -19 m 0
 213.544 -102 218.938 -183 225 -231 c 1
 167 -241 l 1
 145 -226 l 1
 152 242 l 2
 152 263 152.955 275 156 295 c 2
 164 369 l 2
 167 401 140 417 116.396 423.521 c 2
 61.536 439.027 l 1
 50.666 453.129 l 1
 61.793 575.032 l 1
 96.83 578.708 l 1
 116.366 528.525 l 1
 157.245 515.146 l 2
 189.15 504.852 210.327 487.931 206 405 c 2
 200 290 l 2
 196.141 216.045 205 98 210 -19 c 0
140 265 m 0
20 0 m 0
140 530 m 0
20 530 m 0
140 0 m 0
EndSplineSet
EndChar

StartChar: o
Encoding: 111 111 513
Width: 580
VWidth: 0
Flags: W
LayerCount: 3
Fore
SplineSet
146 301 m 0
 146 176 189 43 308 43 c 0
 393 43 433 132 433 217 c 0
 433 337 391 483 276 483 c 0
 185 483 146 396 146 301 c 0
541 267 m 0
 541 98 428 -16 287 -16 c 0
 127 -16 38 102 38 258 c 0
 38 442 167 547 302 547 c 0
 451 547 541 434 541 267 c 0
290 530 m 0
EndSplineSet
EndChar

StartChar: oe
Encoding: 339 339 526
Width: 600
VWidth: 0
Flags: W
LayerCount: 3
Fore
SplineSet
300 530 m 0
EndSplineSet
EndChar

StartChar: ogonek
Encoding: 731 731 527
Width: 315
VWidth: 0
Flags: W
LayerCount: 3
Fore
SplineSet
165 -90 m 0
 165 -128 185 -171 240 -203 c 1
 219 -234 l 1
 132 -225 75 -178 75 -126 c 0
 75 -94 86 -62 159 2 c 1
 202 2 l 1
 166 -57 165 -79 165 -90 c 0
180 10 m 0
EndSplineSet
EndChar

StartChar: ole-hb
Encoding: 1451 1451 537
Width: 0
VWidth: 0
Flags: W
LayerCount: 3
Fore
SplineSet
447 1659 m 1
 379 1563 l 1
 0 1829 l 1
 379 2095 l 1
 447 1999 l 1
 203 1829 l 1
 447 1659 l 1
223.5 987 m 0
EndSplineSet
EndChar

StartChar: one
Encoding: 49 49 541
Width: 609
VWidth: 0
Flags: W
HStem: 0 45<86.5 130.276 478.22 521.5> 624 47<98.5 136.989>
VStem: 257.5 105<73 624>
LayerCount: 3
Back
SplineSet
206 336 m 5
 174 311 140 248 140 184 c 4
 140 112 188 40 252 40 c 4
 320 40 366 80 366 161 c 4
 366 226 294 281 206 336 c 5
40 170 m 4
 40 238 84 302 171 357 c 5
 171 362 l 5
 126 389 67 456 67 537 c 4
 67 639 153 727 259 727 c 4
 363 727 430 662 430 571 c 4
 430 500 400 443 330 391 c 5
 329 385 l 5
 418 329 462 261 462 187 c 4
 462 76 364 -16 225 -16 c 4
 114 -16 40 54 40 170 c 4
289 410 m 5
 314 437 341 472 341 549 c 4
 341 614 307 681 243 681 c 4
 195 681 158 641 158 592 c 4
 158 526 204 459 289 410 c 5
EndSplineSet
Fore
SplineSet
362.5 717 m 1
 362.5 69 l 1
 527.5 50 l 1
 521.5 1 l 1
 81.5 0 l 1
 86.5 45 l 1
 257.5 73 l 1
 257.5 624 l 1
 93.5 624 l 1
 98.5 671 l 1
 345.5 717 l 1
 362.5 717 l 1
EndSplineSet
EndChar

StartChar: onehalf
Encoding: 189 189 542
Width: 634
VWidth: 0
Flags: W
LayerCount: 3
Fore
SplineSet
458 188 m 1
 428 190 416 198 416 223 c 0
 416 258 472 292 510 292 c 0
 554 292 588 260 588 213 c 0
 588 157 560 131 500 79 c 1
 460 43 l 1
 594 43 l 1
 588 0 l 1
 408 0 l 1
 406 31 l 1
 494 118 l 2
 519 142 534 170 534 200 c 0
 534 232 520 260 490 260 c 0
 462 260 458 217 458 188 c 1
143 588 m 1
 143 339 l 1
 198 329 l 1
 195 304 l 1
 40 304 l 1
 42 327 l 1
 92 341 l 1
 92 541 l 1
 46 542 l 1
 48 565 l 1
 134 588 l 1
 143 588 l 1
502 581 m 1
 566 586 l 1
 150 -13 l 1
 84 -18 l 1
 502 581 l 1
EndSplineSet
EndChar

StartChar: onequarter
Encoding: 188 188 543
Width: 633
VWidth: 0
Flags: W
LayerCount: 3
Fore
SplineSet
484 280 m 1
 538 289 l 1
 537 92 l 1
 593 92 l 1
 588 52 l 1
 538 52 l 1
 538 -35 l 1
 590 -45 l 1
 586 -70 l 1
 438 -70 l 1
 440 -47 l 1
 487 -33 l 1
 487 52 l 1
 348 52 l 1
 344 84 l 1
 484 280 l 1
488 90 m 1
 487 236 l 1
 384 90 l 1
 488 90 l 1
144 588 m 1
 144 339 l 1
 198 329 l 1
 196 304 l 1
 40 304 l 1
 42 327 l 1
 93 341 l 1
 93 541 l 1
 46 542 l 1
 48 565 l 1
 135 588 l 1
 144 588 l 1
502 581 m 1
 566 586 l 1
 151 -13 l 1
 84 -18 l 1
 502 581 l 1
EndSplineSet
EndChar

StartChar: onesuperior
Encoding: 185 185 544
Width: 134
VWidth: 0
Flags: W
LayerCount: 3
Fore
SplineSet
81 781 m 1
 81 632 l 1
 114 626 l 1
 112 611 l 1
 19 611 l 1
 21 625 l 1
 51 633 l 1
 51 753 l 1
 23 753 l 1
 24 767 l 1
 76 781 l 1
 81 781 l 1
EndSplineSet
EndChar

StartChar: ordfeminine
Encoding: 170 170 546
Width: 245
VWidth: 0
Flags: W
LayerCount: 3
Fore
SplineSet
21 209 m 1
 226 209 l 1
 222 174 l 1
 17 174 l 1
 21 209 l 1
140 349 m 1
 80 340 71 324 71 301 c 0
 71 281 81 272 98 272 c 0
 118 272 134 288 140 298 c 1
 140 349 l 1
183 247 m 0
 155 247 145 265 145 280 c 2
 145 283 l 1
 142 283 l 1
 134 266 108 246 76 246 c 0
 51 246 29 260 29 290 c 0
 29 325 53 350 140 366 c 1
 140 382 l 2
 140 415 132 446 100 446 c 0
 77 446 76 429 72 399 c 1
 59 399 39 400 39 424 c 0
 39 450 86 470 120 470 c 0
 163 470 180 446 180 395 c 2
 180 307 l 2
 180 285 184 278 207 275 c 2
 219 273 l 1
 216 252 l 1
 204 250 197 247 183 247 c 0
EndSplineSet
EndChar

StartChar: ordmasculine
Encoding: 186 186 547
Width: 245
VWidth: 0
Flags: W
LayerCount: 3
Fore
SplineSet
21 209 m 1
 226 209 l 1
 222 174 l 1
 17 174 l 1
 21 209 l 1
67 364 m 0
 67 305 91 267 123 267 c 0
 154 267 170 296 170 348 c 0
 170 403 149 443 114 443 c 0
 84 443 67 417 67 364 c 0
214 356 m 0
 214 289 173 243 117 243 c 0
 53 243 23 290 23 353 c 0
 23 428 70 468 123 468 c 0
 183 468 214 423 214 356 c 0
EndSplineSet
EndChar

StartChar: oslash
Encoding: 248 248 548
Width: 580
VWidth: 0
Flags: W
LayerCount: 3
Fore
SplineSet
529 267 m 0
 529 98 427 -16 286 -16 c 0
 254 -16 226 -11 200 -3 c 1
 184 -38 l 1
 106 -43 l 1
 139 32 l 1
 80 80 51 162 51 258 c 0
 51 446 168 546 301 546 c 0
 323 546 344 543 363 539 c 1
 377 571 l 1
 457 576 l 1
 429 509 l 1
 495 463 529 377 529 267 c 0
332 471 m 1
 316 480 298 485 279 485 c 0
 204 485 161 418 161 287 c 0
 161 225 171 172 189 132 c 1
 332 471 l 1
384 411 m 1
 238 66 l 1
 257 51 278 43 301 43 c 0
 379 43 418 116 418 246 c 0
 418 312 406 369 384 411 c 1
290 530 m 0
EndSplineSet
EndChar

StartChar: p
Encoding: 112 112 553
Width: 599
VWidth: 0
Flags: HW
LayerCount: 3
Back
SplineSet
95 30 m 1
 95 671 l 1
 3 703 l 1
 11 749 l 1
 179 762 l 1
 194 748 l 1
 194 514 l 1
 185 451 l 1
 192 451 l 1
 240 505 297 544 365 544 c 0
 482 544 560 439 560 286 c 0
 560 94 418 -14 261 -14 c 0
 206 -14 144 -1 95 30 c 1
452 247 m 0
 452 337 427 465 324 465 c 0
 290 465 242 458 194 407 c 1
 194 94 l 1
 219 69 269 53 322 53 c 0
 391 53 452 112 452 247 c 0
EndSplineSet
Fore
SplineSet
290 -11.681 m 19
 272.165 -11.681 253.09 -9.9614 233 -6 c 1
 230 67 l 1
 258 56 274 54 322 54 c 3
 406.023 54 449 131.996 449 246 c 3
 449 390 410 465 333 465 c 3
 281 465 236 431 209 403 c 1
 209 -156 l 1
 303 -177 l 1
 296 -226 l 1
 14 -226 l 1
 18 -178 l 1
 110 -155 l 1
 110 438 l 1
 17 465 l 1
 24 512 l 1
 200 534 l 1
 213 523 l 1
 204 445 l 1
 209 445 l 1
 240 488 297 544 376 544 c 3
 479 544 560 468 560 283 c 3
 560 109.988 445.681 -11.681 290 -11.681 c 19
EndSplineSet
EndChar

StartChar: paragraph
Encoding: 182 182 554
Width: 839
VWidth: 0
Flags: W
LayerCount: 3
Fore
SplineSet
526 687 m 1
 512 684 l 1
 512 69 l 1
 525 67 l 1
 548 73 l 1
 548 682 l 1
 526 687 l 1
749 753 m 1
 743 707 l 1
 640 684 l 1
 640 69 l 1
 750 49 l 1
 744 0 l 1
 305 0 l 1
 310 45 l 1
 411 73 l 1
 411 294 l 1
 385 292 358 291 332 291 c 0
 174 291 29 334 29 511 c 0
 29 655 151 754 298 754 c 2
 749 753 l 1
411 698 m 1
 386 699 353 699 347 699 c 0
 217 699 154 641 154 533 c 0
 154 430 211 350 343 350 c 0
 368 350 407 354 407 354 c 1
 411 351 l 1
 411 698 l 1
EndSplineSet
EndChar

StartChar: parenright
Encoding: 41 41 556
Width: 288
VWidth: 0
Flags: W
LayerCount: 3
Fore
SplineSet
15 -192 m 1
 57 -227 l 1
 88 -198 258 -42 258 270 c 0
 258 588 94 726 54 760 c 1
 24 720 l 1
 76 652 150 533 150 276 c 0
 150 24 42 -148 15 -192 c 1
EndSplineSet
EndChar

StartChar: partialdiff
Encoding: 8706 8706 557
Width: 600
VWidth: 0
Flags: W
LayerCount: 3
Fore
SplineSet
528 282 m 0
 528 95 419 -16 289 -16 c 0
 121 -16 50 126 50 273 c 0
 50 452 159 574 288 574 c 0
 312 574 364 565 382 519 c 1
 386 520 l 1
 373 582 296 718 212 789 c 1
 283 789 l 1
 453 692 528 482 528 282 c 0
158 302 m 1
 160 137 219 43 303 43 c 0
 397 43 423 127 423 257 c 0
 423 399 350 516 280 518 c 1
 276 518 l 2
 191 518 158 430 158 302 c 1
EndSplineSet
EndChar

StartChar: pashta-hb
Encoding: 1433 1433 558
Width: 0
VWidth: 0
Flags: W
LayerCount: 3
Fore
SplineSet
325 1593 m 1
 219 1544 l 1
 0 2015 l 1
 106 2062 l 1
 325 1593 l 1
162.5 987 m 0
EndSplineSet
EndChar

StartChar: patah-hb
Encoding: 1463 1463 559
Width: 0
VWidth: 0
Flags: W
LayerCount: 3
Fore
SplineSet
374 -249 m 1
 75 -249 l 1
 75 -173 l 1
 374 -173 l 1
 374 -249 l 1
224.5 0 m 0
EndSplineSet
EndChar

StartChar: patah-hb.001
Encoding: 65562 -1 560
Width: 0
VWidth: 0
Flags: W
LayerCount: 3
Fore
SplineSet
449 -268 m 1
 0 -268 l 1
 0 -154 l 1
 449 -154 l 1
 449 -268 l 1
224.5 0 m 0
EndSplineSet
EndChar

StartChar: patah-hb.002
Encoding: 65563 -1 561
Width: 0
VWidth: 0
Flags: W
LayerCount: 3
Fore
SplineSet
449 -268 m 1
 0 -268 l 1
 0 -154 l 1
 449 -154 l 1
 449 -268 l 1
224.5 0 m 0
EndSplineSet
EndChar

StartChar: pazer-hb
Encoding: 1441 1441 562
Width: 0
VWidth: 0
Flags: W
LayerCount: 3
Fore
SplineSet
452 1743 m 1
 118 1743 l 1
 118 1548 l 1
 3 1548 l 1
 3 2042 l 1
 118 2042 l 1
 118 1860 l 1
 452 1860 l 1
 452 1743 l 1
227.5 987 m 0
EndSplineSet
EndChar

StartChar: pe-hb
Encoding: 1508 1508 563
Width: 507
VWidth: 0
Flags: W
LayerCount: 3
Fore
SplineSet
75 469 m 2
 123 599 l 1
 165 602 l 1
 170 541 l 1
 411 511 l 2
 454 506 473 483 476 392 c 1
 486 165 l 2
 489 98 436 28 404 8 c 1
 54 -8 l 1
 38 5 l 1
 58 90 l 1
 426 107 l 1
 433 123 438 156 435 193 c 2
 424 367 l 2
 422 406 412 411 390 414 c 2
 114 451 l 1
 97 336 198 308 278 300 c 1
 282 260 258 222 233 202 c 1
 43 210 24 331 75 469 c 2
254 265 m 0
20 0 m 0
254 530 m 0
20 530 m 0
254 0 m 0
EndSplineSet
EndChar

StartChar: pe-hb.fina
Encoding: 1507 1507 564
Width: 507
VWidth: 0
Flags: W
LayerCount: 3
Fore
SplineSet
408 369 m 2
 408.212 399.999 397.107 411.98 370 416 c 2
 134 451 l 1
 117 336 218 308 298 300 c 1
 302 260 278 222 253 202 c 1
 63 210 44 331 95 469 c 2
 143 599 l 1
 185 602 l 1
 190 541 l 1
 391 513 l 2
 441.439 505.974 447.071 495.524 452 403 c 2
 474 -10 l 2
 476 -54 477.938 -174 484 -222 c 1
 426 -232 l 1
 404 -217 l 1
 408 369 l 2
254 265 m 0
20 0 m 0
254 530 m 0
20 530 m 0
254 0 m 0
EndSplineSet
EndChar

StartChar: percent
Encoding: 37 37 566
Width: 692
VWidth: 0
Flags: W
LayerCount: 3
Fore
SplineSet
453 128 m 0
 453 72 476 28 521 28 c 0
 572 28 586 71 586 129 c 0
 586 186 566 231 520 231 c 0
 468 231 453 182 453 128 c 0
662 128 m 0
 662 48 592 -21 521 -21 c 0
 444 -21 377 39 377 129 c 0
 377 209 446 280 520 280 c 0
 606 280 662 213 662 128 c 0
105 437 m 0
 105 381 128 338 173 338 c 0
 224 338 238 381 238 438 c 0
 238 495 218 540 172 540 c 0
 120 540 105 491 105 437 c 0
314 438 m 0
 314 357 244 288 173 288 c 0
 96 288 30 348 30 439 c 0
 30 519 98 589 172 589 c 0
 258 589 314 523 314 438 c 0
510 591 m 1
 578 586 l 1
 181 -23 l 1
 108 -17 l 1
 510 591 l 1
EndSplineSet
EndChar

StartChar: period
Encoding: 46 46 567
Width: 245
VWidth: 0
Flags: W
LayerCount: 3
Fore
SplineSet
122 124 m 0
 162 124 195 94 195 55 c 0
 195 14 162 -19 122 -19 c 0
 82 -19 50 15 50 56 c 0
 50 95 83 124 122 124 c 0
EndSplineSet
EndChar

StartChar: periodcentered
Encoding: 183 183 568
Width: 245
VWidth: 0
Flags: W
LayerCount: 3
Fore
SplineSet
122 374 m 0
 162 374 195 344 195 305 c 0
 195 264 162 231 122 231 c 0
 82 231 50 265 50 306 c 0
 50 345 83 374 122 374 c 0
EndSplineSet
EndChar

StartChar: perthousand
Encoding: 8240 8240 569
Width: 1023
VWidth: 0
Flags: W
LayerCount: 3
Fore
SplineSet
453 128 m 0
 453 72 476 28 521 28 c 0
 572 28 586 71 586 129 c 0
 586 186 566 231 520 231 c 0
 468 231 453 182 453 128 c 0
662 128 m 0
 662 48 592 -21 521 -21 c 0
 444 -21 377 39 377 129 c 0
 377 209 446 280 520 280 c 0
 606 280 662 213 662 128 c 0
105 437 m 0
 105 381 128 338 173 338 c 0
 224 338 238 381 238 438 c 0
 238 495 218 540 172 540 c 0
 120 540 105 491 105 437 c 0
314 438 m 0
 314 357 244 288 173 288 c 0
 96 288 30 348 30 439 c 0
 30 519 98 589 172 589 c 0
 258 589 314 523 314 438 c 0
510 591 m 1
 578 586 l 1
 181 -23 l 1
 108 -17 l 1
 510 591 l 1
784 128 m 0
 784 72 807 28 852 28 c 0
 903 28 917 71 917 129 c 0
 917 186 897 231 851 231 c 0
 799 231 784 182 784 128 c 0
993 128 m 0
 993 48 923 -21 852 -21 c 0
 775 -21 708 39 708 129 c 0
 708 209 777 280 851 280 c 0
 937 280 993 213 993 128 c 0
EndSplineSet
EndChar

StartChar: plus
Encoding: 43 43 572
Width: 433
VWidth: 0
Flags: W
LayerCount: 3
Fore
SplineSet
250 248 m 1
 251 105 l 1
 184 112 l 1
 184 248 l 1
 50 248 l 1
 57 309 l 1
 184 309 l 1
 184 449 l 1
 249 442 l 1
 250 309 l 1
 383 309 l 1
 376 248 l 1
 250 248 l 1
EndSplineSet
EndChar

StartChar: product
Encoding: 8719 8719 574
Width: 858
VWidth: 0
Flags: W
LayerCount: 3
Fore
SplineSet
347 0 m 1
 19 0 l 1
 24 45 l 1
 125 73 l 1
 125 682 l 1
 15 707 l 1
 21 753 l 1
 849 753 l 1
 842 707 l 1
 741 684 l 1
 741 69 l 1
 851 49 l 1
 845 0 l 1
 516 0 l 1
 523 45 l 1
 623 73 l 1
 623 691 l 1
 243 690 l 1
 243 69 l 1
 355 49 l 1
 347 0 l 1
EndSplineSet
EndChar

StartChar: q
Encoding: 113 113 575
Width: 591
VWidth: 0
Flags: HW
LayerCount: 3
Back
SplineSet
395 79 m 1
 389 79 l 1
 355 32 305 -13 221 -13 c 0
 114 -13 24 75 24 242 c 0
 24 418 164 546 289 546 c 0
 329 546 373 533 393 518 c 1
 398 518 l 1
 390 596 l 1
 390 673 l 1
 298 706 l 1
 306 751 l 1
 474 766 l 1
 488 751 l 1
 488 130 l 2
 488 66 514 63 554 54 c 2
 581 48 l 1
 574 -3 l 1
 538 -12 523 -14 485 -14 c 0
 424 -14 395 24 395 75 c 2
 395 79 l 1
389 119 m 1
 389 403 l 1
 357 456 301 486 260 486 c 0
 165 486 131 396 131 280 c 0
 131 136 189 64 265 64 c 0
 316 64 368 94 389 119 c 1
284 265 m 0
EndSplineSet
Fore
SplineSet
374 44 m 17
 336 8 269.492 -13 228 -13 c 0
 121 -13 30 70 30 250 c 0
 30 415 170 546 297 546 c 0
 337.603 546 384 527 402 517 c 1
 472 539.387 l 1
 490 539 l 1
 490 -152 l 1
 587 -173 l 1
 580 -222 l 1
 292 -222 l 1
 298 -174 l 1
 389 -152 l 1
 389 402 l 1
 368 439 328 485 267 485 c 0
 193 485 136 410 136 287 c 0
 136 143 192 63 268 63 c 0
 285.646 63 342 72 372 90 c 1
 374 44 l 17
EndSplineSet
Layer: 2
SplineSet
490 539 m 5
 490 -152 l 5
 587 -173 l 5
 580 -222 l 5
 292 -222 l 5
 298 -174 l 5
 389 -152 l 5
 389 7 l 5
 395 69 l 5
 389 68.291 l 5
 346 10 286 -13 228 -13 c 4
 121 -13 28 70 28 250 c 4
 28 415 170 546 297 546 c 4
 337.603 546 386 526 399 512 c 5
 472 539.387 l 5
 490 539 l 5
389 109.562 m 5
 389 402 l 5
 368 439 328 485 267 485 c 4
 193 485 134 410 134 287 c 4
 134 143 192 63 268 63 c 4
 296.389 63 357.362 72.167 389 109.562 c 5
EndSplineSet
EndChar

StartChar: qadma-hb
Encoding: 1448 1448 576
Width: 0
VWidth: 0
Flags: W
LayerCount: 3
Fore
SplineSet
325 1593 m 1
 219 1544 l 1
 0 2015 l 1
 106 2062 l 1
 325 1593 l 1
162.5 987 m 0
EndSplineSet
EndChar

StartChar: qamat-hbs
Encoding: 1464 1464 577
Width: 0
VWidth: 0
Flags: W
LayerCount: 3
Fore
SplineSet
287 -503 m 1
 221 -567 l 1
 157 -503 l 1
 217 -313 l 1
 75 -313 l 1
 75 -236 l 1
 374 -236 l 1
 374 -313 l 1
 227 -313 l 1
 267 -422.333 287 -485.667 287 -503 c 1
224.5 0 m 0
EndSplineSet
EndChar

StartChar: qamat-hbs.001
Encoding: 65564 -1 578
Width: 0
VWidth: 0
Flags: W
LayerCount: 3
Fore
SplineSet
287 -503 m 1
 221 -567 l 1
 157 -503 l 1
 217 -313 l 1
 75 -313 l 1
 75 -236 l 1
 374 -236 l 1
 374 -313 l 1
 227 -313 l 1
 267 -422.333 287 -485.667 287 -503 c 1
224.5 0 m 0
EndSplineSet
EndChar

StartChar: qamatsqatan-hb
Encoding: 1479 1479 579
Width: 0
VWidth: 0
Flags: W
LayerCount: 3
Fore
SplineSet
75 -266 m 1
 374 -266 l 1
 374 -342 l 1
 227 -342 l 1
 287 -649 l 1
 221 -713 l 1
 157 -649 l 1
 217 -342 l 1
 75 -342 l 1
 75 -266 l 1
224.5 0 m 0
EndSplineSet
EndChar

StartChar: qamatsqatan-hb.001
Encoding: 65565 -1 580
Width: 0
VWidth: 0
Flags: W
LayerCount: 3
Fore
SplineSet
0 -154 m 1
 449 -154 l 1
 449 -268 l 1
 228 -268 l 1
 318 -729 l 1
 219 -825 l 1
 123 -729 l 1
 213 -268 l 1
 0 -268 l 1
 0 -154 l 1
224.5 0 m 0
EndSplineSet
EndChar

StartChar: qamatsqatan-hb.002
Encoding: 65566 -1 581
Width: 0
VWidth: 0
Flags: W
LayerCount: 3
Fore
SplineSet
0 -154 m 1
 449 -154 l 1
 449 -268 l 1
 228 -268 l 1
 318 -729 l 1
 219 -825 l 1
 123 -729 l 1
 213 -268 l 1
 0 -268 l 1
 0 -154 l 1
224.5 0 m 0
EndSplineSet
EndChar

StartChar: qarneypara-hb
Encoding: 1439 1439 582
Width: 0
VWidth: 0
Flags: W
LayerCount: 3
Fore
SplineSet
421 1976 m 1
 369 1843 l 1
 519 1694 l 1
 669 1843 l 1
 619 1976 l 1
 824 2181 l 1
 1031 1976 l 1
 824 1769 l 1
 689 1821 l 1
 519 1651 l 1
 349 1821 l 1
 214 1769 l 1
 7 1976 l 1
 214 2181 l 1
 311.333 2141 380.333 2072.67 421 1976 c 1
1000 1976 m 1
 824 2152 l 1
 648 1976 l 1
 824 1800 l 1
 906.667 1834.67 965.333 1893.33 1000 1976 c 1
390 1976 m 1
 214 2152 l 1
 38 1976 l 1
 214 1800 l 1
 296.667 1834.67 355.333 1893.33 390 1976 c 1
519 987 m 0
EndSplineSet
EndChar

StartChar: qof-hb
Encoding: 1511 1511 584
Width: 502
VWidth: 0
Flags: W
LayerCount: 3
Fore
SplineSet
368 82 m 2
 459 233 496 297.907 496 384 c 0
 496 476 454 535 331 535 c 2
 135 535 l 1
 109 599 l 1
 65 593 l 1
 56 458 l 1
 71 436 l 1
 320 437 l 2
 405.995 437.345 428 388.174 428 342 c 0
 428 238 348 173 270 92 c 2
 215 35 l 1
 227 19 l 1
 323 7 l 1
 368 82 l 2
85 -216 m 1
 95 344 l 1
 134 349 l 1
 151 -9 l 2
 153 -53 158.938 -173 165 -221 c 1
 107 -231 l 1
 85 -216 l 1
251 265 m 0
20 0 m 0
251 530 m 0
20 530 m 0
251 0 m 0
EndSplineSet
EndChar

StartChar: qubuts-hb
Encoding: 1467 1467 586
Width: 0
VWidth: 0
Flags: W
LayerCount: 3
Fore
SplineSet
203 -319 m 1
 147 -375 l 1
 92 -319 l 1
 147 -265 l 1
 173.333 -275.667 192 -293.667 203 -319 c 1
331 -489 m 1
 275 -545 l 1
 220 -489 l 1
 275 -435 l 1
 301.333 -445.667 320 -463.667 331 -489 c 1
461 -660 m 1
 405 -715 l 1
 350 -660 l 1
 405 -606 l 1
 431.333 -616.667 450 -634.667 461 -660 c 1
276.5 0 m 0
EndSplineSet
EndChar

StartChar: qubuts-hb.001
Encoding: 65567 -1 587
Width: 0
VWidth: 0
Flags: W
LayerCount: 3
Fore
SplineSet
166 -233 m 1
 82 -317 l 1
 0 -233 l 1
 82 -152 l 1
 121.333 -168 149.333 -195 166 -233 c 1
358 -489 m 1
 274 -573 l 1
 192 -489 l 1
 274 -408 l 1
 313.333 -424 341.333 -451 358 -489 c 1
553 -745 m 1
 469 -827 l 1
 387 -745 l 1
 469 -664 l 1
 508.333 -680 536.333 -707 553 -745 c 1
276.5 0 m 0
EndSplineSet
EndChar

StartChar: qubuts-hb.002
Encoding: 65568 -1 588
Width: 0
VWidth: 0
Flags: W
LayerCount: 3
Fore
SplineSet
166 -233 m 1
 82 -317 l 1
 0 -233 l 1
 82 -152 l 1
 121.333 -168 149.333 -195 166 -233 c 1
358 -489 m 1
 274 -573 l 1
 192 -489 l 1
 274 -408 l 1
 313.333 -424 341.333 -451 358 -489 c 1
553 -745 m 1
 469 -827 l 1
 387 -745 l 1
 469 -664 l 1
 508.333 -680 536.333 -707 553 -745 c 1
276.5 0 m 0
EndSplineSet
EndChar

StartChar: question
Encoding: 63 63 589
Width: 364
VWidth: 0
Flags: W
LayerCount: 3
Fore
SplineSet
17 698 m 0
 17 730 41 780 136 780 c 0
 230 780 344 675 344 521 c 0
 344 377 170 398 170 308 c 0
 170 284 174 262 183 232 c 1
 138 222 l 1
 122 246 91 305 91 354 c 0
 91 490 277 445 277 569 c 0
 277 625 214 674 178 674 c 0
 132 674 88 659 62 631 c 1
 42 639 17 665 17 698 c 0
235 55 m 0
 235 12 201 -22 159 -22 c 0
 117 -22 84 13 84 56 c 0
 84 97 119 127 159 127 c 0
 200 127 235 96 235 55 c 0
EndSplineSet
EndChar

StartChar: quotedbl
Encoding: 34 34 591
Width: 337
VWidth: 0
Flags: W
LayerCount: 3
Fore
SplineSet
176 789 m 1
 287 779 l 1
 265 547 l 1
 208 540 l 1
 176 789 l 1
50 789 m 1
 161 779 l 1
 139 547 l 1
 82 540 l 1
 50 789 l 1
EndSplineSet
EndChar

StartChar: quotereversed
Encoding: 8219 8219 596
Width: 225
VWidth: 0
Flags: W
LayerCount: 3
Fore
SplineSet
206 501 m 1
 192 459 l 1
 33 501 13 598 13 655 c 0
 13 746 77 781 119 781 c 0
 150 781 193 756 193 709 c 0
 193 698 190 686 184 672 c 1
 133 668 96 645 96 606 c 0
 96 567 127 522 206 501 c 1
EndSplineSet
EndChar

StartChar: quotesingle
Encoding: 39 39 599
Width: 231
VWidth: 0
Flags: W
LayerCount: 3
Fore
SplineSet
60 789 m 1
 171 779 l 1
 149 547 l 1
 92 540 l 1
 60 789 l 1
EndSplineSet
EndChar

StartChar: r
Encoding: 114 114 600
Width: 435
VWidth: 0
Flags: W
LayerCount: 3
Fore
SplineSet
386 408 m 5
 365 426 341 438 319 438 c 4
 287 438 235 397 222 306 c 5
 222 73 l 5
 362 53 l 5
 356 0 l 5
 22 0 l 5
 29 45 l 5
 121 69 l 5
 121 441 l 5
 23 470 l 5
 31 516 l 5
 204 539 l 5
 216 525 l 5
 206 385 l 5
 218 385 l 5
 250 495 309 549 360 549 c 4
 405 549 433 516 433 480 c 4
 433 454 418 430 386 408 c 5
218 0 m 4
251 530 m 4
EndSplineSet
EndChar

StartChar: radical
Encoding: 8730 8730 602
Width: 636
VWidth: 0
Flags: W
LayerCount: 3
Fore
SplineSet
237 -80 m 1
 113 250 l 1
 40 267 l 1
 46 313 l 1
 204 322 l 1
 293 54 l 1
 564 785 l 1
 636 789 l 1
 314 -69 l 1
 237 -80 l 1
EndSplineSet
EndChar

StartChar: rafe-hb
Encoding: 1471 1471 603
Width: 0
VWidth: 0
Flags: W
LayerCount: 3
Fore
SplineSet
540 1546 m 1
 125 1546 l 1
 125 1661 l 1
 540 1661 l 1
 540 1546 l 1
332.5 987 m 0
EndSplineSet
EndChar

StartChar: rafe-hb.001
Encoding: 65569 -1 604
Width: 0
VWidth: 0
Flags: W
LayerCount: 3
Fore
SplineSet
540 1546 m 1
 125 1546 l 1
 125 1661 l 1
 540 1661 l 1
 540 1546 l 1
332.5 987 m 0
EndSplineSet
EndChar

StartChar: registered
Encoding: 174 174 608
Width: 284
VWidth: 0
Flags: W
LayerCount: 3
Fore
SplineSet
279 648 m 0
 279 563 222 507 137 507 c 0
 58 507 5 563 5 647 c 0
 5 734 59 792 140 792 c 0
 223 792 279 734 279 648 c 0
140 773 m 0
 73 773 29 724 29 651 c 0
 29 577 73 527 139 527 c 0
 208 527 256 574 256 645 c 0
 256 722 208 773 140 773 c 0
142 657 m 2
 156 657 163 671 163 689 c 0
 163 708 149 718 130 718 c 0
 126 718 121 717 121 717 c 1
 121 657 l 1
 142 657 l 2
193 694 m 0
 193 679 183 664 160 654 c 1
 184 621 l 2
 195 605 204 595 219 589 c 1
 223 588 l 1
 220 577 l 1
 214 575 210 575 205 575 c 0
 186 575 171 589 160 608 c 2
 140 642 l 1
 121 642 l 1
 121 594 l 1
 142 588 l 1
 141 577 l 1
 71 577 l 1
 72 588 l 1
 94 593 l 1
 94 713 l 1
 72 717 l 1
 73 728 l 1
 93 730 113 732 127 732 c 0
 174 732 193 719 193 694 c 0
EndSplineSet
EndChar

StartChar: resh-hb
Encoding: 1512 1512 609
Width: 506
VWidth: 0
Flags: W
LayerCount: 3
Fore
SplineSet
398 5 m 1
 420 -10 l 1
 478 0 l 1
 471.938 48.065 469 118 468 162 c 2
 462 414 l 2
 460 505 440 533 397 533 c 2
 117 533 l 1
 91 597 l 1
 47 591 l 1
 38 457 l 1
 53 435 l 1
 376 436 l 2
 398 436 411 428 410 389 c 2
 398 5 l 1
253 265 m 0
20 0 m 0
253 530 m 0
20 530 m 0
253 0 m 0
EndSplineSet
EndChar

StartChar: reviamugrash-hb
Encoding: 1431 1431 611
Width: 0
VWidth: 0
Flags: W
LayerCount: 3
Fore
SplineSet
363 1866 m 1
 181 1684 l 1
 2 1866 l 1
 181 2050 l 1
 363 1866 l 1
182.5 987 m 0
EndSplineSet
EndChar

StartChar: ring
Encoding: 730 730 615
Width: 333
VWidth: 0
Flags: W
LayerCount: 3
Fore
SplineSet
167 1000 m 0
 131 1000 115 966 115 932 c 0
 115 895 134 854 173 854 c 0
 206 854 225 879 225 923 c 0
 225 961 205 1000 167 1000 c 0
174 1029 m 0
 232 1029 268 988 268 931 c 0
 268 876 228 825 166 825 c 0
 110 825 72 863 72 925 c 0
 72 981 117 1029 174 1029 c 0
168 750 m 0
EndSplineSet
EndChar

StartChar: s
Encoding: 115 115 618
Width: 418
VWidth: 0
Flags: HW
LayerCount: 3
Fore
SplineSet
287 356 m 5
 282 382 l 6
 265 472 228 494 192 494 c 4
 149 494 124 459 124 420 c 4
 124 312.981 390 297 390 131 c 4
 390 41 296 -21 203 -21 c 4
 95 -21 28 30 28 85 c 4
 28 126 58 161 108 165 c 5
 134 80 176 39 222 39 c 4
 265 39 302 52.9561 302 98 c 4
 302 185.092 42 208 42 376 c 4
 42 446 100.963 546 223 546 c 7
 302 546 371 512.067 371 445 c 7
 371 394.84 340 360 287 356 c 5
231 0 m 4
209 530 m 4
EndSplineSet
EndChar

StartChar: samekh-hb
Encoding: 1505 1505 620
Width: 506
VWidth: 0
Flags: W
LayerCount: 3
Fore
SplineSet
237 98 m 1
 318 98 l 1
 394 120 451 158 451 284 c 0
 451 404.416 414 436 296 436 c 2
 155 436 l 1
 130 406 124 342.038 124 290 c 0
 124 197.951 192 114 237 98 c 1
201 0 m 1
 122 42 70 141.294 70 252 c 0
 70 332.156 88 394 114 426 c 1
 114 434 l 1
 76 434 l 1
 65 445 l 1
 71 591 l 1
 116 597 l 1
 137 533 l 1
 334 533 l 2
 447 533 506 446 506 316 c 0
 506 180 460 66 334 0 c 1
 201 0 l 1
253 265 m 0
20 0 m 0
253 530 m 0
20 530 m 0
253 0 m 0
EndSplineSet
EndChar

StartChar: section
Encoding: 167 167 628
Width: 445
VWidth: 0
Flags: W
LayerCount: 3
Fore
SplineSet
50 479 m 1
 276 345 l 2
 346 304 418 256 418 174 c 0
 418 61 309 -10 197 -10 c 0
 127 -10 70 17 31 62 c 1
 38 193 l 1
 83 187 l 1
 106 93 l 1
 129 61 166 38 204 38 c 0
 255 38 327 61 327 143 c 0
 327 247 49 269 49 452 c 0
 49 459 49 474 50 479 c 1
415 285 m 1
 220 397 l 1
 142 443 50 490 50 595 c 0
 50 709 141 760 236 760 c 0
 278 760 334 749 378 709 c 1
 378 705 370 571 370 571 c 1
 328 579 l 1
 305 674 l 1
 301 685 264 718 222 718 c 0
 173 718 139 693 139 630 c 0
 139 491 419 480 419 316 c 0
 419 303 418 296 415 285 c 1
EndSplineSet
EndChar

StartChar: segol-hb
Encoding: 1462 1462 629
Width: 0
VWidth: 0
Flags: W
LayerCount: 3
Fore
SplineSet
432 -298 m 1
 369 -359 l 1
 309 -298 l 1
 369 -236 l 1
 398.333 -248.333 419.333 -269 432 -298 c 1
208 -298 m 1
 146 -359 l 1
 86 -298 l 1
 146 -236 l 1
 175.333 -248 196 -268.667 208 -298 c 1
320 -505 m 1
 258 -567 l 1
 198 -505 l 1
 258 -445 l 1
 287.333 -456.667 308 -476.667 320 -505 c 1
259 0 m 0
EndSplineSet
EndChar

StartChar: segol-hb.001
Encoding: 65570 -1 630
Width: 0
VWidth: 0
Flags: W
LayerCount: 3
Fore
SplineSet
518 -246 m 1
 424 -338 l 1
 334 -246 l 1
 424 -154 l 1
 468 -172 499.333 -202.667 518 -246 c 1
182 -246 m 1
 90 -338 l 1
 0 -246 l 1
 90 -154 l 1
 133.333 -171.667 164 -202.333 182 -246 c 1
350 -557 m 1
 258 -649 l 1
 168 -557 l 1
 258 -467 l 1
 301.667 -484.333 332.333 -514.333 350 -557 c 1
259 0 m 0
EndSplineSet
EndChar

StartChar: segol-hb.002
Encoding: 65571 -1 631
Width: 0
VWidth: 0
Flags: W
LayerCount: 3
Fore
SplineSet
518 -246 m 1
 424 -338 l 1
 334 -246 l 1
 424 -154 l 1
 468 -172 499.333 -202.667 518 -246 c 1
182 -246 m 1
 90 -338 l 1
 0 -246 l 1
 90 -154 l 1
 133.333 -171.667 164 -202.333 182 -246 c 1
350 -557 m 1
 258 -649 l 1
 168 -557 l 1
 258 -467 l 1
 301.667 -484.333 332.333 -514.333 350 -557 c 1
259 0 m 0
EndSplineSet
EndChar

StartChar: segolta-hb
Encoding: 1426 1426 632
Width: 0
VWidth: 0
Flags: W
LayerCount: 3
Fore
SplineSet
352 1950 m 1
 260 1860 l 1
 168 1950 l 1
 260 2042 l 1
 303.333 2024 334 1993.33 352 1950 c 1
520 1636 m 1
 426 1546 l 1
 334 1636 l 1
 426 1729 l 1
 470 1710.67 501.333 1679.67 520 1636 c 1
185 1638 m 1
 92 1546 l 1
 0 1638 l 1
 92 1731 l 1
 135.333 1712.33 166.333 1681.33 185 1638 c 1
260 987 m 0
EndSplineSet
EndChar

StartChar: seven
Encoding: 55 55 634
Width: 609
VWidth: 0
Flags: W
HStem: 541 21G<81 130.47> 624 92<154 465>
LayerCount: 3
Back
SplineSet
206 336 m 5
 174 311 140 248 140 184 c 4
 140 112 188 40 252 40 c 4
 320 40 366 80 366 161 c 4
 366 226 294 281 206 336 c 5
40 170 m 4
 40 238 84 302 171 357 c 5
 171 362 l 5
 126 389 67 456 67 537 c 4
 67 639 153 727 259 727 c 4
 363 727 430 662 430 571 c 4
 430 500 400 443 330 391 c 5
 329 385 l 5
 418 329 462 261 462 187 c 4
 462 76 364 -16 225 -16 c 4
 114 -16 40 54 40 170 c 4
289 410 m 5
 314 437 341 472 341 549 c 4
 341 614 307 681 243 681 c 4
 195 681 158 641 158 592 c 4
 158 526 204 459 289 410 c 5
EndSplineSet
Fore
SplineSet
465 624 m 17
 154 624 l 1
 123 541 l 1
 81 549 l 1
 96 716 l 1
 564 716 l 1
 564 684 l 1
 304 -20 l 25
 247 -2 l 25
 465 624 l 17
EndSplineSet
EndChar

StartChar: shalshelet-hb
Encoding: 1427 1427 635
Width: 0
VWidth: 0
Flags: W
LayerCount: 3
Fore
SplineSet
344 1548 m 1
 0 1548 l 1
 199 1714 l 1
 0 1714 l 1
 199 1878 l 1
 0 1878 l 1
 301 2132 l 1
 344 2132 l 1
 143 1964 l 1
 344 1964 l 1
 147 1798 l 1
 344 1798 l 1
 147 1632 l 1
 344 1632 l 1
 344 1548 l 1
172 987 m 0
EndSplineSet
EndChar

StartChar: sheva-hb
Encoding: 1456 1456 636
Width: 0
VWidth: 0
Flags: W
LayerCount: 3
Fore
SplineSet
156 -297 m 1
 93 -359 l 1
 31 -297 l 1
 93 -236 l 1
 122.333 -248 143.333 -268.333 156 -297 c 1
156 -505 m 1
 93 -567 l 1
 31 -505 l 1
 93 -445 l 1
 122.333 -456.667 143.333 -476.667 156 -505 c 1
93.5 0 m 0
EndSplineSet
EndChar

StartChar: sheva-hb.001
Encoding: 65572 -1 637
Width: 0
VWidth: 0
Flags: W
LayerCount: 3
Fore
SplineSet
187 -244 m 1
 92 -338 l 1
 0 -244 l 1
 92 -154 l 1
 136.333 -171.667 168 -201.667 187 -244 c 1
187 -557 m 1
 92 -649 l 1
 0 -557 l 1
 92 -467 l 1
 136.333 -484.333 168 -514.333 187 -557 c 1
93.5 0 m 0
EndSplineSet
EndChar

StartChar: shin-hb
Encoding: 1513 1513 638
Width: 556
VWidth: 0
Flags: W
LayerCount: 3
Fore
SplineSet
249 590 m 1
 290 593 l 1
 310 539 l 1
 358 520 l 1
 369 499 l 1
 351 414 l 1
 344 413 l 1
 266.551 438.487 l 1
 176 81 l 1
 137 81 l 1
 249 590 l 1
498 379 m 0
 498 402 483 417 458 426 c 2
 404 445 l 1
 393 459 l 1
 409 586 l 1
 445 592 l 1
 466 537 l 1
 488 527 l 2
 524 510 544 492 544 449 c 0
 544 314.985 440 96 395 15 c 1
 100 -6 l 1
 90.475 2.902 86.755 7.785 84 12 c 1
 84 12 58 169 58 271 c 0
 58 333 75 394 105 422 c 1
 105 436 l 1
 145 423 l 1
 120 398 106 366.036 106 310 c 0
 106 257.99 129 150 148 92 c 1
 372 110 l 1
 424 154 498 332.61 498 379 c 0
167 408 m 1
 119 425.89 l 1
 116 424.682 l 1
 54 448 l 1
 38 466 l 1
 56 591 l 1
 96 594 l 1
 116 542 l 1
 179 516 l 1
 194 497 l 1
 172.258 410 l 1
 167 408 l 1
536 530 m 0
20 0 m 0
278 530 m 0
278 265 m 0
20 530 m 0
278 0 m 0
EndSplineSet
EndChar

StartChar: shindot-hb
Encoding: 1473 1473 642
Width: 2
VWidth: 0
Flags: W
LayerCount: 3
Fore
SplineSet
1289 1638 m 1
 1226 1577 l 1
 1164 1638 l 1
 1226 1699 l 1
 1255.33 1687 1276.33 1666.67 1289 1638 c 1
1 987 m 0
EndSplineSet
EndChar

StartChar: shindot-hb.001
Encoding: 65573 -1 643
Width: 2
VWidth: 0
Flags: W
LayerCount: 3
Fore
SplineSet
1320 1638 m 1
 1225 1546 l 1
 1133 1638 l 1
 1225 1729 l 1
 1269.33 1711 1301 1680.67 1320 1638 c 1
1 987 m 0
EndSplineSet
EndChar

StartChar: shindot-hb.002
Encoding: 65574 -1 644
Width: 2
VWidth: 0
Flags: W
LayerCount: 3
Fore
SplineSet
1320 1638 m 1
 1225 1546 l 1
 1133 1638 l 1
 1225 1729 l 1
 1269.33 1711 1301 1680.67 1320 1638 c 1
1 987 m 0
EndSplineSet
EndChar

StartChar: siluqleft-hb
Encoding: 1469 1469 648
Width: 0
VWidth: 0
Flags: W
LayerCount: 3
Fore
SplineSet
117 -649 m 1
 0 -649 l 1
 0 -154 l 1
 117 -154 l 1
 117 -649 l 1
58.5 0 m 0
EndSplineSet
EndChar

StartChar: siluqleft-hb.001
Encoding: 65575 -1 649
Width: 0
VWidth: 0
Flags: W
LayerCount: 3
Fore
SplineSet
117 -649 m 1
 0 -649 l 1
 0 -154 l 1
 117 -154 l 1
 117 -649 l 1
58.5 0 m 0
EndSplineSet
EndChar

StartChar: sindot-hb
Encoding: 1474 1474 650
Width: 2
VWidth: 0
Flags: W
LayerCount: 3
Fore
SplineSet
349 1638 m 1
 286 1577 l 1
 224 1638 l 1
 286 1699 l 1
 315.333 1687 336.333 1666.67 349 1638 c 1
286.5 987 m 0
EndSplineSet
EndChar

StartChar: sindot-hb.001
Encoding: 65576 -1 651
Width: 2
VWidth: 0
Flags: W
LayerCount: 3
Fore
SplineSet
380 1638 m 1
 285 1546 l 1
 193 1638 l 1
 285 1729 l 1
 329.333 1711 361 1680.67 380 1638 c 1
286.5 987 m 0
EndSplineSet
EndChar

StartChar: sindot-hb.002
Encoding: 65577 -1 652
Width: 2
VWidth: 0
Flags: W
LayerCount: 3
Fore
SplineSet
380 1638 m 1
 285 1546 l 1
 193 1638 l 1
 285 1729 l 1
 329.333 1711 361 1680.67 380 1638 c 1
286.5 987 m 0
EndSplineSet
EndChar

StartChar: six
Encoding: 54 54 653
Width: 609
VWidth: 0
Flags: W
HStem: -13 50<252.066 384.45> 367 62<249.377 369.153> 700 35<431.683 443.006>
VStem: 70.5 113<130.17 348.43> 434.5 110<122.038 294.122>
LayerCount: 3
Back
SplineSet
206 336 m 5
 174 311 140 248 140 184 c 4
 140 112 188 40 252 40 c 4
 320 40 366 80 366 161 c 4
 366 226 294 281 206 336 c 5
40 170 m 4
 40 238 84 302 171 357 c 5
 171 362 l 5
 126 389 67 456 67 537 c 4
 67 639 153 727 259 727 c 4
 363 727 430 662 430 571 c 4
 430 500 400 443 330 391 c 5
 329 385 l 5
 418 329 462 261 462 187 c 4
 462 76 364 -16 225 -16 c 4
 114 -16 40 54 40 170 c 4
289 410 m 5
 314 437 341 472 341 549 c 4
 341 614 307 681 243 681 c 4
 195 681 158 641 158 592 c 4
 158 526 204 459 289 410 c 5
EndSplineSet
Fore
SplineSet
189.5 369 m 1
 195.5 369 l 1
 222.5 400 282.5 429 347.5 429 c 3
 465.5 429 544.5 324 544.5 214 c 3
 544.5 90 432.687 -13 301.5 -13 c 3
 136.473 -13 70.5 113 70.5 255 c 3
 70.5 458 247.5 673 438.5 735 c 1
 460.5 700 l 1
 302.5 628 213.5 489 189.5 369 c 1
306.5 37 m 3
 404.628 37 434.5 105 434.5 198 c 3
 434.5 280 389.5 367 303.5 367 c 3
 258.5 367 202.5 341 187.5 319 c 1
 185.5 299 183.5 267 183.5 246 c 3
 183.5 143 232.493 37 306.5 37 c 3
EndSplineSet
EndChar

StartChar: slash
Encoding: 47 47 654
Width: 332
VWidth: 0
Flags: W
LayerCount: 3
Fore
SplineSet
266 748 m 1
 346 753 l 1
 64 -215 l 1
 -14 -220 l 1
 266 748 l 1
EndSplineSet
EndChar

StartChar: smallOE
Encoding: 630 630 661
Width: 878
VWidth: 0
Flags: W
LayerCount: 3
Fore
SplineSet
834 95 m 1
 771 61 740 57 697 57 c 0
 584 57 533 175 528 270 c 1
 821 273 l 1
 826 294 831 326 831 352 c 0
 831 480 757 544 669 544 c 0
 605.489 544 529 503 480 446 c 1
 439 504 382.968 547 302 547 c 0
 167 547 38 442 38 258 c 0
 38 102 127 -16 287 -16 c 0
 361.53 -16 435 24 481 79 c 1
 525 20 582.994 -18 648 -18 c 0
 728 -18 799 13 847 63 c 1
 834 95 l 1
529 319 m 1
 535 437 590 485 639 485 c 0
 697 485 723 444 723 372 c 0
 723 362 722 342 719 332 c 1
 529 319 l 1
146 301 m 0
 146 396 185 483 276 483 c 0
 391 483 433 337 433 217 c 0
 433 132 393 43 308 43 c 0
 189 43 146 176 146 301 c 0
EndSplineSet
EndChar

StartChar: softhyphen
Encoding: 173 173 664
Width: 345
VWidth: 0
Flags: W
LayerCount: 3
Fore
SplineSet
53 316 m 1
 300 352 l 1
 295 282 l 1
 48 246 l 1
 53 316 l 1
EndSplineSet
EndChar

StartChar: sterling
Encoding: 163 163 666
Width: 645
VWidth: 0
Flags: W
LayerCount: 3
Fore
SplineSet
546 733 m 1
 527 542 l 1
 475 550 l 1
 450 679 l 1
 437 686 421 693 399 693 c 0
 298 693 278 628 274 426 c 1
 274 397 l 1
 407 405 l 1
 400 344 l 1
 273 336 l 1
 272 312 l 1
 270 216 264 119 235 60 c 1
 514 58 l 1
 593 211 l 1
 645 200 l 1
 622 0 l 1
 23 0 l 1
 28 45 l 1
 129 73 l 1
 148 134 151 189 153 279 c 2
 154 332 l 1
 46 326 l 1
 53 387 l 1
 156 393 l 1
 158 476 l 1
 164 671 268 757 405 757 c 0
 454 757 498 753 546 733 c 1
EndSplineSet
EndChar

StartChar: summation
Encoding: 8721 8721 667
Width: 651
VWidth: 0
Flags: W
LayerCount: 3
Fore
SplineSet
25 753 m 1
 624 753 l 1
 605 560 l 1
 553 568 l 1
 528 698 l 1
 162 698 l 1
 414 412 l 1
 412 384 l 1
 155 98 l 1
 533 98 l 1
 592 237 l 1
 642 230 l 1
 624 0 l 1
 24 0 l 1
 24 45 l 1
 314 367 l 1
 314 374 l 1
 18 717 l 1
 25 753 l 1
EndSplineSet
EndChar

StartChar: t
Encoding: 116 116 668
Width: 384
VWidth: 0
Flags: W
LayerCount: 3
Fore
SplineSet
166 659 m 1
 198 659 l 1
 198 526 l 1
 369 526 l 1
 364 473 l 1
 197 473 l 1
 195 197 l 1
 195 193 l 2
 195 102 222 74 284 74 c 0
 329 74 371 108 371 108 c 1
 384 75 l 1
 347 21 289 -14 220 -14 c 0
 146 -14 91 22 91 157 c 2
 91 176 l 1
 93 474 l 1
 16 474 l 1
 16 507 l 1
 66 546 123 605 166 659 c 1
222 0 m 0
194 265 m 0
EndSplineSet
EndChar

StartChar: tav-hb
Encoding: 1514 1514 669
Width: 506
VWidth: 0
Flags: W
LayerCount: 3
Fore
SplineSet
73 66 m 1
 89 108 54 205.992 54 268 c 0
 54 327 64 378 96 430 c 1
 96 443 l 1
 140 444 l 1
 125 425 103 358 103 314 c 0
 103 235 179 160 179 68 c 0
 179 42 171 28 160 1 c 1
 36 0 l 1
 25 43 l 1
 73 66 l 1
410 10 m 1
 410 389 l 2
 410 428 398 436 376 436 c 2
 53 435 l 1
 38 457 l 1
 47 591 l 1
 91 597 l 1
 117 533 l 1
 397 533 l 2
 440 533 457 505 462 414 c 2
 476 176 l 2
 479.062 123.945 485 33 487 5 c 1
 431 -5 l 1
 410 10 l 1
253 265 m 0
20 0 m 0
253 530 m 0
20 530 m 0
253 0 m 0
EndSplineSet
EndChar

StartChar: tcaron
Encoding: 357 357 671
Width: 597
VWidth: 0
Flags: W
LayerCount: 3
Fore
SplineSet
389 496 m 1
 468 517 499 562 499 601 c 0
 499 635 472 666 429 666 c 0
 423 666 417 666 411 665 c 1
 406 678 402 689 402 703 c 0
 402 752 445 776 476 776 c 0
 518 776 582 741 582 650 c 0
 582 593 562 496 403 454 c 1
 389 496 l 1
EndSplineSet
Refer: 668 116 N 1 0 0 1 0 0 2
EndChar

StartChar: telishagedola-hb
Encoding: 1440 1440 676
Width: 0
VWidth: 0
Flags: W
LayerCount: 3
Fore
SplineSet
171 1774 m 1
 110 1542 l 1
 79 1550 l 1
 141 1782 l 1
 5 1976 l 1
 212 2181 l 1
 417 1976 l 1
 212 1769 l 1
 201.333 1769 187.667 1770.67 171 1774 c 1
386 1976 m 0
 386 2024.67 369 2066.17 335 2100.5 c 1
 212 2152 l 1
 164 2152 122.667 2134.83 88 2100.5 c 1
 36 1976 l 1
 36 1928 53.3333 1886.67 88 1852 c 1
 212 1800 l 1
 260 1800 301 1817.33 335 1852 c 0
 369 1886.67 386 1928 386 1976 c 0
211 987 m 0
EndSplineSet
EndChar

StartChar: telishaqetana-hb
Encoding: 1449 1449 677
Width: 0
VWidth: 0
Flags: W
LayerCount: 3
Fore
SplineSet
342 1550 m 1
 311 1542 l 1
 250 1774 l 1
 213 1769 l 1
 8 1976 l 1
 213 2181 l 1
 420 1976 l 1
 280 1782 l 1
 342 1550 l 1
389 1976 m 1
 213 2152 l 1
 39 1976 l 1
 213 1800 l 1
 295.667 1834.67 354.333 1893.33 389 1976 c 1
214 0 m 0
EndSplineSet
EndChar

StartChar: tet-hb
Encoding: 1496 1496 679
Width: 504
VWidth: 0
Flags: W
LayerCount: 3
Fore
SplineSet
194 394 m 1
 119 425.89 l 1
 116 424.682 l 1
 54 448 l 1
 38 466 l 1
 56 591 l 1
 96 594 l 1
 116 542 l 1
 206 502 l 1
 214 483 l 1
 199.258 396 l 1
 194 394 l 1
328 436 m 1
 292 416 275 320 270 280 c 1
 227 275 l 1
 272 551.245 l 1
 279.008 554.326 286.969 556 296 556 c 0
 406 556 499 472 499 362 c 0
 499 217 440 82 405 3 c 1
 100 -10 l 1
 84 8 l 1
 84 8 58 168 58 271 c 0
 58 333 75 394 105 422 c 1
 105 436 l 1
 145 423 l 1
 120 398 106 366.036 106 310 c 0
 106 257.99 129 146 148 88 c 1
 361 98 l 1
 396 125 450 223.678 450 318 c 0
 450 384 386 436 328 436 c 1
252 265 m 0
20 0 m 0
252 530 m 0
20 530 m 0
252 0 m 0
EndSplineSet
EndChar

StartChar: tevirleft-hb
Encoding: 1435 1435 681
Width: 0
VWidth: 0
Flags: W
LayerCount: 3
Fore
SplineSet
445 -203 m 1
 225 -672 l 1
 119 -623 l 1
 338 -154 l 1
 445 -203 l 1
184 -244 m 1
 90 -338 l 1
 0 -244 l 1
 90 -154 l 1
 134.333 -171.667 165.667 -201.667 184 -244 c 1
222.5 987 m 0
EndSplineSet
EndChar

StartChar: thorn
Encoding: 254 254 684
Width: 609
VWidth: 0
Flags: W
LayerCount: 3
Fore
SplineSet
108 677 m 1
 16 709 l 1
 24 755 l 1
 195 768 l 1
 210 754 l 1
 210 514 l 1
 201 451 l 1
 208 451 l 1
 244 491 291 543 371 543 c 0
 474 543 557 449 557 284 c 0
 557 115 447 -8 306 -8 c 0
 286 -8 265 -6 245 1 c 1
 243 62 l 1
 261 58 279 56 296 56 c 0
 423 56 443 158 443 247 c 0
 443 391 404 464 328 464 c 0
 276 464 235 437 208 409 c 1
 208 -152 l 1
 302 -173 l 1
 295 -222 l 1
 12 -222 l 1
 17 -174 l 1
 109 -152 l 1
 108 677 l 1
EndSplineSet
EndChar

StartChar: three
Encoding: 51 51 685
Width: 609
VWidth: 0
Flags: HW
HStem: -18 53<199.034 342.624> 654 80<215.59 336.518>
VStem: 101 45<575.451 603.078> 372 108<495.757 618.553> 400 108<123.898 249.582>
LayerCount: 3
Fore
SplineSet
142 129 m 1xe8
 146 103 198 35 256 35 c 3
 377.004 35 400 115.805 400 180 c 3xe8
 400 250 329 335 216 335 c 2
 206 335 l 1
 200 375 l 1
 224 383 372 439 372 549 c 3
 372 602 344.647 654 267 654 c 3
 202 654 169 617 146 562 c 1
 101 578 l 1
 113 642 197 734 305 734 c 3
 397 734 480 670 480 582 c 3xf0
 480 484 410 425 337 398 c 1
 337 391 l 1
 445 376 508 294 508 216 c 3
 508 83.9658 384 -18 224 -18 c 3
 119 -18 65 26 65 66 c 3
 65 96 92 124 142 129 c 1xe8
EndSplineSet
EndChar

StartChar: threequarters
Encoding: 190 190 686
Width: 640
VWidth: 0
Flags: W
LayerCount: 3
Fore
SplineSet
509 581 m 1
 573 586 l 1
 158 -13 l 1
 91 -18 l 1
 509 581 l 1
494 90 m 1
 494 236 l 1
 392 90 l 1
 494 90 l 1
491 280 m 1
 544 289 l 1
 544 92 l 1
 600 92 l 1
 595 52 l 1
 544 52 l 1
 544 -35 l 1
 596 -45 l 1
 594 -70 l 1
 444 -70 l 1
 447 -47 l 1
 494 -33 l 1
 494 52 l 1
 355 52 l 1
 350 84 l 1
 491 280 l 1
168 513 m 0
 168 540 151 564 124 564 c 0
 104 564 85 546 84 494 c 1
 59 496 44 504 44 524 c 0
 44 572 108 597 141 597 c 0
 187 597 218 564 218 526 c 0
 218 486 194 448 160 429 c 1
 160 424 l 1
 208 411 234 374 234 334 c 0
 234 283 194 230 131 230 c 0
 59 230 40 264 40 288 c 0
 40 312 68 320 80 322 c 1
 86 292 90 262 126 262 c 0
 163 262 182 290 182 326 c 0
 182 362 154 399 116 399 c 0
 106 399 92 398 80 398 c 1
 78 406 76 414 76 424 c 2
 76 426 l 1
 84 430 168 442 168 513 c 0
EndSplineSet
EndChar

StartChar: threesuperior
Encoding: 179 179 687
Width: 364
VWidth: 0
Flags: W
LayerCount: 3
Fore
SplineSet
100 737 m 0
 100 753 90 768 73 768 c 0
 62 768 50 757 50 726 c 1
 34 727 25 732 25 744 c 0
 25 772 64 788 84 788 c 0
 111 788 130 767 130 745 c 0
 130 721 115 698 95 687 c 1
 95 684 l 1
 124 676 140 653 140 630 c 0
 140 599 115 568 78 568 c 0
 34 568 23 588 23 602 c 0
 23 616 40 622 47 623 c 1
 50 604 53 586 75 586 c 0
 97 586 108 604 108 625 c 0
 108 646 92 669 69 669 c 0
 63 669 54 668 47 668 c 1
 46 673 44 678 44 684 c 2
 44 685 l 1
 50 687 100 695 100 737 c 0
EndSplineSet
EndChar

StartChar: tilde
Encoding: 732 732 688
Width: 432
VWidth: 0
Flags: W
LayerCount: 3
Fore
SplineSet
75 835 m 1
 75 835 97 930 157 921 c 2
 292 903 l 2
 308 900 328 928 328 928 c 1
 357 927 l 1
 357 927 333 832 271 840 c 2
 136 859 l 2
 118 861 98 830 98 830 c 1
 75 835 l 1
216 750 m 0
EndSplineSet
EndChar

StartChar: tipehaleft-hb
Encoding: 1430 1430 689
Width: 0
VWidth: 0
Flags: W
LayerCount: 3
Fore
SplineSet
320 -623 m 1
 216 -672 l 1
 -3 -203 l 1
 101 -154 l 1
 320 -623 l 1
158.5 0 m 0
EndSplineSet
EndChar

StartChar: trademark
Encoding: 8482 8482 691
Width: 481
VWidth: 0
Flags: W
LayerCount: 3
Fore
SplineSet
0 798 m 1
 178 798 l 1
 172 742 l 1
 154 744 l 1
 148 781 l 1
 107 781 l 1
 107 621 l 1
 137 616 l 1
 135 600 l 1
 39 600 l 1
 40 615 l 1
 67 622 l 1
 67 781 l 1
 28 781 l 1
 19 742 l 1
 2 744 l 1
 0 798 l 1
304 605 m 1
 249 754 l 1
 239 621 l 1
 268 616 l 1
 266 600 l 1
 186 600 l 1
 187 615 l 1
 214 622 l 1
 226 777 l 1
 196 783 l 1
 198 798 l 1
 273 798 l 1
 286 767 l 1
 327 649 l 1
 377 773 l 1
 388 798 l 1
 462 798 l 1
 460 783 l 1
 433 777 l 1
 442 621 l 1
 471 616 l 1
 469 600 l 1
 377 600 l 1
 379 615 l 1
 405 622 l 1
 396 760 l 1
 335 608 l 1
 304 605 l 1
EndSplineSet
EndChar

StartChar: tsadi-hb
Encoding: 1510 1510 693
Width: 588
VWidth: 0
Flags: W
LayerCount: 3
Fore
SplineSet
351 243 m 1
 310 275 l 1
 332 275 l 1
 400.244 396.213 l 1
 413.745 417.777 412.244 431.213 406.935 434.338 c 2
 323.828 479.061 l 1
 318.814 496.145 l 1
 370.69 599.726 l 1
 402.244 594.213 l 1
 404.244 558.213 l 1
 458 527 l 2
 484.244 512.213 504.244 478.213 452.244 402.213 c 1
 351 243 l 1
464 10 m 1
 44 -10 l 1
 28 8 l 1
 48 88 l 1
 376 104 l 1
 377 109 l 1
 246 244 l 2
 201 291 190 312 190 366 c 0
 190 424.034 169.997 436.286 144 436 c 2
 53 435 l 1
 38 457 l 1
 47 591 l 1
 91 597 l 1
 117 533 l 1
 155 533 l 2
 198 533 228 490 228 446 c 0
 228 379.97 230 358 268 324 c 2
 442 170 l 1
 472.979 144.184 492 118.174 492 72 c 0
 492 44 474 22 464 10 c 1
294 265 m 0
20 0 m 0
294 530 m 0
20 530 m 0
294 0 m 0
EndSplineSet
EndChar

StartChar: tsadi-hb.fina
Encoding: 1509 1509 694
Width: 588
VWidth: 0
Flags: W
LayerCount: 3
Fore
SplineSet
210 -19 m 0
 213.544 -102 218.938 -183 225 -231 c 1
 167 -241 l 1
 145 -226 l 1
 152 245 l 2
 152 266 152.955 278 156 298 c 2
 164 372 l 2
 167 404 140 420 116.396 426.521 c 2
 61.536 442.027 l 1
 50.666 456.129 l 1
 61.793 578.032 l 1
 96.83 581.708 l 1
 116.366 531.525 l 1
 157.245 518.146 l 2
 189.15 507.852 210.327 490.931 206 408 c 2
 200 293 l 2
 196.142 219.045 205 98 210 -19 c 0
200 95 m 1
 185 203 l 1
 207 203 l 1
 334.244 382.213 l 2
 349 403 346.244 417.213 340.935 420.338 c 2
 257.828 465.061 l 1
 252.814 482.145 l 1
 304.69 585.726 l 1
 336.244 580.213 l 1
 338.244 544.213 l 1
 392 513 l 2
 418.244 498.213 440 462 386.244 388.213 c 2
 243.396 191 l 2
 218.181 157.872 212.716 133.445 200 95 c 1
294 265 m 0
20 0 m 0
294 530 m 0
20 530 m 0
294 0 m 0
EndSplineSet
EndChar

StartChar: tsere-hb
Encoding: 1461 1461 696
Width: 0
VWidth: 0
Flags: W
LayerCount: 3
Fore
SplineSet
432 -246 m 1
 369 -307 l 1
 309 -246 l 1
 369 -185 l 1
 398.333 -197 419.333 -217.333 432 -246 c 1
208 -246 m 1
 146 -307 l 1
 86 -246 l 1
 146 -185 l 1
 175.333 -196.667 196 -217 208 -246 c 1
259 0 m 0
EndSplineSet
EndChar

StartChar: tsere-hb.001
Encoding: 65578 -1 697
Width: 0
VWidth: 0
Flags: W
LayerCount: 3
Fore
SplineSet
518 -246 m 1
 424 -338 l 1
 334 -246 l 1
 424 -154 l 1
 468 -172 499.333 -202.667 518 -246 c 1
182 -246 m 1
 90 -338 l 1
 0 -246 l 1
 90 -154 l 1
 133.333 -171.667 164 -202.333 182 -246 c 1
259 0 m 0
EndSplineSet
EndChar

StartChar: two
Encoding: 50 50 698
Width: 609
VWidth: 0
Flags: W
HStem: 0 84<172.5 453.5> 650 82<228.585 362.821>
VStem: 76.5 50<511.42 542.12> 410.5 109<424.878 598.31>
LayerCount: 3
Back
SplineSet
555 0 m 1
 52.5 0 l 1
 47.5 77.5 l 1
 240 227.5 l 2
 367.5 327.5 393.75 425 393.75 498.75 c 0
 393.75 581.25 352.5 632.5 280 632.5 c 0
 195 632.5 137.5 535 117.5 492.5 c 1
 61.25 515 l 1
 73.75 587.5 175 731.25 332.5 731.25 c 0
 443.75 731.25 530 651.25 530 532.5 c 0
 530 385 411.25 263.75 265 156.25 c 2
 195 105 l 1
 476.25 105 l 1
 535 210 l 1
 588.75 202.5 l 1
 555 0 l 1
EndSplineSet
Fore
SplineSet
520.5 0 m 1
 58.5 0 l 1
 54.5 62 l 1
 199.5 186 l 2
 298.249 270.447 410.5 375.666 410.5 497 c 3
 410.5 580.006 383.505 650 285.5 650 c 3
 200.907 650 153.5 564 126.5 496 c 1
 76.5 514 l 1
 100.5 616 195.5 732 321.5 732 c 3
 453.561 732 519.5 656 519.5 524 c 3
 519.5 351.953 320.172 225.388 219.5 129 c 2
 172.5 84 l 1
 453.5 84 l 1
 512.5 189 l 1
 554.5 183 l 1
 520.5 0 l 1
EndSplineSet
EndChar

StartChar: twosuperior
Encoding: 178 178 699
Width: 157
VWidth: 0
Flags: W
LayerCount: 3
Fore
SplineSet
48 724 m 1
 30 726 22 731 22 746 c 0
 22 767 56 788 79 788 c 0
 105 788 126 768 126 740 c 0
 126 706 109 691 73 659 c 2
 49 638 l 1
 129 638 l 1
 125 612 l 1
 18 612 l 1
 17 631 l 1
 69 683 l 2
 84 697 93 714 93 732 c 0
 93 752 85 768 67 768 c 0
 50 768 48 742 48 724 c 1
EndSplineSet
EndChar

StartChar: u
Encoding: 117 117 700
Width: 624
VWidth: 0
Flags: W
LayerCount: 3
Fore
SplineSet
413 79 m 1
 406 79 l 1
 364 17 305 -14 232 -14 c 0
 154 -14 97 32 97 162 c 2
 97 441 l 1
 14 474 l 1
 22 522 l 1
 185 535 l 1
 199 520 l 1
 199 192 l 2
 199 101 238 69 293 69 c 0
 348 69 380 89 406 116 c 1
 406 438 l 1
 309 463 l 1
 315 518 l 1
 493 535 l 1
 506 520 l 1
 506 130 l 2
 506 69 532 63 572 54 c 2
 599 48 l 1
 594 -3 l 1
 556 -12 538 -14 502 -14 c 0
 441 -14 413 24 413 74 c 2
 413 79 l 1
562 10 m 0
302 530 m 0
EndSplineSet
EndChar

StartChar: underscore
Encoding: 95 95 721
Width: 546
VWidth: 0
Flags: W
LayerCount: 3
Fore
SplineSet
25 -16 m 1
 527 -16 l 1
 520 -80 l 1
 18 -80 l 1
 25 -16 l 1
EndSplineSet
EndChar

StartChar: uniF001
Encoding: 61441 61441 796
Width: 718
VWidth: 0
Flags: W
LayerCount: 3
Fore
SplineSet
225 594 m 1
 224 529 l 1
 380 529 l 1
 372 475 l 1
 224 475 l 1
 224 73 l 1
 373 51 l 1
 368 0 l 1
 24 0 l 1
 31 44 l 1
 123 70 l 1
 123 475 l 1
 33 475 l 1
 40 519 l 1
 124 533 l 1
 144 708 259 790 345 790 c 0
 409 790 454 769 454 720 c 0
 454 690 420 660 400 652 c 1
 370 700 336 726 302 726 c 0
 257 726 228 698 225 594 c 1
EndSplineSet
Refer: 430 105 N 1 0 0 1 371 0 2
EndChar

StartChar: uniF002
Encoding: 61442 61442 797
Width: 708
VWidth: 0
Flags: W
LayerCount: 3
Fore
SplineSet
222 574 m 2
 224 529 l 1
 380 529 l 1
 372 475 l 1
 224 475 l 1
 224 73 l 1
 373 51 l 1
 368 0 l 1
 24 0 l 1
 31 44 l 1
 123 70 l 1
 123 475 l 1
 33 475 l 1
 40 519 l 1
 124 533 l 1
 126 699 245 789 302 789 c 0
 355 789 389 776 389 735 c 0
 389 711 368 688 350 678 c 1
 335 694 291 718 264 718 c 0
 233 718 221 679 221 609 c 0
 221 598 221 586 222 574 c 2
EndSplineSet
Refer: 458 108 N 1 0 0 1 371 0 2
EndChar

StartChar: uniFFF0
Encoding: 65520 65520 798
Width: 533
VWidth: 0
Flags: W
LayerCount: 3
Fore
SplineSet
319 246 m 1
 168 192 144 170 144 118 c 0
 144 99 167 64 196 64 c 0
 249 64 299 97 319 120 c 1
 319 246 l 1
428 -17 m 0
 372 -17 339 30 334 60 c 1
 331 73 l 1
 324 73 l 1
 318 24 237 -21 159 -21 c 0
 95 -21 45 32 45 106 c 0
 45 195 104 258 319 301 c 1
 319 328 l 2
 319 409 310 470 229 470 c 0
 198 470 176 457 163 383 c 1
 68 414 l 1
 78 469 136 539 269 539 c 0
 385 539 418 457 418 347 c 2
 418 125 l 2
 418 80 437 69 470 63 c 2
 506 56 l 1
 497 0 l 1
 481 -9 455 -17 428 -17 c 0
EndSplineSet
EndChar

StartChar: uniFFF2
Encoding: 65522 65522 799
Width: 658
VWidth: 0
Flags: W
LayerCount: 3
Fore
SplineSet
530 374 m 2
 532 52 l 1
 630 31 l 1
 628 0 l 1
 365 0 l 1
 368 28 l 1
 463 52 l 1
 463 350 l 2
 463 442 434 474 375 474 c 0
 308 474 242 439 215 413 c 1
 215 54 l 1
 319 32 l 1
 315 0 l 1
 42 0 l 1
 44 29 l 1
 145 54 l 1
 145 452 l 1
 42 469 l 1
 47 503 l 1
 206 527 l 1
 215 517 l 1
 209 451 l 1
 214 451 l 1
 244 490 325 541 401 541 c 0
 496 541 529 482 530 374 c 2
EndSplineSet
EndChar

StartChar: uniFFF3
Encoding: 65523 65523 800
Width: 658
VWidth: 0
Flags: W
LayerCount: 3
Fore
SplineSet
563 369 m 2
 563 75 l 1
 640 54 l 1
 634 0 l 1
 365 0 l 1
 372 50 l 1
 441 75 l 1
 441 343 l 2
 441 421 406 448 346 448 c 0
 302 448 260 438 236 418 c 1
 236 75 l 1
 327 54 l 1
 319 0 l 1
 28 0 l 1
 34 50 l 1
 114 75 l 1
 114 438 l 1
 29 469 l 1
 35 521 l 1
 222 545 l 1
 236 530 l 1
 226 460 l 1
 234 460 l 1
 262 499 331 553 407 553 c 0
 493 553 563 513 563 369 c 2
EndSplineSet
EndChar

StartChar: uniFFF4
Encoding: 65524 65524 801
Width: 658
VWidth: 0
Flags: W
LayerCount: 3
Fore
SplineSet
571 379 m 2
 571 75 l 1
 650 54 l 1
 644 0 l 1
 372 0 l 1
 379 50 l 1
 431 75 l 1
 431 332 l 2
 431 410 410 447 350 447 c 0
 306 447 265 438 246 428 c 1
 246 75 l 1
 333 54 l 1
 325 0 l 1
 18 0 l 1
 24 50 l 1
 105 75 l 1
 105 444 l 1
 14 475 l 1
 20 531 l 1
 232 555 l 1
 246 540 l 1
 236 478 l 1
 244 478 l 1
 272 517 336 563 412 563 c 0
 498 563 571 523 571 379 c 2
EndSplineSet
EndChar

StartChar: uniFFF5
Encoding: 65525 65525 802
Width: 658
VWidth: 0
Flags: W
LayerCount: 3
Fore
SplineSet
522 368 m 2
 524 44 l 1
 625 23 l 1
 623 0 l 1
 371 0 l 1
 374 20 l 1
 471 44 l 1
 471 344 l 2
 471 436 455 485 373 485 c 0
 301 485 237 430 207 400 c 1
 207 47 l 1
 312 25 l 1
 308 0 l 1
 47 0 l 1
 49 22 l 1
 153 47 l 1
 153 462 l 1
 48 477 l 1
 53 501 l 1
 199 522 l 1
 207 513 l 1
 201 437 l 1
 206 437 l 1
 235 471 319 532 395 532 c 0
 490 532 521 476 522 368 c 2
EndSplineSet
EndChar

StartChar: uniFFF7
Encoding: 65527 65527 803
Width: 658
VWidth: 0
Flags: W
LayerCount: 3
Fore
SplineSet
129 504 m 1
 229 519 l 1
 229 443 l 1
 236 443 l 1
 254 500 327 535 401 535 c 0
 499 535 549 479 549 364 c 2
 549 4 l 1
 447 -9 l 1
 447 337 l 2
 447 415 404 446 353 446 c 0
 306 446 257 420 231 391 c 1
 231 4 l 1
 129 -9 l 1
 129 504 l 1
EndSplineSet
EndChar

StartChar: uniFFF8
Encoding: 65528 65528 804
Width: 658
VWidth: 0
Flags: W
LayerCount: 3
Fore
SplineSet
129 512 m 1
 226 512 l 1
 226 443 l 1
 232 443 l 1
 252 502 318 535 386 535 c 0
 484 535 549 477 549 362 c 2
 549 0 l 1
 447 0 l 1
 447 337 l 2
 447 415 412 445 342 445 c 0
 280 445 231 408 231 340 c 2
 231 0 l 1
 129 0 l 1
 129 512 l 1
EndSplineSet
EndChar

StartChar: uniFFF9
Encoding: 65529 65529 805
Width: 533
VWidth: 0
Flags: W
LayerCount: 3
Fore
SplineSet
326 59 m 1
 319 59 l 1
 309 18 266 -20 189 -20 c 0
 72 -20 2 78 2 243 c 0
 2 432 80 533 201 533 c 0
 279 533 311 490 316 459 c 1
 323 459 l 1
 323 512 l 1
 413 512 l 1
 413 0 l 1
 326 0 l 1
 326 59 l 1
217 448 m 0
 148 448 101 400 101 250 c 0
 101 133 144 65 217 65 c 0
 282 65 329 144 329 252 c 0
 329 379 276 448 217 448 c 0
EndSplineSet
EndChar

StartChar: uniFFFA
Encoding: 65530 65530 806
Width: 371
VWidth: 0
Flags: W
LayerCount: 3
Fore
SplineSet
225 594 m 1
 224 529 l 1
 380 529 l 1
 372 475 l 1
 224 475 l 1
 224 73 l 1
 373 51 l 1
 368 0 l 1
 24 0 l 1
 31 44 l 1
 123 70 l 1
 123 475 l 1
 33 475 l 1
 40 519 l 1
 124 533 l 1
 144 708 259 790 345 790 c 0
 409 790 454 769 454 720 c 0
 454 690 420 660 400 652 c 1
 370 700 336 726 302 726 c 0
 257 726 228 698 225 594 c 1
EndSplineSet
EndChar

StartChar: uniFFFF
Encoding: 65535 65535 807
Width: 3556
VWidth: 0
Flags: W
LayerCount: 3
Fore
SplineSet
3189 412 m 1
 3168 430 3139 438 3117 438 c 0
 3085 438 3058 427 3042 419 c 1
 3042 73 l 1
 3182 53 l 1
 3176 0 l 1
 2842 0 l 1
 2849 45 l 1
 2941 69 l 1
 2941 441 l 1
 2843 470 l 1
 2851 516 l 1
 3024 539 l 1
 3036 525 l 1
 3026 444 l 1
 3038 444 l 1
 3062 498 3119 549 3170 549 c 0
 3215 549 3233 516 3233 480 c 0
 3233 454 3221 434 3189 412 c 1
2472.24 590.383 m 1
 2443.19 418.825 l 1
 2451.07 417.489 l 1
 2463.77 492.422 2520.14 549.814 2575.3 582.055 c 1
 2576.3 587.972 l 1
 2472.24 590.383 l 1
1848 584 m 1
 2022 584 l 1
 2022 576 l 1
 1946 576 1880 530 1839 481 c 1
 1833 481 l 1
 1848 584 l 1
1381 372 m 1
 1377 432 1338 461 1278 461 c 0
 1234 461 1190 443 1159 409 c 1
 1159 69 l 1
 1249 48 l 1
 1241 0 l 1
 959.999 -0 l 1
 966 44 l 1
 1057 69 l 1
 1057 437 l 1
 964 468 l 1
 970 514 l 1
 1150 538 l 1
 1161 526 l 1
 1150 449 l 1
 1156 449 l 1
 1197 498 1263 544 1339 544 c 0
 1434 544 1485 481 1485 373 c 1
 1381 372 l 1
741 373 m 2
 741 69 l 1
 828 48 l 1
 822 0 l 1
 549 0 l 1
 556 44 l 1
 639 69 l 1
 639 349 l 2
 639 427 594 461 534 461 c 0
 490 461 446 443 415 409 c 1
 415 69 l 1
 505 48 l 1
 497 0 l 1
 216 0 l 1
 222 44 l 1
 313 69 l 1
 313 437 l 1
 220 468 l 1
 226 514 l 1
 406 538 l 1
 417 526 l 1
 406 449 l 1
 412 449 l 1
 453 498 519 544 595 544 c 0
 690 544 741 481 741 373 c 2
1724 437 m 1
 1631 468 l 1
 1637 514 l 1
 1817 538 l 1
 1828 526 l 1
 1817 449 l 1
 1823 449 l 1
 1864 498 1930 544 2006 544 c 0
 2056 544 2108 516.078 2108 466 c 0
 2108 424.083 2082 400 2032 390 c 1
 2009 434 1988.79 461 1945 461 c 0
 1901 461 1857 443 1826 409.001 c 1
 1826 73 l 1
 1966 53 l 1
 1960 0 l 1
 1626 0 l 1
 1633 44.999 l 1
 1725 69 l 1
 1724 437 l 1
2614 408 m 1
 2593 426 2569 438 2547 438 c 0
 2515 438 2463 397 2450 306 c 1
 2450 73 l 1
 2590 53 l 1
 2584 0 l 1
 2250 0 l 1
 2257 45 l 1
 2349 69 l 1
 2349 441 l 1
 2251 470 l 1
 2259 516 l 1
 2432 539 l 1
 2444 525 l 1
 2434 385 l 1
 2446 385 l 1
 2478 495 2537 549 2588 549 c 0
 2633 549 2661 516 2661 480 c 0
 2661 454 2646 430 2614 408 c 1
EndSplineSet
EndChar

StartChar: upperdot-hb
Encoding: 1476 1476 809
Width: 0
VWidth: 0
Flags: W
LayerCount: 3
Fore
SplineSet
379 1631 m 1
 229 1478 l 1
 78 1631 l 1
 229 1783 l 1
 265 1719 315 1668.33 379 1631 c 1
228.5 987 m 0
EndSplineSet
EndChar

StartChar: upperdot-hb.001
Encoding: 65579 -1 810
Width: 0
VWidth: 0
Flags: W
LayerCount: 3
Fore
SplineSet
379 1631 m 1
 229 1478 l 1
 78 1631 l 1
 229 1783 l 1
 265 1719 315 1668.33 379 1631 c 1
228.5 987 m 0
EndSplineSet
EndChar

StartChar: v
Encoding: 118 118 814
Width: 561
VWidth: 0
Flags: W
LayerCount: 3
Fore
SplineSet
242 -17 m 1
 73 458 l 1
 0 483 l 1
 6 529 l 1
 277 529 l 1
 272 484 l 1
 184 459 l 1
 298 117 l 1
 414 458 l 1
 317 483 l 1
 325 529 l 1
 557 529 l 1
 550 484 l 1
 484 459 l 1
 319 -6 l 1
 242 -17 l 1
EndSplineSet
EndChar

StartChar: vav-hb
Encoding: 1493 1493 815
Width: 258
VWidth: 0
Flags: W
LayerCount: 3
Fore
SplineSet
174 369 m 1
 178 400 163 409 140 416 c 2
 24 450 l 1
 13 464 l 1
 23 592 l 1
 64 596 l 1
 85 541 l 1
 153 521 l 2
 185 512 217 494 218 403 c 2
 220 162 l 2
 220 118 223.938 48.065 230 0 c 1
 172 -10 l 1
 150 5 l 1
 174 369 l 1
129 265 m 0
20 0 m 0
129 530 m 0
20 530 m 0
129 0 m 0
EndSplineSet
EndChar

StartChar: w
Encoding: 119 119 820
Width: 753
VWidth: 0
Flags: W
LayerCount: 3
Fore
SplineSet
428 502 m 1
 511 209 l 1
 524 142 l 1
 606 459 l 1
 515 484 l 1
 521 530 l 1
 753 530 l 1
 746 485 l 1
 681 460 l 1
 552 -6 l 1
 480 -17 l 1
 375 355 l 1
 280 -6 l 1
 208 -17 l 1
 70 459 l 1
 0 484 l 1
 6 530 l 1
 258 530 l 1
 252 485 l 1
 170 460 l 1
 238 218 l 1
 252 146 l 1
 344 491 l 1
 428 502 l 1
386 530 m 0
EndSplineSet
EndChar

StartChar: x
Encoding: 120 120 827
Width: 554
VWidth: 0
Flags: W
LayerCount: 3
Fore
SplineSet
485 69 m 1
 554 45 l 1
 549 0 l 1
 279 0 l 1
 287 44 l 1
 364 69 l 1
 264 212 l 1
 155 69 l 1
 241 45 l 1
 235 0 l 1
 0 0 l 1
 6 44 l 1
 71 69 l 1
 219 264 l 1
 80 463 l 1
 9 488 l 1
 15 534 l 1
 278 534 l 1
 270 489 l 1
 200 464 l 1
 295 332 l 1
 396 463 l 1
 313 488 l 1
 321 534 l 1
 549 534 l 1
 541 489 l 1
 477 464 l 1
 338 283 l 1
 485 69 l 1
EndSplineSet
EndChar

StartChar: y
Encoding: 121 121 828
Width: 572
VWidth: 0
Flags: HW
LayerCount: 3
Back
SplineSet
295.819 -6.2666 m 17
 79 459 l 1
 6 482 l 1
 13 529 l 1
 270 529 l 1
 265 484 l 1
 186 461 l 1
 366 78 l 9
 295.819 -6.2666 l 17
263 -30 m 6
 460 458 l 1
 381 483 l 1
 389 529 l 1
 593 529 l 1
 588 484 l 1
 531 459 l 1
 331 -32 l 6
 267.469 -187.969 216.021 -230 124 -230 c 7
 67.707 -230 34 -193.015 34 -158 c 7
 34 -134.223 40.3906 -113.158 68 -89 c 5
 113 -117 138.931 -122 167 -122 c 7
 197.066 -122 230.399 -110.757 263 -30 c 6
280 530 m 0
EndSplineSet
Fore
SplineSet
238 -30 m 2
 435 458 l 1
 356 483 l 1
 364 529 l 1
 572 529 l 1
 567 484 l 1
 506 459 l 1
 306 -32 l 2
 243 -188 194.021 -230 102 -230 c 3
 45.707 -230 9 -193.015 9 -158 c 3
 9 -134.223 15.3906 -109.158 43 -85 c 1
 76 -108 101.938 -118 134 -118 c 3
 164.066 -118 205 -111 238 -30 c 2
262.396 -32.4678 m 17
 77 459 l 1
 2 482 l 1
 9 529 l 1
 263 529 l 1
 258 484 l 1
 180.89 461 l 1
 319.947 91.8789 l 9
 262.396 -32.4678 l 17
293 530 m 0
EndSplineSet
EndChar

StartChar: yen
Encoding: 165 165 832
Width: 733
VWidth: 0
Flags: W
LayerCount: 3
Fore
SplineSet
316 286 m 1
 130 286 l 1
 137 350 l 1
 297 350 l 1
 151 682 l 1
 68 707 l 1
 76 753 l 1
 359 753 l 1
 352 707 l 1
 272 684 l 1
 399 388 l 1
 531 682 l 1
 436 707 l 1
 442 753 l 1
 682 753 l 1
 676 707 l 1
 601 684 l 1
 447 350 l 1
 631 350 l 1
 624 286 l 1
 433 286 l 1
 433 209 l 1
 629 209 l 1
 622 145 l 1
 433 145 l 1
 433 69 l 1
 532 49 l 1
 526 0 l 1
 219 0 l 1
 225 45 l 1
 316 73 l 1
 316 145 l 1
 128 145 l 1
 135 209 l 1
 316 209 l 1
 316 286 l 1
EndSplineSet
EndChar

StartChar: yerahbenyomoleft-hb
Encoding: 1450 1450 833
Width: 0
VWidth: 0
Flags: W
LayerCount: 3
Fore
SplineSet
533 -219 m 1
 266 -600 l 1
 0 -219 l 1
 96 -154 l 1
 266 -397 l 1
 436 -154 l 1
 533 -219 l 1
266.5 987 m 0
EndSplineSet
EndChar

StartChar: yetiv-hb
Encoding: 1434 1434 834
Width: 2
VWidth: 0
Flags: W
LayerCount: 3
Fore
SplineSet
-2.94169e-29 0 m 0
EndSplineSet
Refer: 480 1444 N 1 0 0 1 990 0 2
EndChar

StartChar: yod-hb
Encoding: 1497 1497 838
Width: 304
VWidth: 0
Flags: W
LayerCount: 3
Fore
SplineSet
142.731 246.765 m 1
 142.731 246.765 194 323.943 194 359 c 0
 194 382 183 399 160 406 c 1
 44 450 l 1
 33 464 l 1
 43 592 l 1
 84 596 l 1
 105 541 l 1
 173 511 l 1
 205 502 238 446 238 393 c 0
 238 358 226 305 226 305 c 2
 221.74 273.763 215 249 209.814 226.152 c 1
 153 229 l 1
 142.731 246.765 l 1
152 265 m 0
20 0 m 0
152 530 m 0
20 530 m 0
152 0 m 0
EndSplineSet
EndChar

StartChar: z
Encoding: 122 122 842
Width: 546
VWidth: 0
Flags: W
LayerCount: 3
Fore
SplineSet
71 529 m 5
 478 529 l 5
 478 484 l 5
 174 60 l 5
 392 60 l 5
 449 167 l 5
 490 162 l 5
 465 0 l 5
 59 0 l 5
 56 53 l 5
 353 472 l 5
 149 472 l 5
 113 360 l 5
 66 368 l 5
 71 529 l 5
273 530 m 4
EndSplineSet
EndChar

StartChar: zaqefgadol-hb
Encoding: 1429 1429 844
Width: 0
VWidth: 0
Flags: W
LayerCount: 3
Fore
SplineSet
397 1952 m 1
 303 1858 l 1
 213 1952 l 1
 303 2042 l 1
 347.333 2024.33 378.667 1994.33 397 1952 c 1
397 1638 m 1
 303 1546 l 1
 213 1638 l 1
 303 1729 l 1
 347.333 1711 378.667 1680.67 397 1638 c 1
117 1546 m 1
 0 1546 l 1
 0 2042 l 1
 117 2042 l 1
 117 1546 l 1
198.5 987 m 0
EndSplineSet
EndChar

StartChar: zaqefqatan-hb
Encoding: 1428 1428 845
Width: 0
VWidth: 0
Flags: W
LayerCount: 3
Fore
SplineSet
284 1952 m 1
 190 1858 l 1
 100 1952 l 1
 190 2042 l 1
 234 2024.33 265.333 1994.33 284 1952 c 1
284 1638 m 1
 190 1546 l 1
 100 1638 l 1
 190 1729 l 1
 234 1711 265.333 1680.67 284 1638 c 1
192 987 m 0
EndSplineSet
EndChar

StartChar: zarqa-hb
Encoding: 1432 1432 846
Width: 0
VWidth: 0
Flags: W
LayerCount: 3
Fore
SplineSet
451 1546 m 1
 336 1546 l 1
 336 1769 l 1
 228 1878 l 1
 117 1769 l 1
 0 1769 l 1
 226 1995 l 1
 451 1769 l 1
 451 1546 l 1
225.5 987 m 0
EndSplineSet
EndChar

StartChar: zayin-hb
Encoding: 1494 1494 847
Width: 263
VWidth: 0
Flags: W
LayerCount: 3
Fore
SplineSet
134 430 m 1
 174 430 l 1
 135 388 145 315 149 280 c 2
 162 162 l 2
 167.297 113.923 181 38 190 -2 c 1
 127 -12 l 1
 106 3 l 1
 92 262 l 2
 90 290 87 387 134 421 c 1
 134 430 l 1
232 402 m 1
 149 422.89 l 1
 146 424.681 l 1
 50 450 l 1
 34 468 l 1
 46 594 l 1
 86 597 l 1
 106 545 l 1
 225 512 l 1
 241 493 l 1
 237.258 404 l 1
 232 402 l 1
132 265 m 0
20 0 m 0
132 530 m 0
20 530 m 0
132 0 m 0
EndSplineSet
EndChar

StartChar: zero
Encoding: 48 48 853
Width: 609
VWidth: 0
Flags: W
HStem: -16 61<240.248 382.562> 667 60<238.803 372.247>
VStem: 52 105<190.742 507.635> 454 103<195.776 520.172>
LayerCount: 3
Back
SplineSet
206 336 m 5
 174 311 140 248 140 184 c 4
 140 112 188 40 252 40 c 4
 320 40 366 80 366 161 c 4
 366 226 294 281 206 336 c 5
40 170 m 4
 40 238 84 302 171 357 c 5
 171 362 l 5
 126 389 67 456 67 537 c 4
 67 639 153 727 259 727 c 4
 363 727 430 662 430 571 c 4
 430 500 400 443 330 391 c 5
 329 385 l 5
 418 329 462 261 462 187 c 4
 462 76 364 -16 225 -16 c 4
 114 -16 40 54 40 170 c 4
289 410 m 5
 314 437 341 472 341 549 c 4
 341 614 307 681 243 681 c 4
 195 681 158 641 158 592 c 4
 158 526 204 459 289 410 c 5
EndSplineSet
Fore
SplineSet
157 353 m 3
 157 131.964 216.565 45 310 45 c 3
 414.12 45 454 131.998 454 355 c 3
 454 552 406.046 667 308 667 c 3
 198 667 157 552.022 157 353 c 3
557 355 m 3
 557 109.655 429 -16 309 -16 c 3
 172.941 -16 52 103.968 52 355 c 3
 52 580.002 172.996 727 307 727 c 3
 453.578 727 557 586.002 557 355 c 3
EndSplineSet
EndChar

StartChar: zinor-hb
Encoding: 1454 1454 854
Width: 0
VWidth: 0
Flags: W
LayerCount: 3
Fore
SplineSet
451 1546 m 1
 336 1546 l 1
 336 1769 l 1
 228 1878 l 1
 117 1769 l 1
 0 1769 l 1
 226 1995 l 1
 451 1769 l 1
 451 1546 l 1
225.5 987 m 0
EndSplineSet
EndChar

StartChar: zero.osf
Encoding: 65580 -1 856
Width: 609
VWidth: 0
Flags: W
HStem: -16 67<237.296 382.459> 521 65<229.862 374.397>
VStem: 40 105<165.713 406.647> 463 106<162.295 408.232>
LayerCount: 3
Fore
SplineSet
145 283 m 0
 145 166 204 51 308 51 c 0
 417 51 463 153 463 285 c 0
 463 405 406 521 306 521 c 0
 196 521 145 416 145 283 c 0
569 283 m 0
 569 123 464 -16 307 -16 c 0
 137 -16 40 104 40 285 c 0
 40 445 149 586 305 586 c 0
 476 586 569 453 569 283 c 0
EndSplineSet
EndChar

StartChar: one.osf
Encoding: 65581 -1 857
Width: 383
VWidth: 0
Flags: W
HStem: 0 45<35 63.672 328.653 357> 477 47<47 75.672>
VStem: 147 101<73 476>
LayerCount: 3
Fore
SplineSet
248 570 m 1
 248 69 l 1
 363 49 l 1
 357 0 l 1
 30 0 l 1
 35 45 l 1
 147 73 l 1
 147 476 l 1
 42 477 l 1
 47 524 l 1
 231 570 l 1
 248 570 l 1
EndSplineSet
EndChar

StartChar: two.osf
Encoding: 65582 -1 858
Width: 496
VWidth: 0
Flags: W
HStem: 0 84<156 381> 506 79<175.113 283.77>
VStem: 49 45<409.133 432.723> 315 109<330.008 473.781>
DStem2: 192 182 156 84 0.7888 0.61465<-88.6325 130.739>
LayerCount: 3
Fore
SplineSet
444 0 m 1
 42 0 l 1
 38 62 l 1
 192 182 l 2
 294 262 315 340 315 399 c 0
 315 465 282 506 224 506 c 0
 156 506 110 428 94 394 c 1
 49 412 l 1
 59 470 140 585 266 585 c 0
 355 585 424 521 424 426 c 0
 424 308 329 211 212 125 c 2
 156 84 l 1
 381 84 l 1
 428 168 l 1
 471 162 l 1
 444 0 l 1
EndSplineSet
EndChar

StartChar: three.osf
Encoding: 65583 -1 859
Width: 452
VWidth: 0
Flags: W
HStem: -180 53<114.51 248.532> 174 40<140 169.745> 504 81<151.494 255.429>
VStem: 42 47<426.56 454.078> 280 104<346.533 477.635> 304 108<-32.6062 85.8745>
LayerCount: 3
Fore
SplineSet
77 -33 m 1xf4
 81 -59 106 -127 164 -127 c 0
 276 -127 304 -52 304 18 c 0xf4
 304 88 224 174 150 174 c 2
 140 174 l 1
 134 214 l 1
 158 222 280 291 280 401 c 0
 280 454 259 504 204 504 c 0
 139 504 112 468 89 413 c 1
 42 429 l 1
 54 493 131 585 239 585 c 0
 331 585 384 521 384 433 c 0xf8
 384 338 310 270 262 240 c 1
 262 233 l 1
 359 206 412 132 412 54 c 0
 412 -49 312 -180 152 -180 c 0
 47 -180 0 -136 0 -96 c 0
 0 -66 27 -38 77 -33 c 1xf4
EndSplineSet
EndChar

StartChar: four.osf
Encoding: 65584 -1 860
Width: 577
VWidth: 0
Flags: W
HStem: 54 74<133 337 439 582>
VStem: 338 101<-162 52 128 410>
LayerCount: 3
Fore
SplineSet
338 -184 m 1
 338 54 l 1
 44 54 l 1
 30 99 l 1
 405 597 l 1
 444 586 l 1
 440 514 438 372 438 262 c 2
 438 128 l 1
 592 128 l 1
 582 52 l 1
 439 52 l 1
 439 -162 l 1
 338 -184 l 1
337 128 m 1
 337 410 l 1
 133 128 l 1
 337 128 l 1
EndSplineSet
EndChar

StartChar: five.osf
Encoding: 65585 -1 861
Width: 476
VWidth: 0
Flags: W
HStem: -180 55<105.399 236.638>
VStem: 305 111<-15.2909 134.65>
DStem2: 70 243 143 330 0.169052 0.985607<97.8867 232.753> 123 552 170 462 0.996365 0.085191<39.1619 246.602>
LayerCount: 3
Fore
SplineSet
392 575 m 5
 377 476 l 5
 170 462 l 5
 143 330 l 5
 317 300 416 218 416 78 c 4
 416 -46 297 -180 137 -180 c 4
 22 -180 -20 -139 -20 -101 c 4
 -20 -71 5 -44 41 -37 c 5
 59 -62 103 -125 169 -125 c 4
 247 -125 305 -48 305 39 c 4
 305 159 235 224 70 243 c 5
 123 552 l 5
 392 575 l 5
EndSplineSet
EndChar

StartChar: six.osf
Encoding: 65586 -1 862
Width: 498
VWidth: 0
Flags: W
HStem: -13 50<212.366 316.61> 362 62<211.948 319.029> 695 35<385.362 396.506>
VStem: 40 113<123.248 350.329> 368 110<116.115 307.404>
LayerCount: 3
Fore
SplineSet
159 364 m 1
 165 364 l 1
 192 395 236 424 301 424 c 0
 419 424 478 324 478 214 c 0
 478 90 376 -13 255 -13 c 0
 100 -13 40 113 40 255 c 0
 40 458 201 668 392 730 c 1
 414 695 l 1
 256 623 183 484 159 364 c 1
260 37 m 0
 324 37 368 105 368 198 c 0
 368 280 343 362 257 362 c 0
 212 362 172 336 157 314 c 1
 155 294 153 267 153 246 c 0
 153 143 189 37 260 37 c 0
EndSplineSet
EndChar

StartChar: seven.osf
Encoding: 65587 -1 863
Width: 449
VWidth: 0
Flags: W
HStem: 466 92<90 344>
VStem: 45 99<-167.426 -44.7803>
LayerCount: 3
Fore
SplineSet
67 -31 m 0
 140 134 248 297 344 466 c 1
 90 466 l 1
 62 391 l 1
 20 399 l 1
 35 558 l 1
 421 558 l 1
 429 500 l 1
 316 296 242 186 185 19 c 0
 166 -37 144 -128 144 -179 c 1
 137 -180 122 -184 116 -184 c 0
 78 -184 45 -159 45 -118 c 0
 45 -97 51 -67 67 -31 c 0
EndSplineSet
EndChar

StartChar: eight.osf
Encoding: 65588 -1 864
Width: 502
VWidth: 0
Flags: W
HStem: -16 56<195.043 322.593> 681 46<187.779 297.205>
VStem: 40 100<100.904 250.727> 67 91<513.475 623.388> 341 89<477.48 634.192> 366 96<99.5752 221.666>
LayerCount: 3
Fore
SplineSet
206 336 m 1xe4
 174 311 140 248 140 184 c 0
 140 112 188 40 252 40 c 0
 320 40 366 80 366 161 c 0
 366 226 294 281 206 336 c 1xe4
40 170 m 0
 40 238 84 302 171 357 c 1
 171 362 l 1
 126 389 67 456 67 537 c 0
 67 639 153 727 259 727 c 0
 363 727 430 662 430 571 c 0xd8
 430 500 400 443 330 391 c 1
 329 385 l 1
 418 329 462 261 462 187 c 0
 462 76 364 -16 225 -16 c 0
 114 -16 40 54 40 170 c 0
289 410 m 1
 314 437 341 472 341 549 c 0
 341 614 307 681 243 681 c 0
 195 681 158 641 158 592 c 0
 158 526 204 459 289 410 c 1
EndSplineSet
EndChar

StartChar: nine.osf
Encoding: 65589 -1 865
Width: 495
VWidth: 0
Flags: W
HStem: -156 45<96.77 126.823> 139 65<172.93 280.861> 525 49<176.667 289.933>
VStem: 20 106<258.674 440.807> 347 108<249.073 443.255>
LayerCount: 3
Fore
SplineSet
339 204 m 1
 331 204 l 1
 301 163 248 139 195 139 c 0
 77 139 20 237 20 347 c 0
 20 471 125 574 241 574 c 0
 400 574 455 448 455 306 c 0
 455 103 299 -92 99 -156 c 1
 85 -111 l 1
 262 -36 315 84 339 204 c 1
236 525 m 0
 163 525 126 456 126 363 c 0
 126 281 153 204 239 204 c 0
 281 204 323 226 342 257 c 1
 347 285 347 307 347 332 c 0
 347 431 306 525 236 525 c 0
EndSplineSet
EndChar
